<svg width="121" height="66" viewBox="0 0 121 66" fill="none" xmlns="http://www.w3.org/2000/svg">
<mask id="path-1-inside-1_1677_64126" fill="white">
<path fill-rule="evenodd" clip-rule="evenodd" d="M48.8926 15.4569C35.3634 9.79945 7.36608 7.57467 4.87643 23.16C3.08377 29.6164 11.1574 45.0162 48.6517 55.0014C66.782 59.3127 105.727 62.2208 116.468 39.3627C119.707 31.7637 114.129 19.1352 99.0371 15.3508C86.3154 12.1608 81.6139 16.1965 78.9337 18.4972C78.4344 18.9258 78.0052 19.2942 77.6073 19.5444C75.0743 21.1377 68.144 24.9004 48.8926 15.4569ZM46.5904 18.7105C52.3168 19.6252 56.5932 22.6564 56.142 25.4807C55.6908 28.305 50.6829 29.8531 44.9566 28.9383C39.2302 28.0236 34.9538 24.9924 35.4049 22.1681C35.8561 19.3438 40.864 17.7957 46.5904 18.7105Z"/>
</mask>
<path fill-rule="evenodd" clip-rule="evenodd" d="M48.8926 15.4569C35.3634 9.79945 7.36608 7.57467 4.87643 23.16C3.08377 29.6164 11.1574 45.0162 48.6517 55.0014C66.782 59.3127 105.727 62.2208 116.468 39.3627C119.707 31.7637 114.129 19.1352 99.0371 15.3508C86.3154 12.1608 81.6139 16.1965 78.9337 18.4972C78.4344 18.9258 78.0052 19.2942 77.6073 19.5444C75.0743 21.1377 68.144 24.9004 48.8926 15.4569ZM46.5904 18.7105C52.3168 19.6252 56.5932 22.6564 56.142 25.4807C55.6908 28.305 50.6829 29.8531 44.9566 28.9383C39.2302 28.0236 34.9538 24.9924 35.4049 22.1681C35.8561 19.3438 40.864 17.7957 46.5904 18.7105Z" fill="#FFD37B"/>
<path d="M4.87643 23.16L5.37017 23.2389L5.36573 23.2666L5.3582 23.2937L4.87643 23.16ZM48.8926 15.4569L49.0855 14.9956L49.0993 15.0014L49.1128 15.008L48.8926 15.4569ZM48.6517 55.0014L48.536 55.488L48.5231 55.4845L48.6517 55.0014ZM116.468 39.3627L116.928 39.5587L116.924 39.5671L116.92 39.5753L116.468 39.3627ZM99.0371 15.3508L98.9155 15.8358L99.0371 15.3508ZM78.9337 18.4972L79.2594 18.8765L78.9337 18.4972ZM77.6073 19.5444L77.8735 19.9677L77.6073 19.5444ZM4.38269 23.0811C5.03203 19.0162 7.35294 16.1143 10.6462 14.156C13.9234 12.2072 18.164 11.1894 22.7068 10.8439C31.7906 10.1528 42.2512 12.1377 49.0855 14.9956L48.6997 15.9182C42.0049 13.1186 31.7021 11.1624 22.7826 11.841C18.3237 12.1802 14.2526 13.1749 11.1573 15.0155C8.07803 16.8466 5.96565 19.5111 5.37017 23.2389L4.38269 23.0811ZM48.5231 55.4845C29.7294 50.4795 18.2549 44.1042 11.6947 38.127C5.15694 32.1702 3.42364 26.5234 4.39465 23.0262L5.3582 23.2937C4.53655 26.253 5.94374 31.5343 12.3682 37.3878C18.7702 43.2209 30.0798 49.538 48.7804 54.5182L48.5231 55.4845ZM116.92 39.5753C111.437 51.2443 98.7882 56.2694 85.3902 57.8671C71.9713 59.4672 57.6413 57.653 48.5361 55.4878L48.7674 54.5149C57.7924 56.6611 72.0003 58.4566 85.2718 56.8741C98.564 55.2891 110.758 50.3392 116.015 39.15L116.92 39.5753ZM99.1588 14.8658C114.446 18.6991 120.326 31.5871 116.928 39.5587L116.008 39.1666C119.088 31.9404 113.813 19.5713 98.9155 15.8358L99.1588 14.8658ZM78.608 18.1178C79.9571 16.9598 81.871 15.3141 85.0808 14.3847C88.287 13.4564 92.7357 13.2552 99.1588 14.8658L98.9155 15.8358C92.6169 14.2564 88.3539 14.4781 85.3589 15.3453C82.3675 16.2114 80.5905 17.7339 79.2594 18.8765L78.608 18.1178ZM77.3411 19.1212C77.7008 18.895 78.0991 18.5547 78.608 18.1178L79.2594 18.8765C78.7696 19.2969 78.3096 19.6934 77.8735 19.9677L77.3411 19.1212ZM49.1128 15.008C58.6982 19.71 65.1681 21.0998 69.5239 21.1395C73.8572 21.179 76.1297 19.8832 77.3411 19.1212L77.8735 19.9677C76.5519 20.799 74.0928 22.1812 69.5148 22.1394C64.9593 22.0979 58.3384 20.6473 48.6724 15.9058L49.1128 15.008ZM55.6483 25.4018C55.8273 24.281 55.0761 22.98 53.3936 21.7874C51.7402 20.6154 49.3156 19.6521 46.5115 19.2042L46.6693 18.2167C49.5916 18.6835 52.1684 19.6932 53.9719 20.9716C55.7464 22.2293 56.9079 23.8561 56.6358 25.5596L55.6483 25.4018ZM45.0354 28.4446C47.8395 28.8925 50.4435 28.7325 52.3798 28.134C54.3501 27.5249 55.4692 26.5227 55.6483 25.4018L56.6358 25.5596C56.3636 27.2631 54.7532 28.447 52.6752 29.0894C50.5631 29.7422 47.8 29.8989 44.8777 29.4321L45.0354 28.4446ZM35.8987 22.247C35.7196 23.3678 36.4708 24.6688 38.1533 25.8614C39.8068 27.0334 42.2313 27.9966 45.0354 28.4446L44.8777 29.4321C41.9554 28.9652 39.3785 27.9556 37.575 26.6772C35.8005 25.4194 34.6391 23.7927 34.9112 22.0892L35.8987 22.247ZM46.5115 19.2042C43.7074 18.7563 41.1034 18.9163 39.1671 19.5148C37.1968 20.1239 36.0777 21.1261 35.8987 22.247L34.9112 22.0892C35.1833 20.3857 36.7937 19.2018 38.8718 18.5594C40.9838 17.9066 43.747 17.7499 46.6693 18.2167L46.5115 19.2042Z" fill="black" mask="url(#path-1-inside-1_1677_64126)"/>
<path d="M28.5128 27.3061L28.5309 27.1925L28.629 27.1324C29.0336 26.8843 29.2678 26.6239 29.3832 26.3716C29.4966 26.1237 29.506 25.8611 29.4191 25.5815C29.2394 25.004 28.6499 24.3663 27.7539 23.7797C25.973 22.6138 23.1639 21.768 20.7857 22.0111L20.7327 22.0166L20.682 21.9999C20.3405 21.8873 20.059 21.7266 19.8034 21.5704C19.7564 21.5417 19.7107 21.5134 19.6658 21.4856C19.4608 21.3588 19.2728 21.2425 19.063 21.1468C18.5787 20.926 17.9676 20.8121 16.8811 21.1406L16.8574 21.1477L16.8328 21.1501C16.3158 21.2 15.8284 21.245 15.3706 21.2873C14.4185 21.3752 13.594 21.4514 12.8953 21.5355C11.8522 21.6612 11.1337 21.8008 10.7102 22.003C10.5023 22.1024 10.3953 22.2033 10.3453 22.297C10.299 22.3835 10.2825 22.4994 10.3352 22.677C10.3895 22.8603 10.5132 23.092 10.726 23.3839C10.9372 23.6736 11.2271 24.0103 11.6008 24.4033L11.7476 24.5576L11.6186 24.727C11.1045 25.4021 10.8948 25.9782 10.9037 26.4649C10.9125 26.9436 11.1337 27.3787 11.575 27.7769C12.4763 28.5902 14.236 29.1939 16.6257 29.5756L16.679 29.5841L16.7241 29.6139C20.0283 31.7964 22.8922 31.7437 24.9659 30.8912C26.008 30.4629 26.8563 29.8302 27.4647 29.1675C28.0774 28.5001 28.4306 27.8205 28.5128 27.3061Z" fill="#F93A3A" stroke="black" stroke-width="0.5"/>
<path d="M21.9166 38.4358L21.9884 38.3897L21.9977 38.3317C22.1713 37.2452 22.9452 36.434 24.028 35.8619C25.1152 35.2875 26.5361 34.9427 28.0286 34.8129C31.0355 34.5513 34.2122 35.168 35.4036 36.428L35.4458 36.4725L35.5289 36.494C35.9002 36.5897 36.2893 36.6224 36.644 36.6451C36.7106 36.6493 36.7755 36.6532 36.8389 36.657C37.1252 36.6742 37.3804 36.6896 37.625 36.7279C37.9102 36.7727 38.1662 36.8475 38.3884 36.9926C38.6145 37.1402 38.8197 37.3699 38.9681 37.7378L38.9763 37.7583L38.9939 37.7766C39.2654 38.058 39.5236 38.3217 39.7659 38.5692C40.2688 39.0828 40.7036 39.5269 41.0483 39.9161C41.5626 40.4967 41.8488 40.9265 41.8729 41.2561C41.8846 41.4161 41.8335 41.5442 41.7277 41.6521C41.6219 41.7602 41.4474 41.8624 41.1709 41.9601C40.603 42.1607 39.6607 42.3233 38.2084 42.4694L38.0212 42.4882L37.9496 42.5866C36.9468 43.9634 35.6005 44.5625 34.0992 44.647C32.5478 44.7343 30.7047 44.2839 28.7141 43.3842L28.646 43.3534L28.5546 43.3498C23.7162 43.1596 21.4945 42.2922 20.7464 41.3284C19.9967 40.3625 20.6741 39.2327 21.9166 38.4358Z" fill="#FFD527" stroke="black" stroke-width="0.5"/>
<path d="M63.3856 49.8687L63.3675 49.9823L63.4419 50.07C63.7492 50.4317 63.8906 50.7522 63.9217 51.0279C63.9522 51.2987 63.8793 51.5512 63.7096 51.7898C63.359 52.2826 62.6001 52.7049 61.5659 52.9831C59.5105 53.5362 56.5777 53.4648 54.3936 52.4929L54.3449 52.4712L54.2916 52.4713C53.932 52.4718 53.6144 52.5369 53.3228 52.6057C53.2693 52.6183 53.217 52.6309 53.1657 52.6433C52.9314 52.7 52.7165 52.7519 52.4873 52.7775C51.9583 52.8365 51.3422 52.7543 50.412 52.1037L50.3918 52.0895L50.3691 52.0796C49.8934 51.8711 49.4443 51.6765 49.0224 51.4937C48.1452 51.1135 47.3854 50.7843 46.7476 50.4866C45.7956 50.0423 45.1563 49.6858 44.817 49.3617C44.6503 49.2025 44.5801 49.0732 44.5618 48.9687C44.5448 48.872 44.5652 48.7568 44.6706 48.6044C44.7793 48.4471 44.969 48.2655 45.2621 48.0545C45.5531 47.845 45.9335 47.6153 46.411 47.3584L46.5986 47.2574L46.5288 47.0562C46.2506 46.2546 46.2308 45.6418 46.3909 45.1822C46.5483 44.73 46.8941 44.3855 47.4375 44.1446C48.5473 43.6525 50.4075 43.6271 52.7972 44.0089L52.8505 44.0174L52.9026 44.0031C56.7224 42.9587 59.4273 43.9009 61.1322 45.357C61.989 46.0887 62.598 46.9542 62.9697 47.7734C63.3439 48.5985 63.4678 49.3542 63.3856 49.8687Z" fill="#316FFF" stroke="black" stroke-width="0.5"/>
<path d="M106.299 42.4881L105.763 42.4911L106.11 42.8999C106.417 43.2616 106.558 43.5821 106.589 43.8578C106.62 44.1286 106.547 44.3811 106.377 44.6197C106.027 45.1125 105.268 45.5348 104.234 45.813C102.178 46.3661 99.2454 46.2947 97.0613 45.3228L97.0126 45.3011L96.9593 45.3012C96.5997 45.3017 96.2821 45.3668 95.9905 45.4356C95.937 45.4482 95.8847 45.4608 95.8334 45.4732C95.5991 45.5299 95.3842 45.5818 95.155 45.6074C94.659 45.6627 94.0863 45.5939 93.2499 45.0486C93.2756 44.9644 93.2879 44.8783 93.2859 44.7907C93.2822 44.6267 93.2286 44.4751 93.1468 44.3385C92.9878 44.073 92.7065 43.8388 92.3878 43.6286C91.9028 43.3086 91.2543 42.9972 90.6238 42.6944C90.4244 42.5987 90.2268 42.5038 90.0367 42.4098C89.6341 42.2106 89.2617 42.0141 88.9574 41.8161C88.6484 41.6151 88.434 41.4277 88.3232 41.2551C88.2698 41.172 88.2456 41.1 88.2405 41.0368C88.2356 40.9757 88.2474 40.9078 88.2901 40.828C88.3811 40.658 88.6095 40.4408 89.0788 40.1883L89.2663 40.0873L89.1965 39.8861C88.9183 39.0845 88.8985 38.4717 89.0586 38.0121C89.2161 37.5599 89.5618 37.2154 90.1052 36.9745C91.215 36.4824 93.0752 36.457 95.4649 36.8388L95.5182 36.8473L95.5703 36.833C99.3628 35.796 102.74 37.2858 104.804 39.0497C105.839 39.9346 106.518 40.8675 106.758 41.5536C106.881 41.902 106.873 42.1373 106.807 42.2704C106.753 42.3794 106.624 42.4862 106.299 42.4881Z" fill="#F708B7" stroke="black" stroke-width="0.5"/>
<path d="M89.4121 50.029L88.8697 50.0274L89.2208 50.4408C89.528 50.8026 89.6694 51.123 89.7005 51.3987C89.7311 51.6696 89.6582 51.9221 89.4884 52.1606C89.1378 52.6535 88.379 53.0757 87.3448 53.354C85.2893 53.9071 82.3566 53.8356 80.1724 52.8637L80.1237 52.842L80.0704 52.8421C79.7108 52.8427 79.3933 52.9077 79.1017 52.9765C79.0481 52.9891 78.9959 53.0018 78.9445 53.0142C78.7103 53.0708 78.4954 53.1228 78.2662 53.1483C77.7372 53.2073 77.1211 53.1252 76.1909 52.4745L76.1046 52.4142L76.0011 52.4338C75.5673 52.5158 74.8797 52.3918 74.1237 52.0923C73.3775 51.7967 72.6077 51.3473 72.0205 50.8288C71.4249 50.3028 71.0588 49.7434 71.0304 49.2327C71.0037 48.7549 71.272 48.2231 72.1899 47.7292L72.3774 47.6283L72.3076 47.4271C72.0294 46.6255 72.0097 46.0127 72.1698 45.553C72.3272 45.1008 72.6729 44.7563 73.2164 44.5154C74.3262 44.0234 76.1863 43.998 78.5761 44.3797L78.6294 44.3882L78.6815 44.374C82.4772 43.3361 86.2984 44.8367 88.5845 46.6101C89.1537 47.0516 89.622 47.506 89.9677 47.9357C90.3157 48.3685 90.5283 48.7626 90.6054 49.0835C90.681 49.3984 90.6219 49.6102 90.4747 49.751C90.3125 49.9061 89.9879 50.0307 89.4121 50.029Z" fill="#2AF54C" stroke="black" stroke-width="0.5"/>
<path d="M109.706 29.7051L109.19 29.5377L109.653 29.2542C110.057 29.0061 110.291 28.7457 110.407 28.4934C110.52 28.2456 110.53 27.9829 110.443 27.7033C110.263 27.1258 109.674 26.4882 108.777 25.9015C106.997 24.7357 104.188 23.8899 101.809 24.133L101.756 24.1384L101.706 24.1217C101.364 24.0092 101.083 23.8484 100.827 23.6922C100.78 23.6635 100.734 23.6352 100.689 23.6075C100.484 23.4807 100.296 23.3644 100.087 23.2687C99.6024 23.0478 98.9913 22.9339 97.9047 23.2624L97.8039 23.2928L97.7117 23.242C97.325 23.0289 96.633 22.9326 95.8213 22.9816C95.0202 23.03 94.1487 23.2173 93.4292 23.527C92.6993 23.8413 92.1772 24.2588 91.991 24.7352C91.8169 25.1809 91.9062 25.7698 92.6245 26.5251L92.7713 26.6794L92.6422 26.8488C92.1282 27.5239 91.9185 28.1 91.9274 28.5867C91.9361 29.0655 92.1573 29.5005 92.5986 29.8987C93.4999 30.712 95.2596 31.3157 97.6494 31.6974L97.7027 31.7059L97.7477 31.7357C101.031 33.9045 105.13 33.669 107.855 32.696C108.533 32.4538 109.12 32.168 109.582 31.8673C110.047 31.5645 110.372 31.2562 110.545 30.9753C110.715 30.6996 110.725 30.4799 110.629 30.3004C110.523 30.1024 110.254 29.8829 109.706 29.7051Z" fill="#5A00BA" stroke="black" stroke-width="0.5"/>
</svg>
