<svg width="96" height="91" viewBox="0 0 96 91" fill="none" xmlns="http://www.w3.org/2000/svg">
<path d="M15.2539 2.11719L14.9984 3.94873L14.7003 6.08553L32.7166 20.0253C33.6342 15.7641 28.4458 10.4561 15.2539 2.11719Z" fill="#FADDA3" stroke="black" stroke-width="0.5"/>
<path d="M13.2148 2.12598L13.162 3.9745L13.1003 6.13112L32.4655 19.0186C34.0712 14.6244 20.0954 5.92006 13.2148 2.12598Z" fill="#FADDA3" stroke="black" stroke-width="0.5"/>
<path d="M72.2173 0.576172C62.0462 2.73367 43.2452 13.1102 36.1562 18.7608L74.3748 7.66509L72.2173 0.576172Z" fill="#FADDA3" stroke="black" stroke-width="0.5"/>
<path d="M10.2651 2.7334L3.48438 5.19911L27.2169 22.4591C26.7237 21.4728 30.5045 19.377 32.4565 18.4523C29.4976 12.7812 16.4294 5.61006 10.2651 2.7334Z" fill="#FADDA3" stroke="black" stroke-width="0.5"/>
<path d="M35.8477 18.761L42.0119 22.4595L86.0865 3.35026L76.8401 1.50098C68.2101 1.74755 45.916 13.1104 35.8477 18.761Z" fill="#FADDA3" stroke="black" stroke-width="0.5"/>
<path d="M42.3779 24.617C42.3779 27.9988 38.8262 30.8395 34.3062 30.8395C29.7861 30.8395 26.2344 27.9988 26.2344 24.617C26.2344 21.2353 29.7861 18.3945 34.3062 18.3945C38.8262 18.3945 42.3779 21.2353 42.3779 24.617Z" fill="#C97D31" stroke="black" stroke-width="0.5"/>
<path d="M41.1466 25.2338C41.1466 26.5827 40.4074 27.8244 39.1717 28.7377C37.9361 29.651 36.2172 30.2234 34.3077 30.2234C32.3981 30.2234 30.6793 29.651 29.4436 28.7377C28.208 27.8244 27.4688 26.5827 27.4688 25.2338C27.4688 23.8848 28.208 22.6432 29.4436 21.7298C30.6793 20.8166 32.3981 20.2441 34.3077 20.2441C36.2172 20.2441 37.9361 20.8166 39.1717 21.7298C40.4074 22.6432 41.1466 23.8848 41.1466 25.2338Z" fill="#773F07" stroke="black" stroke-width="0.5"/>
<path d="M2.86882 4.58268L1.34719 4.32908C1.19853 4.3043 1.07692 4.44662 1.12458 4.5896L1.94417 7.04839L21.3617 37.5616L87.6277 18.4523L89.4638 2.84508C89.4708 2.78563 89.4243 2.7334 89.3645 2.7334H87.0112L41.0873 22.7673C38.3751 24.4933 31.019 23.8974 28.1424 23.3837L2.86882 4.58268Z" fill="#FF5943" stroke="black" stroke-width="0.5"/>
<path d="M41.0859 24.5701L50.6406 88.0622L95.3316 65.8708L89.4755 2.99512L41.0859 24.5701Z" fill="#DC3722" stroke="black" stroke-width="0.5"/>
<path d="M50.6402 88.0624L41.0856 24.5703L39.8405 24.8139C35.9791 25.5694 32.0101 25.5913 28.1406 24.8785L37.3351 87.4013C37.3671 87.6186 37.5159 87.8008 37.7225 87.8755L38.5746 88.1837C42.4801 89.5963 46.764 89.5533 50.6402 88.0624Z" fill="#DC3722" stroke="black" stroke-width="0.5"/>
<path d="M15.1974 66.1785L1.08107 4.54311C1.0602 4.45201 1.16461 4.38462 1.23904 4.44116L28.1424 24.8778L37.3888 87.4452L15.1974 66.1785Z" fill="#DC3722" stroke="black" stroke-width="0.5"/>
<path d="M39.8555 19.6857C48.6909 14.9598 67.9029 4.70651 74.0672 3.9668" stroke="black" stroke-width="0.5"/>
<path d="M51.875 15.6784C60.4862 11.1942 78.4328 3.49487 80.8471 2.7334" stroke="black" stroke-width="0.5"/>
<path d="M27.8359 15.6787C28.8633 16.4064 30.9181 18.0417 30.9181 18.7609" stroke="black" stroke-width="0.5"/>
<path d="M7.49219 3.9668C11.8072 6.02156 20.129 11.0557 23.2111 14.1379" stroke="black" stroke-width="0.5"/>
<path d="M25.9834 19.9936C20.7438 15.8841 10.0796 7.66504 9.33984 7.66504" stroke="black" stroke-width="0.5"/>
<path d="M42.0114 31.0889C36.5868 33.5546 31.0184 32.1162 29.0664 31.0889L29.6828 34.7874C33.3814 37.9929 39.7512 36.123 42.6278 34.7874L42.0114 31.0889Z" fill="#FFD527" stroke="black" stroke-width="0.5"/>
<path d="M49.2794 79.5488C43.173 82.831 38.0945 80.1901 36.1562 79.1699L36.7727 83.4849C42.3205 87.1835 46.6355 85.026 50.0259 84.1013L49.4288 79.6229C49.4195 79.5533 49.3414 79.5155 49.2794 79.5488Z" fill="#FFD527" stroke="black" stroke-width="0.5"/>
<path d="M42.9372 37.2529C36.1565 41.2597 32.1497 38.794 29.9922 37.5611L30.3004 39.4104C33.0743 41.8761 38.0058 43.109 43.2454 39.4104L42.9372 37.2529Z" fill="#FFD527" stroke="black" stroke-width="0.5"/>
</svg>
