<svg width="360" height="457" viewBox="0 0 360 457" fill="none" xmlns="http://www.w3.org/2000/svg">
<g clip-path="url(#clip0_2518_6120)">
<rect width="360" height="457" rx="16" fill="#6C54F7"/>
<ellipse cx="50" cy="447.5" rx="855" ry="265.5" fill="#36C1B3"/>
<circle cx="50" cy="50" r="19.5" fill="white" stroke="black"/>
<path d="M50.043 58.2148C46.9492 58.2148 44.7363 56.5605 44.6289 54.0898H46.584C46.6914 55.5723 48.1738 56.4961 50.0215 56.4961C52.0625 56.4961 53.5664 55.3789 53.5664 53.7676C53.5664 52.0703 52.2129 50.8672 49.7852 50.8672H48.5176V49.1699H49.7852C51.6758 49.1699 52.9863 48.1172 52.9863 46.5059C52.9863 44.959 51.8477 43.9062 50.0859 43.9062C48.4316 43.9062 46.9062 44.8301 46.8203 46.3555H44.9512C45.0586 43.8848 47.3359 42.2305 50.1074 42.2305C53.0723 42.2305 54.877 44.1641 54.8555 46.3984C54.877 48.1602 53.8457 49.4707 52.2129 49.9219V50.0293C54.2324 50.3516 55.4785 51.791 55.457 53.7676C55.4785 56.3242 53.1367 58.2148 50.043 58.2148Z" fill="#111111"/>
</g>
<defs>
<clipPath id="clip0_2518_6120">
<rect width="360" height="457" rx="16" fill="white"/>
</clipPath>
</defs>
</svg>
