<svg width="360" height="457" viewBox="0 0 360 457" fill="none" xmlns="http://www.w3.org/2000/svg">
<g clip-path="url(#clip0_2518_6549)">
<rect width="360" height="457" rx="16" fill="#6C54F7"/>
<ellipse cx="744" cy="447.5" rx="855" ry="265.5" fill="#36C1B3"/>
<circle cx="50" cy="50" r="19.5" fill="white" stroke="black"/>
<path d="M48.8242 53.5098C48.8457 50.6309 49.7266 49.75 51.209 48.8477C52.0898 48.3105 52.7773 47.4512 52.7773 46.248C52.7773 44.7871 51.6387 43.8633 50.2207 43.8633C48.9961 43.8633 47.7715 44.5938 47.6426 46.3555H45.6875C45.7949 43.7559 47.7715 42.2305 50.2207 42.2305C52.9062 42.2305 54.668 43.9707 54.668 46.334C54.668 48.0098 53.873 49.1914 52.541 50.0078C51.209 50.8242 50.7148 51.6406 50.6719 53.5098V53.6172H48.8242V53.5098ZM49.8125 58.1289C49.0605 58.1289 48.416 57.5059 48.4375 56.7324C48.416 55.9805 49.0605 55.3574 49.8125 55.3574C50.5645 55.3574 51.1875 55.9805 51.1875 56.7324C51.1875 57.5059 50.5645 58.1289 49.8125 58.1289Z" fill="#111111"/>
</g>
<defs>
<clipPath id="clip0_2518_6549">
<rect width="360" height="457" rx="16" fill="white"/>
</clipPath>
</defs>
</svg>
