<svg width="360" height="457" viewBox="0 0 360 457" fill="none" xmlns="http://www.w3.org/2000/svg">
<g clip-path="url(#clip0_2518_6116)">
<rect width="360" height="457" rx="16" fill="#6C54F7"/>
<ellipse cx="303.132" cy="447.5" rx="855" ry="265.5" fill="#36C1B3"/>
<circle cx="50" cy="50" r="19.5" fill="white" stroke="black"/>
<path d="M45.5049 58L45.4834 56.582L50.79 50.9961C52.6377 49.041 53.5186 47.9883 53.5186 46.5488C53.5186 44.959 52.165 43.9062 50.4248 43.9062C48.5771 43.9062 47.3955 45.0879 47.3955 46.8281H45.5693C45.5479 44.0781 47.6748 42.2305 50.4893 42.2305C53.3037 42.2305 55.3232 44.1211 55.3232 46.5488C55.3232 48.2891 54.5068 49.6426 51.7568 52.4785L48.1904 56.1523V56.2812H55.6025V58H45.5049Z" fill="#111111"/>
</g>
<defs>
<clipPath id="clip0_2518_6116">
<rect width="360" height="457" rx="16" fill="white"/>
</clipPath>
</defs>
</svg>
