<svg width="89" height="77" viewBox="0 0 89 77" fill="none" xmlns="http://www.w3.org/2000/svg">
<rect x="61.1758" y="52.9492" width="14.5" height="8.5" fill="#4D4F68" stroke="black" stroke-width="0.5"/>
<path d="M74.1758 61.5447V52.8537L86.1432 46.87C87.3067 46.2883 88.6758 47.1344 88.6758 48.4353V65.9632C88.6758 67.2641 87.3067 68.1102 86.1432 67.5284L74.1758 61.5447Z" fill="#33344A" stroke="black" stroke-width="0.5"/>
<rect x="55.1758" y="42.9492" width="14.5" height="29.5" rx="1.75" fill="#33344A" stroke="black" stroke-width="0.5"/>
<rect x="24.1758" y="15.9492" width="19.5" height="31.5" fill="#33344A" stroke="black" stroke-width="0.5"/>
<rect x="5.17578" y="37.9492" width="59.5" height="38.5" fill="#4D4F68" stroke="black" stroke-width="0.5"/>
<rect x="10.1758" y="61.9492" width="10.5" height="10.5" rx="1.75" fill="#33344A" stroke="black" stroke-width="0.5"/>
<rect x="29.1758" y="62.9492" width="20.5" height="8.5" rx="1.75" fill="#E4E5F2" stroke="black" stroke-width="0.5"/>
<path d="M1.17578 44.6992C1.17578 43.7327 1.95928 42.9492 2.92578 42.9492H41.9258C44.5491 42.9492 46.6758 45.0759 46.6758 47.6992C46.6758 50.3226 44.5491 52.4492 41.9258 52.4492H2.92578C1.95928 52.4492 1.17578 51.6657 1.17578 50.6992V44.6992Z" fill="#33344A" stroke="black" stroke-width="0.5"/>
<circle cx="52.9258" cy="47.6992" r="1.75" fill="#CE1930" stroke="black" stroke-width="0.5"/>
<circle cx="58.9258" cy="47.6992" r="1.75" fill="#78CFA5" stroke="black" stroke-width="0.5"/>
<circle cx="16.9258" cy="15.6992" r="11.75" fill="#3F3F53" stroke="black" stroke-width="0.5"/>
<path d="M62.6758 15.6992C62.6758 22.1987 57.6291 27.4492 51.4258 27.4492C45.2225 27.4492 40.1758 22.1987 40.1758 15.6992C40.1758 9.19974 45.2225 3.94922 51.4258 3.94922C57.6291 3.94922 62.6758 9.19974 62.6758 15.6992Z" fill="#3F3F53" stroke="black" stroke-width="0.5"/>
<mask id="path-13-inside-1_1655_57202" fill="white">
<path fill-rule="evenodd" clip-rule="evenodd" d="M16.9258 30.6992C25.2101 30.6992 31.9258 23.9835 31.9258 15.6992C31.9258 7.41495 25.2101 0.699219 16.9258 0.699219C8.64151 0.699219 1.92578 7.41495 1.92578 15.6992C1.92578 23.9835 8.64151 30.6992 16.9258 30.6992ZM16.9258 10.1278C19.056 10.1278 20.7829 8.40089 20.7829 6.27065C20.7829 4.14041 19.056 2.4135 16.9258 2.4135C14.7955 2.4135 13.0686 4.14041 13.0686 6.27065C13.0686 8.40089 14.7955 10.1278 16.9258 10.1278ZM15.6401 24.2706C15.6401 26.4009 13.9132 28.1278 11.7829 28.1278C9.65268 28.1278 7.92578 26.4009 7.92578 24.2706C7.92578 22.1404 9.65268 20.4135 11.7829 20.4135C13.9132 20.4135 15.6401 22.1404 15.6401 24.2706ZM22.0686 28.1278C24.1989 28.1278 25.9258 26.4009 25.9258 24.2706C25.9258 22.1404 24.1989 20.4135 22.0686 20.4135C19.9384 20.4135 18.2115 22.1404 18.2115 24.2706C18.2115 26.4009 19.9384 28.1278 22.0686 28.1278ZM11.3544 13.9849C11.3544 16.1152 9.62745 17.8421 7.49721 17.8421C5.36697 17.8421 3.64007 16.1152 3.64007 13.9849C3.64007 11.8547 5.36697 10.1278 7.49721 10.1278C9.62745 10.1278 11.3544 11.8547 11.3544 13.9849ZM26.3544 17.8421C28.4846 17.8421 30.2115 16.1152 30.2115 13.9849C30.2115 11.8547 28.4846 10.1278 26.3544 10.1278C24.2241 10.1278 22.4972 11.8547 22.4972 13.9849C22.4972 16.1152 24.2241 17.8421 26.3544 17.8421Z"/>
</mask>
<path fill-rule="evenodd" clip-rule="evenodd" d="M16.9258 30.6992C25.2101 30.6992 31.9258 23.9835 31.9258 15.6992C31.9258 7.41495 25.2101 0.699219 16.9258 0.699219C8.64151 0.699219 1.92578 7.41495 1.92578 15.6992C1.92578 23.9835 8.64151 30.6992 16.9258 30.6992ZM16.9258 10.1278C19.056 10.1278 20.7829 8.40089 20.7829 6.27065C20.7829 4.14041 19.056 2.4135 16.9258 2.4135C14.7955 2.4135 13.0686 4.14041 13.0686 6.27065C13.0686 8.40089 14.7955 10.1278 16.9258 10.1278ZM15.6401 24.2706C15.6401 26.4009 13.9132 28.1278 11.7829 28.1278C9.65268 28.1278 7.92578 26.4009 7.92578 24.2706C7.92578 22.1404 9.65268 20.4135 11.7829 20.4135C13.9132 20.4135 15.6401 22.1404 15.6401 24.2706ZM22.0686 28.1278C24.1989 28.1278 25.9258 26.4009 25.9258 24.2706C25.9258 22.1404 24.1989 20.4135 22.0686 20.4135C19.9384 20.4135 18.2115 22.1404 18.2115 24.2706C18.2115 26.4009 19.9384 28.1278 22.0686 28.1278ZM11.3544 13.9849C11.3544 16.1152 9.62745 17.8421 7.49721 17.8421C5.36697 17.8421 3.64007 16.1152 3.64007 13.9849C3.64007 11.8547 5.36697 10.1278 7.49721 10.1278C9.62745 10.1278 11.3544 11.8547 11.3544 13.9849ZM26.3544 17.8421C28.4846 17.8421 30.2115 16.1152 30.2115 13.9849C30.2115 11.8547 28.4846 10.1278 26.3544 10.1278C24.2241 10.1278 22.4972 11.8547 22.4972 13.9849C22.4972 16.1152 24.2241 17.8421 26.3544 17.8421Z" fill="#E4E5F2"/>
<path d="M31.4258 15.6992C31.4258 23.7073 24.9339 30.1992 16.9258 30.1992V31.1992C25.4862 31.1992 32.4258 24.2596 32.4258 15.6992H31.4258ZM16.9258 1.19922C24.9339 1.19922 31.4258 7.69109 31.4258 15.6992H32.4258C32.4258 7.1388 25.4862 0.199219 16.9258 0.199219V1.19922ZM2.42578 15.6992C2.42578 7.69109 8.91765 1.19922 16.9258 1.19922V0.199219C8.36537 0.199219 1.42578 7.1388 1.42578 15.6992H2.42578ZM16.9258 30.1992C8.91765 30.1992 2.42578 23.7073 2.42578 15.6992H1.42578C1.42578 24.2596 8.36537 31.1992 16.9258 31.1992V30.1992ZM20.2829 6.27065C20.2829 8.12475 18.7799 9.62779 16.9258 9.62779V10.6278C19.3322 10.6278 21.2829 8.67703 21.2829 6.27065H20.2829ZM16.9258 2.9135C18.7799 2.9135 20.2829 4.41655 20.2829 6.27065H21.2829C21.2829 3.86426 19.3322 1.9135 16.9258 1.9135V2.9135ZM13.5686 6.27065C13.5686 4.41655 15.0717 2.9135 16.9258 2.9135V1.9135C14.5194 1.9135 12.5686 3.86426 12.5686 6.27065H13.5686ZM16.9258 9.62779C15.0717 9.62779 13.5686 8.12475 13.5686 6.27065H12.5686C12.5686 8.67703 14.5194 10.6278 16.9258 10.6278V9.62779ZM11.7829 28.6278C14.1893 28.6278 16.1401 26.677 16.1401 24.2706H15.1401C15.1401 26.1247 13.637 27.6278 11.7829 27.6278V28.6278ZM7.42578 24.2706C7.42578 26.677 9.37654 28.6278 11.7829 28.6278V27.6278C9.92882 27.6278 8.42578 26.1247 8.42578 24.2706H7.42578ZM11.7829 19.9135C9.37654 19.9135 7.42578 21.8643 7.42578 24.2706H8.42578C8.42578 22.4165 9.92883 20.9135 11.7829 20.9135V19.9135ZM16.1401 24.2706C16.1401 21.8643 14.1893 19.9135 11.7829 19.9135V20.9135C13.637 20.9135 15.1401 22.4165 15.1401 24.2706H16.1401ZM25.4258 24.2706C25.4258 26.1247 23.9227 27.6278 22.0686 27.6278V28.6278C24.475 28.6278 26.4258 26.677 26.4258 24.2706H25.4258ZM22.0686 20.9135C23.9227 20.9135 25.4258 22.4165 25.4258 24.2706H26.4258C26.4258 21.8643 24.475 19.9135 22.0686 19.9135V20.9135ZM18.7115 24.2706C18.7115 22.4165 20.2145 20.9135 22.0686 20.9135V19.9135C19.6623 19.9135 17.7115 21.8643 17.7115 24.2706H18.7115ZM22.0686 27.6278C20.2145 27.6278 18.7115 26.1247 18.7115 24.2706H17.7115C17.7115 26.677 19.6623 28.6278 22.0686 28.6278V27.6278ZM7.49721 18.3421C9.90359 18.3421 11.8544 16.3913 11.8544 13.9849H10.8544C10.8544 15.839 9.35131 17.3421 7.49721 17.3421V18.3421ZM3.14007 13.9849C3.14007 16.3913 5.09083 18.3421 7.49721 18.3421V17.3421C5.64311 17.3421 4.14007 15.839 4.14007 13.9849H3.14007ZM7.49721 9.62779C5.09083 9.62779 3.14007 11.5786 3.14007 13.9849H4.14007C4.14007 12.1308 5.64311 10.6278 7.49721 10.6278V9.62779ZM11.8544 13.9849C11.8544 11.5786 9.90359 9.62779 7.49721 9.62779V10.6278C9.35131 10.6278 10.8544 12.1308 10.8544 13.9849H11.8544ZM29.7115 13.9849C29.7115 15.839 28.2085 17.3421 26.3544 17.3421V18.3421C28.7607 18.3421 30.7115 16.3913 30.7115 13.9849H29.7115ZM26.3544 10.6278C28.2085 10.6278 29.7115 12.1308 29.7115 13.9849H30.7115C30.7115 11.5786 28.7607 9.62779 26.3544 9.62779V10.6278ZM22.9972 13.9849C22.9972 12.1308 24.5003 10.6278 26.3544 10.6278V9.62779C23.948 9.62779 21.9972 11.5786 21.9972 13.9849H22.9972ZM26.3544 17.3421C24.5003 17.3421 22.9972 15.839 22.9972 13.9849H21.9972C21.9972 16.3913 23.948 18.3421 26.3544 18.3421V17.3421Z" fill="black" mask="url(#path-13-inside-1_1655_57202)"/>
<mask id="path-15-inside-2_1655_57202" fill="white">
<path fill-rule="evenodd" clip-rule="evenodd" d="M51.7812 30.6992C60.0655 30.6992 66.7812 23.9835 66.7812 15.6992C66.7812 7.41495 60.0655 0.699219 51.7812 0.699219C43.497 0.699219 36.7812 7.41495 36.7812 15.6992C36.7812 23.9835 43.497 30.6992 51.7812 30.6992ZM51.7812 10.1278C53.9115 10.1278 55.6384 8.40089 55.6384 6.27065C55.6384 4.14041 53.9115 2.4135 51.7812 2.4135C49.651 2.4135 47.9241 4.14041 47.9241 6.27065C47.9241 8.40089 49.651 10.1278 51.7812 10.1278ZM50.4955 24.2706C50.4955 26.4009 48.7686 28.1278 46.6384 28.1278C44.5082 28.1278 42.7812 26.4009 42.7812 24.2706C42.7812 22.1404 44.5082 20.4135 46.6384 20.4135C48.7686 20.4135 50.4955 22.1404 50.4955 24.2706ZM56.9241 28.1278C59.0543 28.1278 60.7812 26.4009 60.7812 24.2706C60.7812 22.1404 59.0543 20.4135 56.9241 20.4135C54.7939 20.4135 53.067 22.1404 53.067 24.2706C53.067 26.4009 54.7939 28.1278 56.9241 28.1278ZM46.2098 13.9849C46.2098 16.1152 44.4829 17.8421 42.3527 17.8421C40.2224 17.8421 38.4955 16.1152 38.4955 13.9849C38.4955 11.8547 40.2224 10.1278 42.3527 10.1278C44.4829 10.1278 46.2098 11.8547 46.2098 13.9849ZM61.2098 17.8421C63.3401 17.8421 65.067 16.1152 65.067 13.9849C65.067 11.8547 63.3401 10.1278 61.2098 10.1278C59.0796 10.1278 57.3527 11.8547 57.3527 13.9849C57.3527 16.1152 59.0796 17.8421 61.2098 17.8421Z"/>
</mask>
<path fill-rule="evenodd" clip-rule="evenodd" d="M51.7812 30.6992C60.0655 30.6992 66.7812 23.9835 66.7812 15.6992C66.7812 7.41495 60.0655 0.699219 51.7812 0.699219C43.497 0.699219 36.7812 7.41495 36.7812 15.6992C36.7812 23.9835 43.497 30.6992 51.7812 30.6992ZM51.7812 10.1278C53.9115 10.1278 55.6384 8.40089 55.6384 6.27065C55.6384 4.14041 53.9115 2.4135 51.7812 2.4135C49.651 2.4135 47.9241 4.14041 47.9241 6.27065C47.9241 8.40089 49.651 10.1278 51.7812 10.1278ZM50.4955 24.2706C50.4955 26.4009 48.7686 28.1278 46.6384 28.1278C44.5082 28.1278 42.7812 26.4009 42.7812 24.2706C42.7812 22.1404 44.5082 20.4135 46.6384 20.4135C48.7686 20.4135 50.4955 22.1404 50.4955 24.2706ZM56.9241 28.1278C59.0543 28.1278 60.7812 26.4009 60.7812 24.2706C60.7812 22.1404 59.0543 20.4135 56.9241 20.4135C54.7939 20.4135 53.067 22.1404 53.067 24.2706C53.067 26.4009 54.7939 28.1278 56.9241 28.1278ZM46.2098 13.9849C46.2098 16.1152 44.4829 17.8421 42.3527 17.8421C40.2224 17.8421 38.4955 16.1152 38.4955 13.9849C38.4955 11.8547 40.2224 10.1278 42.3527 10.1278C44.4829 10.1278 46.2098 11.8547 46.2098 13.9849ZM61.2098 17.8421C63.3401 17.8421 65.067 16.1152 65.067 13.9849C65.067 11.8547 63.3401 10.1278 61.2098 10.1278C59.0796 10.1278 57.3527 11.8547 57.3527 13.9849C57.3527 16.1152 59.0796 17.8421 61.2098 17.8421Z" fill="#E4E5F2"/>
<path d="M66.2812 15.6992C66.2812 23.7073 59.7894 30.1992 51.7812 30.1992V31.1992C60.3417 31.1992 67.2812 24.2596 67.2812 15.6992H66.2812ZM51.7812 1.19922C59.7894 1.19922 66.2812 7.69109 66.2812 15.6992H67.2812C67.2812 7.1388 60.3417 0.199219 51.7812 0.199219V1.19922ZM37.2812 15.6992C37.2812 7.69109 43.7731 1.19922 51.7812 1.19922V0.199219C43.2208 0.199219 36.2812 7.1388 36.2812 15.6992H37.2812ZM51.7812 30.1992C43.7731 30.1992 37.2812 23.7073 37.2812 15.6992H36.2812C36.2812 24.2596 43.2208 31.1992 51.7812 31.1992V30.1992ZM55.1384 6.27065C55.1384 8.12475 53.6353 9.62779 51.7812 9.62779V10.6278C54.1876 10.6278 56.1384 8.67703 56.1384 6.27065H55.1384ZM51.7812 2.9135C53.6353 2.9135 55.1384 4.41655 55.1384 6.27065H56.1384C56.1384 3.86426 54.1876 1.9135 51.7812 1.9135V2.9135ZM48.4241 6.27065C48.4241 4.41655 49.9272 2.9135 51.7812 2.9135V1.9135C49.3749 1.9135 47.4241 3.86426 47.4241 6.27065H48.4241ZM51.7812 9.62779C49.9272 9.62779 48.4241 8.12475 48.4241 6.27065H47.4241C47.4241 8.67703 49.3749 10.6278 51.7812 10.6278V9.62779ZM46.6384 28.6278C49.0448 28.6278 50.9955 26.677 50.9955 24.2706H49.9955C49.9955 26.1247 48.4925 27.6278 46.6384 27.6278V28.6278ZM42.2812 24.2706C42.2812 26.677 44.232 28.6278 46.6384 28.6278V27.6278C44.7843 27.6278 43.2812 26.1247 43.2812 24.2706H42.2812ZM46.6384 19.9135C44.232 19.9135 42.2812 21.8643 42.2812 24.2706H43.2812C43.2812 22.4165 44.7843 20.9135 46.6384 20.9135V19.9135ZM50.9955 24.2706C50.9955 21.8643 49.0448 19.9135 46.6384 19.9135V20.9135C48.4925 20.9135 49.9955 22.4165 49.9955 24.2706H50.9955ZM60.2812 24.2706C60.2812 26.1247 58.7782 27.6278 56.9241 27.6278V28.6278C59.3305 28.6278 61.2812 26.677 61.2812 24.2706H60.2812ZM56.9241 20.9135C58.7782 20.9135 60.2812 22.4165 60.2812 24.2706H61.2812C61.2812 21.8643 59.3305 19.9135 56.9241 19.9135V20.9135ZM53.567 24.2706C53.567 22.4165 55.07 20.9135 56.9241 20.9135V19.9135C54.5177 19.9135 52.567 21.8643 52.567 24.2706H53.567ZM56.9241 27.6278C55.07 27.6278 53.567 26.1247 53.567 24.2706H52.567C52.567 26.677 54.5177 28.6278 56.9241 28.6278V27.6278ZM42.3527 18.3421C44.7591 18.3421 46.7098 16.3913 46.7098 13.9849H45.7098C45.7098 15.839 44.2068 17.3421 42.3527 17.3421V18.3421ZM37.9955 13.9849C37.9955 16.3913 39.9463 18.3421 42.3527 18.3421V17.3421C40.4986 17.3421 38.9955 15.839 38.9955 13.9849H37.9955ZM42.3527 9.62779C39.9463 9.62779 37.9955 11.5786 37.9955 13.9849H38.9955C38.9955 12.1308 40.4986 10.6278 42.3527 10.6278V9.62779ZM46.7098 13.9849C46.7098 11.5786 44.7591 9.62779 42.3527 9.62779V10.6278C44.2068 10.6278 45.7098 12.1308 45.7098 13.9849H46.7098ZM64.567 13.9849C64.567 15.839 63.0639 17.3421 61.2098 17.3421V18.3421C63.6162 18.3421 65.567 16.3913 65.567 13.9849H64.567ZM61.2098 10.6278C63.0639 10.6278 64.567 12.1308 64.567 13.9849H65.567C65.567 11.5786 63.6162 9.62779 61.2098 9.62779V10.6278ZM57.8527 13.9849C57.8527 12.1308 59.3557 10.6278 61.2098 10.6278V9.62779C58.8034 9.62779 56.8527 11.5786 56.8527 13.9849H57.8527ZM61.2098 17.3421C59.3557 17.3421 57.8527 15.839 57.8527 13.9849H56.8527C56.8527 16.3913 58.8034 18.3421 61.2098 18.3421V17.3421Z" fill="black" mask="url(#path-15-inside-2_1655_57202)"/>
<circle cx="16.9258" cy="15.6992" r="0.75" fill="#3F3F53" stroke="black" stroke-width="0.5"/>
<circle cx="51.9258" cy="15.6992" r="0.75" fill="#3F3F53" stroke="black" stroke-width="0.5"/>
</svg>
