<svg width="91" height="78" viewBox="0 0 91 78" fill="none" xmlns="http://www.w3.org/2000/svg">
<mask id="path-1-inside-1_1655_57310" fill="white">
<path fill-rule="evenodd" clip-rule="evenodd" d="M0.925781 44.8402V20.2309C0.925781 6.16823 24.4102 -12.9566 39.5977 14.6059C46.4868 20.0197 48.456 19.4234 54.8728 17.4803C57.6238 16.6472 61.1923 15.5666 66.3164 14.6059C86.7777 10.7696 88.8255 27.6739 90.4389 40.992C90.5996 42.3183 90.756 43.6091 90.9258 44.8402H0.925781ZM90.9258 44.8409H0.925781V72.1847C0.925781 74.9461 3.16436 77.1847 5.92578 77.1847H85.9258C88.6872 77.1847 90.9258 74.9461 90.9258 72.1847V44.8409Z"/>
</mask>
<path fill-rule="evenodd" clip-rule="evenodd" d="M0.925781 44.8402V20.2309C0.925781 6.16823 24.4102 -12.9566 39.5977 14.6059C46.4868 20.0197 48.456 19.4234 54.8728 17.4803C57.6238 16.6472 61.1923 15.5666 66.3164 14.6059C86.7777 10.7696 88.8255 27.6739 90.4389 40.992C90.5996 42.3183 90.756 43.6091 90.9258 44.8402H0.925781ZM90.9258 44.8409H0.925781V72.1847C0.925781 74.9461 3.16436 77.1847 5.92578 77.1847H85.9258C88.6872 77.1847 90.9258 74.9461 90.9258 72.1847V44.8409Z" fill="#231816"/>
<path d="M0.925781 44.8402H0.425781V45.3402H0.925781V44.8402ZM39.5977 14.6059L39.1597 14.8472L39.2088 14.9362L39.2887 14.999L39.5977 14.6059ZM54.8728 17.4803L54.7279 17.0017L54.8728 17.4803ZM66.3164 14.6059L66.2243 14.1144L66.3164 14.6059ZM90.4389 40.992L90.9353 40.9319L90.4389 40.992ZM90.9258 44.8402V45.3402H91.4995L91.4211 44.7719L90.9258 44.8402ZM0.925781 44.8409V44.3409H0.425781V44.8409H0.925781ZM90.9258 44.8409H91.4258V44.3409H90.9258V44.8409ZM0.425781 20.2309V44.8402H1.42578V20.2309H0.425781ZM40.0356 14.3646C36.2021 7.40746 31.8132 3.33925 27.3453 1.41988C22.8709 -0.502283 18.3729 -0.24494 14.3814 1.34441C10.3978 2.93066 6.91547 5.84316 4.42873 9.24843C1.9444 12.6504 0.425781 16.5834 0.425781 20.2309H1.42578C1.42578 16.847 2.84271 13.1159 5.23631 9.83818C7.6275 6.56376 10.9655 3.78095 14.7514 2.27347C18.5294 0.769084 22.7502 0.534262 26.9506 2.33868C31.1574 4.14589 35.3995 8.02301 39.1597 14.8472L40.0356 14.3646ZM54.7279 17.0017C51.4871 17.9831 49.5042 18.5739 47.4778 18.3062C45.465 18.0403 43.3414 16.9119 39.9066 14.2127L39.2887 14.999C42.7431 17.7136 45.0486 18.994 47.3469 19.2976C49.6316 19.5994 51.8416 18.9206 55.0177 17.9588L54.7279 17.0017ZM66.2243 14.1144C61.0725 15.0803 57.4829 16.1674 54.7279 17.0017L55.0177 17.9588C57.7647 17.1269 61.312 16.0528 66.4085 15.0973L66.2243 14.1144ZM90.9353 40.9319C90.1324 34.3042 89.2115 26.6291 85.8735 21.1074C84.193 18.3276 81.8912 16.0753 78.6785 14.774C75.4713 13.475 71.4046 13.1432 66.2243 14.1144L66.4085 15.0973C71.4588 14.1504 75.321 14.4931 78.303 15.7009C81.2794 16.9064 83.4269 18.9932 85.0177 21.6247C88.2223 26.9256 89.132 34.3616 89.9426 41.0521L90.9353 40.9319ZM91.4211 44.7719C91.2519 43.5456 91.0961 42.259 90.9353 40.9319L89.9426 41.0521C90.1031 42.3776 90.26 43.6726 90.4305 44.9086L91.4211 44.7719ZM0.925781 45.3402H90.9258V44.3402H0.925781V45.3402ZM0.925781 45.3409H90.9258V44.3409H0.925781V45.3409ZM1.42578 72.1847V44.8409H0.425781V72.1847H1.42578ZM5.92578 76.6847C3.4405 76.6847 1.42578 74.67 1.42578 72.1847H0.425781C0.425781 75.2222 2.88822 77.6847 5.92578 77.6847V76.6847ZM85.9258 76.6847H5.92578V77.6847H85.9258V76.6847ZM90.4258 72.1847C90.4258 74.67 88.4111 76.6847 85.9258 76.6847V77.6847C88.9633 77.6847 91.4258 75.2222 91.4258 72.1847H90.4258ZM90.4258 44.8409V72.1847H91.4258V44.8409H90.4258Z" fill="black" mask="url(#path-1-inside-1_1655_57310)"/>
<rect x="6.80078" y="49.3096" width="5.125" height="23.4062" fill="white" stroke="black" stroke-width="0.5"/>
<rect x="34.9258" y="49.3096" width="5.125" height="23.4062" fill="white" stroke="black" stroke-width="0.5"/>
<rect x="63.0508" y="49.3096" width="5.125" height="23.4062" fill="white" stroke="black" stroke-width="0.5"/>
<rect x="12.4258" y="49.3096" width="5.125" height="23.4062" fill="white" stroke="black" stroke-width="0.5"/>
<rect x="40.5508" y="49.3096" width="5.125" height="23.4062" fill="white" stroke="black" stroke-width="0.5"/>
<rect x="68.6758" y="49.3096" width="5.125" height="23.4062" fill="white" stroke="black" stroke-width="0.5"/>
<rect x="18.0508" y="49.3096" width="5.125" height="23.4062" fill="white" stroke="black" stroke-width="0.5"/>
<rect x="46.1758" y="49.3096" width="5.125" height="23.4062" fill="white" stroke="black" stroke-width="0.5"/>
<rect x="74.3008" y="49.3096" width="5.125" height="23.4062" fill="white" stroke="black" stroke-width="0.5"/>
<rect x="23.6758" y="49.3096" width="5.125" height="23.4062" fill="white" stroke="black" stroke-width="0.5"/>
<rect x="51.8008" y="49.3096" width="5.125" height="23.4062" fill="white" stroke="black" stroke-width="0.5"/>
<rect x="79.9258" y="49.3096" width="5.125" height="23.4062" fill="white" stroke="black" stroke-width="0.5"/>
<rect x="29.3008" y="49.3096" width="5.125" height="23.4062" fill="white" stroke="black" stroke-width="0.5"/>
<rect x="57.4258" y="49.3096" width="5.125" height="23.4062" fill="white" stroke="black" stroke-width="0.5"/>
<rect x="9.61328" y="49.3096" width="3.71875" height="12.1562" fill="black" stroke="black" stroke-width="0.5"/>
<rect x="48.9883" y="49.3096" width="3.71875" height="12.1562" fill="black" stroke="black" stroke-width="0.5"/>
<rect x="26.4883" y="49.3096" width="3.71875" height="12.1562" fill="black" stroke="black" stroke-width="0.5"/>
<rect x="65.8633" y="49.3096" width="3.71875" height="12.1562" fill="black" stroke="black" stroke-width="0.5"/>
<rect x="16.6445" y="49.3096" width="3.71875" height="12.1562" fill="black" stroke="black" stroke-width="0.5"/>
<rect x="56.0195" y="49.3096" width="3.71875" height="12.1562" fill="black" stroke="black" stroke-width="0.5"/>
<rect x="33.5195" y="49.3096" width="3.71875" height="12.1562" fill="black" stroke="black" stroke-width="0.5"/>
<rect x="72.8945" y="49.3096" width="3.71875" height="12.1562" fill="black" stroke="black" stroke-width="0.5"/>
<rect x="39.1445" y="49.3096" width="3.71875" height="12.1562" fill="black" stroke="black" stroke-width="0.5"/>
<rect x="78.5195" y="49.3096" width="3.71875" height="12.1562" fill="black" stroke="black" stroke-width="0.5"/>
</svg>
