<svg width="154" height="123" viewBox="0 0 154 123" fill="none" xmlns="http://www.w3.org/2000/svg">
<path d="M51.9088 106.948L8.89427 87.5693C7.25614 86.8313 6.27091 85.131 6.44525 83.3428L128.803 72.6199C128.464 74.48 127.24 76.058 125.522 76.8485L60.1972 106.914C57.5693 108.124 54.5464 108.136 51.9088 106.948Z" fill="#A3A3A3" stroke="black" stroke-width="0.5"/>
<path d="M12.1943 87.1163C9.06106 85.7466 9.24605 81.241 12.4811 80.1327L74.6512 58.8337C75.6795 58.4814 76.7866 58.4278 77.8442 58.6792L121.528 69.06C125.002 69.8856 125.465 74.6404 122.215 76.1209L59.17 104.842C57.1667 105.755 54.8698 105.773 52.8527 104.891L12.1943 87.1163Z" fill="#DADADA" stroke="black" stroke-width="0.5"/>
<path d="M33.7497 89.5692C32.2511 88.9819 32.2733 86.8534 33.7839 86.2976L89.0081 65.9754C90.0838 65.5795 91.2533 65.5142 92.3665 65.7878L114.518 71.2331C116.148 71.6338 116.334 73.877 114.792 74.5401L60.7932 97.7635C58.9191 98.5695 56.8027 98.6041 54.9033 97.8597L33.7497 89.5692Z" fill="#DADADA" stroke="black" stroke-width="0.5"/>
<path d="M42.0216 73.0108C41.3035 72.7678 41.2948 71.7553 42.0085 71.4998L56.9661 66.1467C59.4988 65.2402 62.2527 65.1548 64.8367 65.9024L73.3116 68.3544C74.0543 68.5693 74.0904 69.6082 73.3644 69.8741L57.1029 75.8304C55.0048 76.599 52.707 76.6274 50.5905 75.911L42.0216 73.0108Z" fill="#DADADA" stroke="black" stroke-width="0.4"/>
<path d="M38.7695 84.5732L66.832 95.124" stroke="black" stroke-width="0.5"/>
<path d="M36.6055 90.8848L89.9616 70.2341" stroke="black" stroke-width="0.5"/>
<path d="M46.125 94.4609L99.2307 72.2369" stroke="black" stroke-width="0.5"/>
<path d="M47.3438 81.1309L75.6522 91.7294" stroke="black" stroke-width="0.5"/>
<path d="M55.582 78.1387L84.3273 87.8013" stroke="black" stroke-width="0.5"/>
<path d="M63.5742 75.0996L93.0022 83.8741" stroke="black" stroke-width="0.5"/>
<path d="M72.0547 72.1475L101.578 80.4301" stroke="black" stroke-width="0.5"/>
<path d="M79.0861 43.4176L148.008 16.6786C149.252 16.1961 150.664 16.5432 151.542 17.547C151.704 17.7318 151.689 18.0117 151.509 18.1783L57.9297 104.578C57.4832 104.99 56.7978 104.999 56.3405 104.599C55.6146 103.964 55.3444 102.953 55.6564 102.041L73.8253 48.8968C74.6845 46.3836 76.6099 44.3783 79.0861 43.4176Z" fill="#CDCDCD" stroke="black" stroke-width="0.5"/>
<path d="M74.7423 50.564C75.6716 47.8587 77.742 45.6979 80.4052 44.654L146.854 18.6076C149.117 17.7205 151.334 19.9904 150.394 22.2318L130.546 69.5386C129.602 71.787 127.851 73.6003 125.636 74.621L63.3151 103.348C60.318 104.729 57.1265 101.845 58.1987 98.7241L74.7423 50.564Z" fill="#CDCDCD" stroke="black" stroke-width="0.5"/>
<path d="M111.664 56.1424C112.47 56.8522 112.716 58.1264 112.369 59.6898C112.024 61.2431 111.103 63.0201 109.676 64.6412C108.249 66.2623 106.603 67.4019 105.106 67.9413C103.6 68.4842 102.305 68.4022 101.498 67.6925C100.692 66.9827 100.446 65.7084 100.793 64.1451C101.138 62.5918 102.06 60.8148 103.487 59.1937C104.913 57.5726 106.559 56.433 108.056 55.8936C109.563 55.3507 110.858 55.4326 111.664 56.1424Z" fill="#7C7C7C" stroke="black" stroke-width="0.5"/>
<path d="M110.546 52.3068C109.084 51.8418 108.52 53.6091 108.401 54.6956C108.393 54.7667 108.462 54.8196 108.528 54.7925C109.6 54.3526 110.331 53.1034 110.605 52.4325C110.626 52.3814 110.598 52.3235 110.546 52.3068Z" fill="#7C7C7C" stroke="black" stroke-width="0.5" stroke-linecap="round"/>
</svg>
