<svg width="24" height="24" viewBox="0 0 24 24" fill="none" xmlns="http://www.w3.org/2000/svg">
<g id="search">
<path id="Vector" d="M16.0185 17.61C14.21 19.0137 11.9346 19.6755 9.65542 19.4606C7.37621 19.2458 5.26454 18.1705 3.75024 16.4536C2.23593 14.7366 1.43283 12.5072 1.5044 10.219C1.57598 7.93079 2.51684 5.75588 4.13549 4.13695C5.75441 2.51831 7.92933 1.57744 10.2175 1.50587C12.5057 1.4343 14.7352 2.2374 16.4521 3.7517C18.169 5.266 19.2443 7.37768 19.4592 9.65688C19.674 11.9361 19.0122 14.2115 17.6085 16.02L22.1685 20.58C22.3166 20.7175 22.4248 20.8924 22.4819 21.0862C22.5389 21.2801 22.5425 21.4858 22.4925 21.6816C22.4424 21.8773 22.3405 22.056 22.1974 22.1987C22.0543 22.3414 21.8754 22.4429 21.6795 22.4925C21.4839 22.5424 21.2785 22.5388 21.0848 22.4821C20.8911 22.4254 20.7162 22.3175 20.5785 22.17L16.0185 17.61ZM17.2485 10.5C17.2618 9.60536 17.0971 8.71704 16.764 7.88668C16.4309 7.05631 15.936 6.30048 15.3081 5.66314C14.6802 5.02579 13.9318 4.51967 13.1065 4.17421C12.2812 3.82875 11.3954 3.65084 10.5007 3.65084C9.60604 3.65084 8.72028 3.82875 7.89498 4.17421C7.06967 4.51967 6.3213 5.02579 5.69339 5.66314C5.06548 6.30048 4.57057 7.05631 4.23745 7.88668C3.90433 8.71704 3.73965 9.60536 3.75299 10.5C3.77941 12.2721 4.50196 13.9628 5.76453 15.2067C7.02711 16.4506 8.72835 17.1478 10.5007 17.1478C12.2731 17.1478 13.9744 16.4506 15.2369 15.2067C16.4995 13.9628 17.2221 12.2721 17.2485 10.5Z" fill="#111111"/>
</g>
</svg>
