<svg width="110" height="98" viewBox="0 0 110 98" fill="none" xmlns="http://www.w3.org/2000/svg">
<path d="M20.02 55.7607C26.5706 54.7637 41.5661 53.5905 49.9258 56.7751C60.4258 60.7751 78.4258 68.2754 73.4258 75.2754C70.7588 79.0092 67.9435 79.5422 65.8694 79.0381L67.3863 79.7567C67.4115 79.7686 67.4393 79.77 67.4652 79.7596C79.9797 74.7584 105.629 66.6834 108.426 74.2754C111.226 81.8754 101.592 87.4421 96.4258 89.2754C85.4258 93.6087 61.3258 100.675 52.9258 94.2754C44.5607 87.902 30.2122 85.297 24.003 84.7817C23.9563 84.7778 23.9212 84.7423 23.9148 84.6959L19.9392 55.8726C19.9318 55.8185 19.966 55.7689 20.02 55.7607Z" fill="#FAF3D6" stroke="#292929" stroke-width="0.5"/>
<path d="M10.9045 93.1121L0.952983 52.3107C0.938604 52.2518 0.979617 52.1937 1.03998 52.1876L25.3271 49.7093C25.3817 49.7037 25.4306 49.7433 25.4366 49.7979L29.9151 90.6019C29.921 90.656 29.8827 90.7049 29.8287 90.712L11.0147 93.1875C10.9641 93.1942 10.9166 93.1617 10.9045 93.1121Z" fill="#060345" stroke="black" stroke-width="0.5"/>
<circle cx="19.4258" cy="78.1992" r="2.25" fill="white" stroke="black" stroke-width="0.5"/>
<circle cx="20.4258" cy="85.1992" r="2.25" fill="white" stroke="black" stroke-width="0.5"/>
<path d="M48.3371 24.1814C52.6867 15.7665 61.1104 19.0488 63.2868 23.9295C63.3253 24.0159 63.4559 24.0129 63.49 23.9246C65.0962 19.7532 74.6979 14.4065 78.4633 25.1621C81.4717 33.7554 69.0295 42.6666 63.4481 45.8161C63.4157 45.8344 63.3766 45.8313 63.3455 45.811C48.2749 36.0132 46.9903 29.8346 48.3286 24.2044C48.3304 24.1965 48.3334 24.1886 48.3371 24.1814Z" fill="#E4331D" stroke="#292929" stroke-width="0.5"/>
<path d="M77.8148 3.80387C81.5509 -0.249346 85.6673 2.81593 86.1868 5.90192C86.2026 5.99587 86.3354 6.02952 86.3955 5.95558C88.0795 3.88275 94.1217 2.49807 94.4871 9.12269C94.783 14.4858 86.4337 17.6014 82.7942 18.5244C82.7576 18.5337 82.7199 18.5198 82.6953 18.4911C75.8741 10.5423 76.1492 6.81961 77.8007 3.82343C77.8045 3.81646 77.8094 3.80972 77.8148 3.80387Z" fill="#FE442D" stroke="#292929" stroke-width="0.5"/>
</svg>
