<svg width="49" height="78" viewBox="0 0 49 78" fill="none" xmlns="http://www.w3.org/2000/svg">
<mask id="path-1-inside-1_1655_57231" fill="white">
<path d="M0.925781 24.709C0.925781 11.4488 11.6753 0.699219 24.9356 0.699219C38.1958 0.699219 48.9454 11.4488 48.9454 24.709C48.9454 29.2431 47.6886 33.4836 45.5044 37.1012C45.4371 37.2127 45.3688 37.3237 45.2997 37.4341L39.4935 46.8762C38.7526 48.081 38.3604 49.4676 38.3604 50.882C38.3604 55.1055 34.9366 58.5293 30.7131 58.5293H19.1581C14.9346 58.5293 11.5107 55.1055 11.5107 50.882C11.5107 49.4676 11.1185 48.081 10.3777 46.8762L4.57145 37.4341C4.50234 37.3237 4.43411 37.2127 4.36675 37.1012C2.18256 33.4836 0.925781 29.2431 0.925781 24.709Z"/>
</mask>
<path d="M0.925781 24.709C0.925781 11.4488 11.6753 0.699219 24.9356 0.699219C38.1958 0.699219 48.9454 11.4488 48.9454 24.709C48.9454 29.2431 47.6886 33.4836 45.5044 37.1012C45.4371 37.2127 45.3688 37.3237 45.2997 37.4341L39.4935 46.8762C38.7526 48.081 38.3604 49.4676 38.3604 50.882C38.3604 55.1055 34.9366 58.5293 30.7131 58.5293H19.1581C14.9346 58.5293 11.5107 55.1055 11.5107 50.882C11.5107 49.4676 11.1185 48.081 10.3777 46.8762L4.57145 37.4341C4.50234 37.3237 4.43411 37.2127 4.36675 37.1012C2.18256 33.4836 0.925781 29.2431 0.925781 24.709Z" fill="#FFD527"/>
<path d="M45.5127 37.565L45.7174 37.2321L45.2915 36.9702L45.0868 37.3031L45.5127 37.565ZM4.15379 37.2321L4.35849 37.565L4.78441 37.3031L4.57971 36.9702L4.15379 37.2321ZM4.36675 37.1012L3.93872 37.3596H3.93872L4.36675 37.1012ZM45.5044 37.1012L45.0764 36.8427L45.0764 36.8428L45.5044 37.1012ZM4.57145 37.4341L4.99738 37.1721L4.99522 37.1687L4.57145 37.4341ZM10.3777 46.8762L10.8036 46.6143L10.3777 46.8762ZM39.4935 46.8762L39.9194 47.1381V47.1381L39.4935 46.8762ZM45.2997 37.4341L44.8759 37.1687L44.8738 37.1722L45.2997 37.4341ZM1.42578 24.709C1.42578 11.7249 11.9515 1.19922 24.9356 1.19922V0.199219C11.3992 0.199219 0.425781 11.1726 0.425781 24.709H1.42578ZM24.9356 1.19922C37.9197 1.19922 48.4454 11.7249 48.4454 24.709H49.4454C49.4454 11.1726 38.472 0.199219 24.9356 0.199219V1.19922ZM4.79479 36.8427C2.65635 33.3009 1.42578 29.1494 1.42578 24.709H0.425781C0.425781 29.3367 1.70877 33.6662 3.93872 37.3596L4.79479 36.8427ZM19.1581 59.0293H30.7131V58.0293H19.1581V59.0293ZM48.4454 24.709C48.4454 29.1494 47.2148 33.3009 45.0764 36.8427L45.9324 37.3596C48.1624 33.6662 49.4454 29.3367 49.4454 24.709H48.4454ZM4.14553 37.696L9.95175 47.1381L10.8036 46.6143L4.99736 37.1722L4.14553 37.696ZM39.9194 47.1381L45.7256 37.696L44.8738 37.1722L39.0676 46.6143L39.9194 47.1381ZM45.0764 36.8428C45.0104 36.952 44.9436 37.0606 44.8759 37.1687L45.7235 37.6994C45.794 37.5868 45.8637 37.4735 45.9324 37.3596L45.0764 36.8428ZM4.99522 37.1687C4.92755 37.0606 4.86073 36.952 4.79478 36.8427L3.93872 37.3596C4.00748 37.4735 4.07713 37.5868 4.14767 37.6994L4.99522 37.1687ZM38.8604 50.882C38.8604 49.5601 39.227 48.2641 39.9194 47.1381L39.0676 46.6143C38.2783 47.8978 37.8604 49.3751 37.8604 50.882H38.8604ZM30.7131 59.0293C35.2127 59.0293 38.8604 55.3816 38.8604 50.882H37.8604C37.8604 54.8293 34.6605 58.0293 30.7131 58.0293V59.0293ZM11.0107 50.882C11.0107 55.3816 14.6584 59.0293 19.1581 59.0293V58.0293C15.2107 58.0293 12.0107 54.8293 12.0107 50.882H11.0107ZM12.0107 50.882C12.0107 49.3752 11.5929 47.8979 10.8036 46.6143L9.95175 47.1381C10.6442 48.2641 11.0107 49.5601 11.0107 50.882H12.0107Z" fill="black" mask="url(#path-1-inside-1_1655_57231)"/>
<path d="M29.6758 74.1992C29.6758 75.0617 29.1767 75.8682 28.3179 76.4693C27.46 77.0698 26.2615 77.4492 24.9258 77.4492C23.5901 77.4492 22.3915 77.0698 21.5336 76.4693C20.6749 75.8682 20.1758 75.0617 20.1758 74.1992C20.1758 73.3367 20.6749 72.5303 21.5336 71.9292C22.3915 71.3286 23.5901 70.9492 24.9258 70.9492C26.2615 70.9492 27.46 71.3286 28.3179 71.9292C29.1767 72.5303 29.6758 73.3367 29.6758 74.1992Z" fill="#D9D9D9" stroke="black" stroke-width="0.5"/>
<path d="M19.4034 74.4492L14.4847 68.9492H35.3292L29.9186 74.4492H19.4034Z" fill="#D9D9D9" stroke="black" stroke-width="0.5"/>
<rect x="13.1758" y="64.9492" width="23.5" height="4.5" rx="2.25" fill="#D9D9D9" stroke="black" stroke-width="0.5"/>
<rect x="13.1758" y="62.9492" width="23.5" height="3.5" rx="1.75" fill="#D9D9D9" stroke="black" stroke-width="0.5"/>
<rect x="13.1758" y="59.9492" width="23.5" height="3.5" rx="1.75" fill="#D9D9D9" stroke="black" stroke-width="0.5"/>
<rect x="13.1758" y="56.9492" width="23.5" height="3.5" rx="1.75" fill="#D9D9D9" stroke="black" stroke-width="0.5"/>
<path d="M20.4097 56.6992L19.2596 47.5966C19.1663 46.8582 19.0045 46.1301 18.7763 45.4217L13.0473 27.6356C13.0334 27.5923 13.094 27.5663 13.1158 27.6062L14.1802 29.5547C14.862 30.8029 16.6564 30.7972 17.3302 29.5447L17.5206 29.1907C18.1601 28.0019 19.8935 28.0897 20.4097 29.337V29.337C20.9258 30.5843 22.6592 30.6721 23.2987 29.4833L23.5281 29.0568C24.1767 27.8511 25.9102 27.8632 26.542 29.0777V29.0777C27.1452 30.2372 28.775 30.3147 29.4855 29.2177L30.1112 28.2517C30.7829 27.2146 32.354 27.4058 32.7575 28.5737V28.5737C33.1742 29.78 34.8189 29.9314 35.4488 28.8214L36.7822 26.4719C36.802 26.437 36.8553 26.4596 36.844 26.4981L30.9903 46.4866L29.4419 56.6992" stroke="#746113"/>
<path d="M15.0442 11.2678C13.9249 12.4383 12.7547 13.3334 11.7745 13.8377C11.2832 14.0904 10.8524 14.2384 10.5075 14.281C10.1601 14.3239 9.93967 14.2566 9.81128 14.1338C9.68289 14.0111 9.6058 13.7939 9.63311 13.4449C9.66024 13.0984 9.78877 12.6614 10.0193 12.1593C10.4792 11.1575 11.321 9.94844 12.4403 8.7779C13.5595 7.60737 14.7297 6.71232 15.71 6.20802C16.2012 5.9553 16.632 5.80734 16.977 5.76474C17.3243 5.72183 17.5448 5.78913 17.6732 5.9119C17.8015 6.03466 17.8786 6.25186 17.8513 6.6008C17.8242 6.94731 17.6957 7.38432 17.4652 7.88639C17.0053 8.88822 16.1635 10.0973 15.0442 11.2678Z" fill="white" stroke="black" stroke-width="0.5"/>
<path d="M8.39665 19.2635C8.05121 19.9117 7.57021 20.3959 7.08362 20.6606C6.59491 20.9265 6.1305 20.9584 5.77665 20.7698C5.42279 20.5812 5.19036 20.1779 5.13858 19.624C5.08701 19.0724 5.22077 18.4032 5.56622 17.755C5.91167 17.1068 6.39266 16.6226 6.87925 16.3579C7.36796 16.0921 7.83237 16.0601 8.18623 16.2487C8.54008 16.4373 8.77251 16.8406 8.8243 17.3946C8.87586 17.9461 8.7421 18.6154 8.39665 19.2635Z" fill="white" stroke="black" stroke-width="0.5"/>
</svg>
