<svg width="93" height="68" viewBox="0 0 93 68" fill="none" xmlns="http://www.w3.org/2000/svg">
<path d="M5.42545 49.5319L5.34063 19.7386L78.9838 27.2113L79.0714 57.9648L5.42545 49.5319Z" fill="#060345" stroke="black" stroke-width="0.5"/>
<path d="M5.33857 19.5127L5.31719 12.0031L78.9595 19.1556L78.9816 26.9193L5.33857 19.5127Z" fill="#9597B1" stroke="black" stroke-width="0.5"/>
<path d="M5.44794 56.8956L5.42657 49.3859L79.0689 56.5384L79.091 64.3021L5.44794 56.8956Z" fill="#9597B1" stroke="black" stroke-width="0.5"/>
<path d="M78.9256 57.5197L78.8391 27.1411L91.2121 20.9105L91.2986 51.2891L78.9256 57.5197Z" fill="#060345" stroke="black" stroke-width="0.5"/>
<path d="M78.84 26.5896L78.8188 19.1429L91.1926 13.1687L91.2138 20.6153L78.84 26.5896Z" fill="#9597B1" stroke="black" stroke-width="0.5"/>
<path d="M78.9455 63.9724L78.9243 56.5258L91.298 50.5515L91.3192 57.9981L78.9455 63.9724Z" fill="#9597B1" stroke="black" stroke-width="0.5"/>
<path d="M91.4112 13.4058L78.9395 19.2285C78.9068 19.2438 78.8706 19.2499 78.8347 19.2463L6.08855 11.8315C5.87 11.8093 5.84195 11.502 6.05285 11.4406L21.7764 6.85639C21.8003 6.84943 21.8253 6.84698 21.8501 6.84918L91.3443 13.0254C91.5479 13.0435 91.5964 13.3193 91.4112 13.4058Z" fill="#9597B1" stroke="black" stroke-width="0.5"/>
<path d="M48.5162 30.5967C53.7407 39.4555 50.9875 50.7444 42.3869 55.8165C33.7864 60.8886 22.575 57.8353 17.3506 48.9766C12.1262 40.1178 14.8793 28.829 23.4799 23.7568C32.0804 18.6847 43.2918 21.738 48.5162 30.5967Z" fill="#F2F3FE" stroke="black" stroke-width="0.5"/>
<path d="M46.1177 31.4562C50.9231 39.6044 48.3174 50.0359 40.3093 54.7586C32.3013 59.4813 21.9116 56.7139 17.1062 48.5656C12.3008 40.4173 14.9065 29.9858 22.9145 25.2631C30.9225 20.5404 41.3123 23.3079 46.1177 31.4562Z" fill="#171617" stroke="black" stroke-width="0.5"/>
<path d="M41.3212 35.1595C45.7675 42.6988 43.4865 52.262 36.2544 56.5271C29.0223 60.7922 19.5495 58.1607 15.1032 50.6215C10.657 43.0822 12.938 33.5189 20.1701 29.2538C27.4022 24.9888 36.875 27.6202 41.3212 35.1595Z" fill="#F2F3FE" stroke="black" stroke-width="0.5"/>
<path d="M37.341 36.992C41.8893 44.7043 39.6819 54.4022 32.4541 58.6647C25.2263 62.9273 15.6713 60.1662 11.123 52.4539C6.57473 44.7416 8.78214 35.0438 16.0099 30.7812C23.2377 26.5186 32.7927 29.2797 37.341 36.992Z" fill="#171617" stroke="black" stroke-width="0.5"/>
<path d="M35.7082 37.9998C40.2565 45.7121 38.0491 55.41 30.8213 59.6725C23.5935 63.9351 14.0385 61.1741 9.49022 53.4618C4.94192 45.7494 7.14933 36.0516 14.3771 31.789C21.6049 27.5264 31.1599 30.2875 35.7082 37.9998Z" fill="#232124" stroke="black" stroke-width="0.5"/>
<path d="M33.0854 39.3426C36.9114 45.8302 35.053 53.9841 28.9779 57.5668C22.9028 61.1496 14.8678 58.8303 11.0418 52.3428C7.21576 45.8552 9.07425 37.7013 15.1493 34.1185C21.2244 30.5358 29.2594 32.855 33.0854 39.3426Z" fill="#F2F3FE" stroke="black" stroke-width="0.5"/>
<path d="M31.3193 40.5525C34.1865 45.4142 32.7912 51.5184 28.2464 54.1987C23.7016 56.879 17.6844 55.1462 14.8173 50.2845C11.9502 45.4229 13.3454 39.3186 17.8902 36.6383C22.435 33.9581 28.4522 35.6909 31.3193 40.5525Z" fill="#9597B1" stroke="black" stroke-width="0.5"/>
<path d="M30.0072 41.7021C31.5957 43.9434 31.1612 46.9489 29.0809 48.4233C27.0007 49.8977 24.0209 49.3122 22.4324 47.0709C20.8438 44.8295 21.2783 41.824 23.3586 40.3496C25.4388 38.8752 28.4186 39.4608 30.0072 41.7021Z" fill="#171617" stroke="black" stroke-width="0.5"/>
<path d="M23.5641 29.3861L24.399 28.0079" stroke="black" stroke-width="0.5" stroke-linecap="round"/>
<path d="M31.6738 30.8984L33.308 29.2461" stroke="black" stroke-width="0.5" stroke-linecap="round"/>
<path d="M28.1269 29.6533L29.1298 28.1309" stroke="black" stroke-width="0.5" stroke-linecap="round"/>
<path d="M35.6118 34.0365L37.954 31.9182" stroke="black" stroke-width="0.5" stroke-linecap="round"/>
<path d="M38.4052 38.024L41.3105 36.1536" stroke="black" stroke-width="0.5" stroke-linecap="round"/>
<path d="M40.0732 43.1582L43.4649 42.4982" stroke="black" stroke-width="0.5" stroke-linecap="round"/>
<path d="M40.0871 49.2173L42.7755 49.6715" stroke="black" stroke-width="0.5" stroke-linecap="round"/>
<path d="M38.4195 54.0849L39.8971 54.8701" stroke="black" stroke-width="0.5" stroke-linecap="round"/>
<path d="M47.9845 16.1681L26.7148 14.2345L35.0938 2.95508L45.7287 3.59961L47.9845 16.1681Z" fill="#9597B1" stroke="black" stroke-width="0.5"/>
<path d="M58.6173 10.045L47.9824 16.1681L45.7266 3.59963L50.2383 1.34375L58.6173 10.045Z" fill="#9597B1" stroke="black" stroke-width="0.5"/>
<path d="M40.5723 0.699219L35.0938 2.95509L45.7286 3.59963L50.2403 1.34375L40.5723 0.699219Z" fill="#9597B1" stroke="black" stroke-width="0.5"/>
<path d="M23.4922 6.82227V5.85547L17.6914 7.14454L18.0137 8.43361L23.4922 6.82227Z" fill="#9597B1" stroke="black" stroke-width="0.5"/>
<mask id="path-28-inside-1_1655_57262" fill="white">
<path fill-rule="evenodd" clip-rule="evenodd" d="M82.465 10.6895H63.7735V14.5505C63.7734 14.5526 63.7734 14.5547 63.7734 14.5567C63.7734 15.9806 67.9577 17.1349 73.1192 17.1349C78.2807 17.1349 82.465 15.9806 82.465 14.5567C82.465 14.5567 82.465 14.5567 82.465 14.5567H82.465V10.6895Z"/>
</mask>
<path fill-rule="evenodd" clip-rule="evenodd" d="M82.465 10.6895H63.7735V14.5505C63.7734 14.5526 63.7734 14.5547 63.7734 14.5567C63.7734 15.9806 67.9577 17.1349 73.1192 17.1349C78.2807 17.1349 82.465 15.9806 82.465 14.5567C82.465 14.5567 82.465 14.5567 82.465 14.5567H82.465V10.6895Z" fill="#9597B1"/>
<path d="M63.7735 10.6895V10.1895H63.2735V10.6895H63.7735ZM82.465 10.6895H82.965V10.1895H82.465V10.6895ZM63.7735 14.5505L64.2735 14.5548V14.5505H63.7735ZM82.465 14.5567V14.0567H81.965V14.5567H82.465ZM82.465 14.5567V15.0567H82.965V14.5567H82.465ZM63.7735 11.1895H82.465V10.1895H63.7735V11.1895ZM64.2735 14.5505V10.6895H63.2735V14.5505H64.2735ZM64.2734 14.5567C64.2734 14.5561 64.2734 14.5555 64.2734 14.5548L63.2735 14.5463C63.2735 14.5498 63.2734 14.5533 63.2734 14.5567H64.2734ZM73.1192 16.6349C70.5701 16.6349 68.2805 16.3493 66.6437 15.8978C65.8218 15.671 65.1928 15.4101 64.781 15.1415C64.3481 14.8591 64.2734 14.6507 64.2734 14.5567H63.2734C63.2734 15.1748 63.7218 15.6445 64.2347 15.9791C64.7688 16.3274 65.5085 16.622 66.3778 16.8618C68.1235 17.3433 70.5068 17.6349 73.1192 17.6349V16.6349ZM81.965 14.5567C81.965 14.6507 81.8903 14.8591 81.4574 15.1415C81.0456 15.4101 80.4166 15.671 79.5947 15.8978C77.9579 16.3493 75.6683 16.6349 73.1192 16.6349V17.6349C75.7317 17.6349 78.1149 17.3433 79.8606 16.8618C80.7299 16.622 81.4696 16.3274 82.0037 15.9791C82.5166 15.6445 82.965 15.1748 82.965 14.5567H81.965ZM81.965 14.5567C81.965 14.5567 81.965 14.5567 81.965 14.5567V14.5567C81.965 14.5567 81.965 14.5567 81.965 14.5567C81.965 14.5567 81.965 14.5567 81.965 14.5567V14.5567C81.965 14.5567 81.965 14.5567 81.965 14.5567C81.965 14.5567 81.965 14.5567 81.965 14.5567V14.5567C81.965 14.5567 81.965 14.5567 81.965 14.5567C81.965 14.5567 81.965 14.5567 81.965 14.5567V14.5567C81.965 14.5567 81.965 14.5567 81.965 14.5567C81.965 14.5567 81.965 14.5567 81.965 14.5567V14.5567C81.965 14.5567 81.965 14.5567 81.965 14.5567C81.965 14.5567 81.965 14.5567 81.965 14.5567V14.5567C81.965 14.5567 81.965 14.5567 81.965 14.5567C81.965 14.5567 81.965 14.5567 81.965 14.5567V14.5567C81.965 14.5567 81.965 14.5567 81.965 14.5567C81.965 14.5567 81.965 14.5567 81.965 14.5567V14.5567C81.965 14.5567 81.965 14.5567 81.965 14.5567C81.965 14.5567 81.965 14.5567 81.965 14.5567V14.5567C81.965 14.5567 81.965 14.5567 81.965 14.5567C81.965 14.5567 81.965 14.5567 81.965 14.5567V14.5567C81.965 14.5567 81.965 14.5567 81.965 14.5567C81.965 14.5567 81.965 14.5567 81.965 14.5567V14.5567C81.965 14.5567 81.965 14.5567 81.965 14.5567C81.965 14.5567 81.965 14.5567 81.965 14.5567V14.5567V14.5567C81.965 14.5567 81.965 14.5567 81.965 14.5567C81.965 14.5567 81.965 14.5567 81.965 14.5567V14.5567C81.965 14.5567 81.965 14.5567 81.965 14.5567C81.965 14.5567 81.965 14.5567 81.965 14.5567V14.5567C81.965 14.5567 81.965 14.5567 81.965 14.5567C81.965 14.5567 81.965 14.5567 81.965 14.5567V14.5567C81.965 14.5567 81.965 14.5567 81.965 14.5567C81.965 14.5567 81.965 14.5567 81.965 14.5567V14.5567C81.965 14.5567 81.965 14.5567 81.965 14.5567C81.965 14.5567 81.965 14.5567 81.965 14.5567V14.5567C81.965 14.5567 81.965 14.5567 81.965 14.5567C81.965 14.5567 81.965 14.5567 81.965 14.5567V14.5567C81.965 14.5567 81.965 14.5567 81.965 14.5567C81.965 14.5567 81.965 14.5567 81.965 14.5567V14.5567C81.965 14.5567 81.965 14.5567 81.965 14.5567C81.965 14.5567 81.965 14.5567 81.965 14.5567V14.5567C81.965 14.5567 81.965 14.5567 81.965 14.5567C81.965 14.5567 81.965 14.5567 81.965 14.5567V14.5567C81.965 14.5567 81.965 14.5567 81.965 14.5567C81.965 14.5567 81.965 14.5567 81.965 14.5567V14.5567C81.965 14.5567 81.965 14.5567 81.965 14.5567C81.965 14.5567 81.965 14.5567 81.965 14.5567V14.5567C81.965 14.5567 81.965 14.5567 81.965 14.5567C81.965 14.5567 81.965 14.5567 81.965 14.5567V14.5567C81.965 14.5567 81.965 14.5567 81.965 14.5567C81.965 14.5567 81.965 14.5567 81.965 14.5567V14.5567C81.965 14.5567 81.965 14.5567 81.965 14.5567C81.965 14.5567 81.965 14.5567 81.965 14.5567V14.5567C81.965 14.5567 81.965 14.5567 81.965 14.5567C81.965 14.5567 81.965 14.5567 81.965 14.5567V14.5567C81.965 14.5567 81.965 14.5567 81.965 14.5567C81.965 14.5567 81.965 14.5567 81.965 14.5567V14.5567C81.965 14.5567 81.965 14.5567 81.965 14.5567C81.965 14.5567 81.965 14.5567 81.965 14.5567V14.5567C81.965 14.5567 81.965 14.5567 81.965 14.5567C81.965 14.5567 81.965 14.5567 81.965 14.5567V14.5567C81.965 14.5567 81.965 14.5567 81.965 14.5567C81.965 14.5567 81.965 14.5567 81.965 14.5567V14.5567C81.965 14.5567 81.965 14.5567 81.965 14.5567C81.965 14.5567 81.965 14.5567 81.965 14.5567V14.5567C81.965 14.5567 81.965 14.5567 81.965 14.5567C81.965 14.5567 81.965 14.5567 81.965 14.5567V14.5567C81.965 14.5567 81.965 14.5567 81.965 14.5567C81.965 14.5567 81.965 14.5567 81.965 14.5567V14.5567C81.965 14.5567 81.965 14.5567 81.965 14.5567C81.965 14.5567 81.965 14.5567 81.965 14.5567V14.5567C81.965 14.5567 81.965 14.5567 81.965 14.5567C81.965 14.5567 81.965 14.5567 81.965 14.5567V14.5567C81.965 14.5567 81.965 14.5567 81.965 14.5567C81.965 14.5567 81.965 14.5567 81.965 14.5567V14.5567C81.965 14.5567 81.965 14.5567 81.965 14.5567C81.965 14.5567 81.965 14.5567 81.965 14.5567V14.5567C81.965 14.5567 81.965 14.5567 81.965 14.5567C81.965 14.5567 81.965 14.5567 81.965 14.5567V14.5567C81.965 14.5567 81.965 14.5567 81.965 14.5567C81.965 14.5567 81.965 14.5567 81.965 14.5567V14.5567C81.965 14.5567 81.965 14.5567 81.965 14.5567C81.965 14.5567 81.965 14.5567 81.965 14.5567V14.5567C81.965 14.5567 81.965 14.5567 81.965 14.5567C81.965 14.5567 81.965 14.5567 81.965 14.5567V14.5567C81.965 14.5567 81.965 14.5567 81.965 14.5567C81.965 14.5567 81.965 14.5567 81.965 14.5567V14.5567C81.965 14.5567 81.965 14.5567 81.965 14.5567C81.965 14.5567 81.965 14.5567 81.965 14.5567V14.5567C81.965 14.5567 81.965 14.5567 81.965 14.5567C81.965 14.5567 81.965 14.5567 81.965 14.5567V14.5567C81.965 14.5567 81.965 14.5567 81.965 14.5567C81.965 14.5567 81.965 14.5567 81.965 14.5567V14.5567C81.965 14.5567 81.965 14.5567 81.965 14.5567C81.965 14.5567 81.965 14.5567 81.965 14.5567V14.5567C81.965 14.5567 81.965 14.5567 81.965 14.5567C81.965 14.5567 81.965 14.5567 81.965 14.5567V14.5567C81.965 14.5567 81.965 14.5567 81.965 14.5567C81.965 14.5567 81.965 14.5567 81.965 14.5567V14.5567C81.965 14.5567 81.965 14.5567 81.965 14.5567C81.965 14.5567 81.965 14.5567 81.965 14.5567V14.5567C81.965 14.5567 81.965 14.5567 81.965 14.5567C81.965 14.5567 81.965 14.5567 81.965 14.5567V14.5567C81.965 14.5567 81.965 14.5567 81.965 14.5567V14.5567C81.965 14.5567 81.965 14.5567 81.965 14.5567C81.965 14.5567 81.965 14.5567 81.965 14.5567V14.5567C81.965 14.5567 81.965 14.5567 81.965 14.5567C81.965 14.5567 81.965 14.5567 81.965 14.5567V14.5567C81.965 14.5567 81.965 14.5567 81.965 14.5567C81.965 14.5567 81.965 14.5567 81.965 14.5567V14.5567C81.965 14.5567 81.965 14.5567 81.965 14.5567C81.965 14.5567 81.965 14.5567 81.965 14.5567V14.5567C81.965 14.5567 81.965 14.5567 81.965 14.5567C81.965 14.5567 81.965 14.5567 81.965 14.5567V14.5567C81.965 14.5567 81.965 14.5567 81.965 14.5567C81.965 14.5567 81.965 14.5567 81.965 14.5567V14.5567C81.965 14.5567 81.965 14.5567 81.965 14.5567C81.965 14.5567 81.965 14.5567 81.965 14.5567V14.5567C81.965 14.5567 81.965 14.5567 81.965 14.5567C81.965 14.5567 81.965 14.5567 81.965 14.5567V14.5567C81.965 14.5567 81.965 14.5567 81.965 14.5567C81.965 14.5567 81.965 14.5567 81.965 14.5567V14.5567C81.965 14.5567 81.965 14.5567 81.965 14.5567C81.965 14.5567 81.965 14.5567 81.965 14.5567V14.5567C81.965 14.5567 81.965 14.5567 81.965 14.5567C81.965 14.5567 81.965 14.5567 81.965 14.5567V14.5567C81.965 14.5567 81.965 14.5567 81.965 14.5567C81.965 14.5567 81.965 14.5567 81.965 14.5567V14.5567C81.965 14.5567 81.965 14.5567 81.965 14.5567C81.965 14.5567 81.965 14.5567 81.965 14.5567V14.5567C81.965 14.5567 81.965 14.5567 81.965 14.5567C81.965 14.5567 81.965 14.5567 81.965 14.5567V14.5567C81.965 14.5567 81.965 14.5567 81.965 14.5567C81.965 14.5567 81.965 14.5567 81.965 14.5567V14.5567C81.965 14.5567 81.965 14.5567 81.965 14.5567C81.965 14.5567 81.965 14.5567 81.965 14.5567V14.5567C81.965 14.5567 81.965 14.5567 81.965 14.5567C81.965 14.5567 81.965 14.5567 81.965 14.5567V14.5567C81.965 14.5567 81.965 14.5567 81.965 14.5567C81.965 14.5567 81.965 14.5567 81.965 14.5567V14.5567C81.965 14.5567 81.965 14.5567 81.965 14.5567C81.965 14.5567 81.965 14.5567 81.965 14.5567V14.5567C81.965 14.5567 81.965 14.5567 81.965 14.5567C81.965 14.5567 81.965 14.5567 81.965 14.5567V14.5567C81.965 14.5567 81.965 14.5567 81.965 14.5567C81.965 14.5567 81.965 14.5567 81.965 14.5567V14.5567C81.965 14.5567 81.965 14.5567 81.965 14.5567C81.965 14.5567 81.965 14.5567 81.965 14.5567V14.5567C81.965 14.5567 81.965 14.5567 81.965 14.5567C81.965 14.5567 81.965 14.5567 81.965 14.5567V14.5567C81.965 14.5567 81.965 14.5567 81.965 14.5567C81.965 14.5567 81.965 14.5567 81.965 14.5567V14.5567C81.965 14.5567 81.965 14.5567 81.965 14.5567C81.965 14.5567 81.965 14.5567 81.965 14.5567V14.5567C81.965 14.5567 81.965 14.5567 81.965 14.5567C81.965 14.5567 81.965 14.5567 81.965 14.5567V14.5567C81.965 14.5567 81.965 14.5567 81.965 14.5567C81.965 14.5567 81.965 14.5567 81.965 14.5567V14.5567C81.965 14.5567 81.965 14.5567 81.965 14.5567C81.965 14.5567 81.965 14.5567 81.965 14.5567V14.5567C81.965 14.5567 81.965 14.5567 81.965 14.5567C81.965 14.5567 81.965 14.5567 81.965 14.5567V14.5567C81.965 14.5567 81.965 14.5567 81.965 14.5567C81.965 14.5567 81.965 14.5567 81.965 14.5567V14.5567C81.965 14.5567 81.965 14.5567 81.965 14.5567C81.965 14.5567 81.965 14.5567 81.965 14.5567V14.5567C81.965 14.5567 81.965 14.5567 81.965 14.5567C81.965 14.5567 81.965 14.5567 81.965 14.5567V14.5567C81.965 14.5567 81.965 14.5567 81.965 14.5567C81.965 14.5567 81.965 14.5567 81.965 14.5567V14.5567C81.965 14.5567 81.965 14.5567 81.965 14.5567C81.965 14.5567 81.965 14.5567 81.965 14.5567V14.5567C81.965 14.5567 81.965 14.5567 81.965 14.5567C81.965 14.5567 81.965 14.5567 81.965 14.5567V14.5567C81.965 14.5567 81.965 14.5567 81.965 14.5567C81.965 14.5567 81.965 14.5567 81.965 14.5567V14.5567C81.965 14.5567 81.965 14.5567 81.965 14.5567C81.965 14.5567 81.965 14.5567 81.965 14.5567V14.5567C81.965 14.5567 81.965 14.5567 81.965 14.5567C81.965 14.5567 81.965 14.5567 81.965 14.5567V14.5567C81.965 14.5567 81.965 14.5567 81.965 14.5567C81.965 14.5567 81.965 14.5567 81.965 14.5567V14.5567V14.5567C81.965 14.5567 81.965 14.5567 81.965 14.5567C81.965 14.5567 81.965 14.5567 81.965 14.5567V14.5567C81.965 14.5567 81.965 14.5567 81.965 14.5567C81.965 14.5567 81.965 14.5567 81.965 14.5567V14.5567C81.965 14.5567 81.965 14.5567 81.965 14.5567C81.965 14.5567 81.965 14.5567 81.965 14.5567V14.5567C81.965 14.5567 81.965 14.5567 81.965 14.5567C81.965 14.5567 81.965 14.5567 81.965 14.5567V14.5567C81.965 14.5567 81.965 14.5567 81.965 14.5567C81.965 14.5567 81.965 14.5567 81.965 14.5567V14.5567C81.965 14.5567 81.965 14.5567 81.965 14.5567C81.965 14.5567 81.965 14.5567 81.965 14.5567V14.5567C81.965 14.5567 81.965 14.5567 81.965 14.5567C81.965 14.5567 81.965 14.5567 81.965 14.5567V14.5567C81.965 14.5567 81.965 14.5567 81.965 14.5567C81.965 14.5567 81.965 14.5567 81.965 14.5567V14.5567C81.965 14.5567 81.965 14.5567 81.965 14.5567C81.965 14.5567 81.965 14.5567 81.965 14.5567V14.5567C81.965 14.5567 81.965 14.5567 81.965 14.5567C81.965 14.5567 81.965 14.5567 81.965 14.5567V14.5567C81.965 14.5567 81.965 14.5567 81.965 14.5567C81.965 14.5567 81.965 14.5567 81.965 14.5567V14.5567C81.965 14.5567 81.965 14.5567 81.965 14.5567H82.965C82.965 14.5567 82.965 14.5567 82.965 14.5567V14.5567C82.965 14.5567 82.965 14.5567 82.965 14.5567C82.965 14.5567 82.965 14.5567 82.965 14.5567V14.5567C82.965 14.5567 82.965 14.5567 82.965 14.5567C82.965 14.5567 82.965 14.5567 82.965 14.5567V14.5567C82.965 14.5567 82.965 14.5567 82.965 14.5567C82.965 14.5567 82.965 14.5567 82.965 14.5567V14.5567C82.965 14.5567 82.965 14.5567 82.965 14.5567C82.965 14.5567 82.965 14.5567 82.965 14.5567V14.5567C82.965 14.5567 82.965 14.5567 82.965 14.5567C82.965 14.5567 82.965 14.5567 82.965 14.5567V14.5567C82.965 14.5567 82.965 14.5567 82.965 14.5567C82.965 14.5567 82.965 14.5567 82.965 14.5567V14.5567C82.965 14.5567 82.965 14.5567 82.965 14.5567C82.965 14.5567 82.965 14.5567 82.965 14.5567V14.5567C82.965 14.5567 82.965 14.5567 82.965 14.5567C82.965 14.5567 82.965 14.5567 82.965 14.5567V14.5567C82.965 14.5567 82.965 14.5567 82.965 14.5567C82.965 14.5567 82.965 14.5567 82.965 14.5567V14.5567C82.965 14.5567 82.965 14.5567 82.965 14.5567C82.965 14.5567 82.965 14.5567 82.965 14.5567V14.5567C82.965 14.5567 82.965 14.5567 82.965 14.5567C82.965 14.5567 82.965 14.5567 82.965 14.5567V14.5567V14.5567C82.965 14.5567 82.965 14.5567 82.965 14.5567C82.965 14.5567 82.965 14.5567 82.965 14.5567V14.5567C82.965 14.5567 82.965 14.5567 82.965 14.5567C82.965 14.5567 82.965 14.5567 82.965 14.5567V14.5567C82.965 14.5567 82.965 14.5567 82.965 14.5567C82.965 14.5567 82.965 14.5567 82.965 14.5567V14.5567C82.965 14.5567 82.965 14.5567 82.965 14.5567C82.965 14.5567 82.965 14.5567 82.965 14.5567V14.5567C82.965 14.5567 82.965 14.5567 82.965 14.5567C82.965 14.5567 82.965 14.5567 82.965 14.5567V14.5567C82.965 14.5567 82.965 14.5567 82.965 14.5567C82.965 14.5567 82.965 14.5567 82.965 14.5567V14.5567C82.965 14.5567 82.965 14.5567 82.965 14.5567C82.965 14.5567 82.965 14.5567 82.965 14.5567V14.5567C82.965 14.5567 82.965 14.5567 82.965 14.5567C82.965 14.5567 82.965 14.5567 82.965 14.5567V14.5567C82.965 14.5567 82.965 14.5567 82.965 14.5567C82.965 14.5567 82.965 14.5567 82.965 14.5567V14.5567C82.965 14.5567 82.965 14.5567 82.965 14.5567C82.965 14.5567 82.965 14.5567 82.965 14.5567V14.5567C82.965 14.5567 82.965 14.5567 82.965 14.5567C82.965 14.5567 82.965 14.5567 82.965 14.5567V14.5567C82.965 14.5567 82.965 14.5567 82.965 14.5567C82.965 14.5567 82.965 14.5567 82.965 14.5567V14.5567C82.965 14.5567 82.965 14.5567 82.965 14.5567C82.965 14.5567 82.965 14.5567 82.965 14.5567V14.5567C82.965 14.5567 82.965 14.5567 82.965 14.5567C82.965 14.5567 82.965 14.5567 82.965 14.5567V14.5567C82.965 14.5567 82.965 14.5567 82.965 14.5567C82.965 14.5567 82.965 14.5567 82.965 14.5567V14.5567C82.965 14.5567 82.965 14.5567 82.965 14.5567C82.965 14.5567 82.965 14.5567 82.965 14.5567V14.5567C82.965 14.5567 82.965 14.5567 82.965 14.5567C82.965 14.5567 82.965 14.5567 82.965 14.5567V14.5567C82.965 14.5567 82.965 14.5567 82.965 14.5567C82.965 14.5567 82.965 14.5567 82.965 14.5567V14.5567C82.965 14.5567 82.965 14.5567 82.965 14.5567C82.965 14.5567 82.965 14.5567 82.965 14.5567V14.5567C82.965 14.5567 82.965 14.5567 82.965 14.5567C82.965 14.5567 82.965 14.5567 82.965 14.5567V14.5567C82.965 14.5567 82.965 14.5567 82.965 14.5567C82.965 14.5567 82.965 14.5567 82.965 14.5567V14.5567C82.965 14.5567 82.965 14.5567 82.965 14.5567C82.965 14.5567 82.965 14.5567 82.965 14.5567V14.5567C82.965 14.5567 82.965 14.5567 82.965 14.5567C82.965 14.5567 82.965 14.5567 82.965 14.5567V14.5567C82.965 14.5567 82.965 14.5567 82.965 14.5567C82.965 14.5567 82.965 14.5567 82.965 14.5567V14.5567C82.965 14.5567 82.965 14.5567 82.965 14.5567C82.965 14.5567 82.965 14.5567 82.965 14.5567V14.5567C82.965 14.5567 82.965 14.5567 82.965 14.5567C82.965 14.5567 82.965 14.5567 82.965 14.5567V14.5567C82.965 14.5567 82.965 14.5567 82.965 14.5567C82.965 14.5567 82.965 14.5567 82.965 14.5567V14.5567C82.965 14.5567 82.965 14.5567 82.965 14.5567C82.965 14.5567 82.965 14.5567 82.965 14.5567V14.5567C82.965 14.5567 82.965 14.5567 82.965 14.5567C82.965 14.5567 82.965 14.5567 82.965 14.5567V14.5567C82.965 14.5567 82.965 14.5567 82.965 14.5567C82.965 14.5567 82.965 14.5567 82.965 14.5567V14.5567C82.965 14.5567 82.965 14.5567 82.965 14.5567C82.965 14.5567 82.965 14.5567 82.965 14.5567V14.5567C82.965 14.5567 82.965 14.5567 82.965 14.5567C82.965 14.5567 82.965 14.5567 82.965 14.5567V14.5567C82.965 14.5567 82.965 14.5567 82.965 14.5567C82.965 14.5567 82.965 14.5567 82.965 14.5567V14.5567C82.965 14.5567 82.965 14.5567 82.965 14.5567C82.965 14.5567 82.965 14.5567 82.965 14.5567V14.5567C82.965 14.5567 82.965 14.5567 82.965 14.5567C82.965 14.5567 82.965 14.5567 82.965 14.5567V14.5567C82.965 14.5567 82.965 14.5567 82.965 14.5567C82.965 14.5567 82.965 14.5567 82.965 14.5567V14.5567C82.965 14.5567 82.965 14.5567 82.965 14.5567C82.965 14.5567 82.965 14.5567 82.965 14.5567V14.5567C82.965 14.5567 82.965 14.5567 82.965 14.5567C82.965 14.5567 82.965 14.5567 82.965 14.5567V14.5567C82.965 14.5567 82.965 14.5567 82.965 14.5567C82.965 14.5567 82.965 14.5567 82.965 14.5567V14.5567C82.965 14.5567 82.965 14.5567 82.965 14.5567V14.5567C82.965 14.5567 82.965 14.5567 82.965 14.5567C82.965 14.5567 82.965 14.5567 82.965 14.5567V14.5567C82.965 14.5567 82.965 14.5567 82.965 14.5567C82.965 14.5567 82.965 14.5567 82.965 14.5567V14.5567C82.965 14.5567 82.965 14.5567 82.965 14.5567C82.965 14.5567 82.965 14.5567 82.965 14.5567V14.5567C82.965 14.5567 82.965 14.5567 82.965 14.5567C82.965 14.5567 82.965 14.5567 82.965 14.5567V14.5567C82.965 14.5567 82.965 14.5567 82.965 14.5567C82.965 14.5567 82.965 14.5567 82.965 14.5567V14.5567C82.965 14.5567 82.965 14.5567 82.965 14.5567C82.965 14.5567 82.965 14.5567 82.965 14.5567V14.5567C82.965 14.5567 82.965 14.5567 82.965 14.5567C82.965 14.5567 82.965 14.5567 82.965 14.5567V14.5567C82.965 14.5567 82.965 14.5567 82.965 14.5567C82.965 14.5567 82.965 14.5567 82.965 14.5567V14.5567C82.965 14.5567 82.965 14.5567 82.965 14.5567C82.965 14.5567 82.965 14.5567 82.965 14.5567V14.5567C82.965 14.5567 82.965 14.5567 82.965 14.5567C82.965 14.5567 82.965 14.5567 82.965 14.5567V14.5567C82.965 14.5567 82.965 14.5567 82.965 14.5567C82.965 14.5567 82.965 14.5567 82.965 14.5567V14.5567C82.965 14.5567 82.965 14.5567 82.965 14.5567C82.965 14.5567 82.965 14.5567 82.965 14.5567V14.5567C82.965 14.5567 82.965 14.5567 82.965 14.5567C82.965 14.5567 82.965 14.5567 82.965 14.5567V14.5567C82.965 14.5567 82.965 14.5567 82.965 14.5567C82.965 14.5567 82.965 14.5567 82.965 14.5567V14.5567C82.965 14.5567 82.965 14.5567 82.965 14.5567C82.965 14.5567 82.965 14.5567 82.965 14.5567V14.5567C82.965 14.5567 82.965 14.5567 82.965 14.5567C82.965 14.5567 82.965 14.5567 82.965 14.5567V14.5567C82.965 14.5567 82.965 14.5567 82.965 14.5567C82.965 14.5567 82.965 14.5567 82.965 14.5567V14.5567C82.965 14.5567 82.965 14.5567 82.965 14.5567C82.965 14.5567 82.965 14.5567 82.965 14.5567V14.5567C82.965 14.5567 82.965 14.5567 82.965 14.5567C82.965 14.5567 82.965 14.5567 82.965 14.5567V14.5567C82.965 14.5567 82.965 14.5567 82.965 14.5567C82.965 14.5567 82.965 14.5567 82.965 14.5567V14.5567C82.965 14.5567 82.965 14.5567 82.965 14.5567C82.965 14.5567 82.965 14.5567 82.965 14.5567V14.5567C82.965 14.5567 82.965 14.5567 82.965 14.5567C82.965 14.5567 82.965 14.5567 82.965 14.5567V14.5567C82.965 14.5567 82.965 14.5567 82.965 14.5567C82.965 14.5567 82.965 14.5567 82.965 14.5567V14.5567C82.965 14.5567 82.965 14.5567 82.965 14.5567C82.965 14.5567 82.965 14.5567 82.965 14.5567V14.5567C82.965 14.5567 82.965 14.5567 82.965 14.5567C82.965 14.5567 82.965 14.5567 82.965 14.5567V14.5567C82.965 14.5567 82.965 14.5567 82.965 14.5567C82.965 14.5567 82.965 14.5567 82.965 14.5567V14.5567C82.965 14.5567 82.965 14.5567 82.965 14.5567C82.965 14.5567 82.965 14.5567 82.965 14.5567V14.5567C82.965 14.5567 82.965 14.5567 82.965 14.5567C82.965 14.5567 82.965 14.5567 82.965 14.5567V14.5567C82.965 14.5567 82.965 14.5567 82.965 14.5567C82.965 14.5567 82.965 14.5567 82.965 14.5567V14.5567C82.965 14.5567 82.965 14.5567 82.965 14.5567C82.965 14.5567 82.965 14.5567 82.965 14.5567V14.5567C82.965 14.5567 82.965 14.5567 82.965 14.5567C82.965 14.5567 82.965 14.5567 82.965 14.5567V14.5567C82.965 14.5567 82.965 14.5567 82.965 14.5567C82.965 14.5567 82.965 14.5567 82.965 14.5567V14.5567C82.965 14.5567 82.965 14.5567 82.965 14.5567C82.965 14.5567 82.965 14.5567 82.965 14.5567V14.5567C82.965 14.5567 82.965 14.5567 82.965 14.5567C82.965 14.5567 82.965 14.5567 82.965 14.5567V14.5567C82.965 14.5567 82.965 14.5567 82.965 14.5567C82.965 14.5567 82.965 14.5567 82.965 14.5567V14.5567C82.965 14.5567 82.965 14.5567 82.965 14.5567C82.965 14.5567 82.965 14.5567 82.965 14.5567V14.5567C82.965 14.5567 82.965 14.5567 82.965 14.5567C82.965 14.5567 82.965 14.5567 82.965 14.5567V14.5567C82.965 14.5567 82.965 14.5567 82.965 14.5567C82.965 14.5567 82.965 14.5567 82.965 14.5567V14.5567C82.965 14.5567 82.965 14.5567 82.965 14.5567C82.965 14.5567 82.965 14.5567 82.965 14.5567V14.5567V14.5567C82.965 14.5567 82.965 14.5567 82.965 14.5567C82.965 14.5567 82.965 14.5567 82.965 14.5567V14.5567C82.965 14.5567 82.965 14.5567 82.965 14.5567C82.965 14.5567 82.965 14.5567 82.965 14.5567V14.5567C82.965 14.5567 82.965 14.5567 82.965 14.5567C82.965 14.5567 82.965 14.5567 82.965 14.5567V14.5567C82.965 14.5567 82.965 14.5567 82.965 14.5567C82.965 14.5567 82.965 14.5567 82.965 14.5567V14.5567C82.965 14.5567 82.965 14.5567 82.965 14.5567C82.965 14.5567 82.965 14.5567 82.965 14.5567V14.5567C82.965 14.5567 82.965 14.5567 82.965 14.5567C82.965 14.5567 82.965 14.5567 82.965 14.5567V14.5567C82.965 14.5567 82.965 14.5567 82.965 14.5567C82.965 14.5567 82.965 14.5567 82.965 14.5567V14.5567C82.965 14.5567 82.965 14.5567 82.965 14.5567C82.965 14.5567 82.965 14.5567 82.965 14.5567V14.5567C82.965 14.5567 82.965 14.5567 82.965 14.5567C82.965 14.5567 82.965 14.5567 82.965 14.5567V14.5567C82.965 14.5567 82.965 14.5567 82.965 14.5567C82.965 14.5567 82.965 14.5567 82.965 14.5567V14.5567C82.965 14.5567 82.965 14.5567 82.965 14.5567C82.965 14.5567 82.965 14.5567 82.965 14.5567V14.5567C82.965 14.5567 82.965 14.5567 82.965 14.5567H81.965ZM82.465 14.0567H82.465V15.0567H82.465V14.0567ZM81.965 10.6895V14.5567H82.965V10.6895H81.965Z" fill="black" mask="url(#path-28-inside-1_1655_57262)"/>
<mask id="path-30-inside-2_1655_57262" fill="white">
<path fill-rule="evenodd" clip-rule="evenodd" d="M19.9454 7.58594H13.5V9.22157H13.5001C13.5005 9.82367 14.9432 10.3117 16.7228 10.3117C18.5026 10.3117 19.9455 9.82354 19.9455 9.22131C19.9455 9.21852 19.9454 9.21573 19.9454 9.21294V7.58594Z"/>
</mask>
<path fill-rule="evenodd" clip-rule="evenodd" d="M19.9454 7.58594H13.5V9.22157H13.5001C13.5005 9.82367 14.9432 10.3117 16.7228 10.3117C18.5026 10.3117 19.9455 9.82354 19.9455 9.22131C19.9455 9.21852 19.9454 9.21573 19.9454 9.21294V7.58594Z" fill="#9597B1"/>
<path d="M13.5 7.58594V7.08594H13V7.58594H13.5ZM19.9454 7.58594H20.4454V7.08594H19.9454V7.58594ZM13.5 9.22157H13V9.72157H13.5V9.22157ZM13.5001 9.22157L14.0001 9.22123L13.9998 8.72157H13.5001V9.22157ZM19.9454 9.21294H19.4452L19.4455 9.22406L19.9454 9.21294ZM13.5 8.08594H19.9454V7.08594H13.5V8.08594ZM14 9.22157V7.58594H13V9.22157H14ZM13.5001 8.72157H13.5V9.72157H13.5001V8.72157ZM16.7228 9.81173C15.8724 9.81173 15.1235 9.69437 14.6045 9.51881C14.3424 9.43017 14.1663 9.33578 14.0658 9.25541C13.9604 9.17116 14 9.15621 14.0001 9.22123L13.0001 9.2219C13.0003 9.58798 13.2204 9.85982 13.4413 10.0364C13.667 10.2169 13.9629 10.3574 14.284 10.4661C14.9314 10.6851 15.7936 10.8117 16.7228 10.8117V9.81173ZM19.4455 9.22131C19.4455 9.15623 19.4851 9.17109 19.3799 9.25531C19.2794 9.33568 19.1033 9.43008 18.8413 9.51873C18.3223 9.69434 17.5733 9.81173 16.7228 9.81173V10.8117C17.6521 10.8117 18.5144 10.685 19.1618 10.466C19.483 10.3573 19.7788 10.2167 20.0045 10.0362C20.2254 9.8595 20.4455 9.58751 20.4455 9.22131H19.4455ZM19.4455 9.22406C19.4455 9.22314 19.4455 9.22222 19.4455 9.22131H20.4455C20.4455 9.21482 20.4454 9.20833 20.4452 9.20183L19.4455 9.22406ZM19.4454 7.58594V9.21294H20.4454V7.58594H19.4454Z" fill="black" mask="url(#path-30-inside-2_1655_57262)"/>
<path d="M82.215 10.6895C82.215 10.9144 82.0469 11.1882 81.594 11.4836C81.1516 11.7721 80.495 12.0415 79.6612 12.2715C77.9972 12.7305 75.6841 13.0176 73.1192 13.0176C70.5543 13.0176 68.2413 12.7305 66.5772 12.2715C65.7434 12.0415 65.0868 11.7721 64.6444 11.4836C64.1915 11.1882 64.0234 10.9144 64.0234 10.6895C64.0234 10.4645 64.1915 10.1907 64.6444 9.89534C65.0868 9.60683 65.7434 9.33746 66.5772 9.10745C68.2413 8.64841 70.5543 8.36133 73.1192 8.36133C75.6841 8.36133 77.9972 8.64841 79.6612 9.10745C80.495 9.33746 81.1516 9.60683 81.594 9.89534C82.0469 10.1907 82.215 10.4645 82.215 10.6895Z" fill="#9597B1" stroke="black" stroke-width="0.5"/>
<mask id="path-33-inside-3_1655_57262" fill="white">
<path fill-rule="evenodd" clip-rule="evenodd" d="M14.7704 6.95405C17.0348 6.28775 21.1487 5.29901 23.4903 5.53317C24.0041 5.63588 23.7709 6.07275 19.0114 7.01315C19.5887 7.12962 19.9454 7.28993 19.9454 7.4669C19.9454 7.82287 18.5025 8.11144 16.7227 8.11144C14.9428 8.11144 13.5 7.82287 13.5 7.4669C13.5 7.25772 13.9983 7.07181 14.7704 6.95405Z"/>
</mask>
<path fill-rule="evenodd" clip-rule="evenodd" d="M14.7704 6.95405C17.0348 6.28775 21.1487 5.29901 23.4903 5.53317C24.0041 5.63588 23.7709 6.07275 19.0114 7.01315C19.5887 7.12962 19.9454 7.28993 19.9454 7.4669C19.9454 7.82287 18.5025 8.11144 16.7227 8.11144C14.9428 8.11144 13.5 7.82287 13.5 7.4669C13.5 7.25772 13.9983 7.07181 14.7704 6.95405Z" fill="#9597B1"/>
<path d="M23.4903 5.53317L23.5883 5.04287L23.5644 5.03808L23.5401 5.03565L23.4903 5.53317ZM14.7704 6.95405L14.8458 7.44834L14.8791 7.44325L14.9115 7.43372L14.7704 6.95405ZM19.0114 7.01315L18.9145 6.52263L18.9125 7.50327L19.0114 7.01315ZM23.5401 5.03565C22.2941 4.91105 20.6211 5.11187 19.0091 5.41452C17.3847 5.71951 15.7735 6.1377 14.6292 6.47439L14.9115 7.43372C16.0317 7.1041 17.6096 6.69476 19.1937 6.39735C20.7902 6.09759 22.3449 5.92113 23.4406 6.03069L23.5401 5.03565ZM19.1083 7.50366C21.4874 7.03359 22.7784 6.68182 23.4167 6.42217C23.5781 6.35653 23.717 6.28923 23.8271 6.21735C23.9136 6.16095 24.0797 6.04173 24.1496 5.83736C24.1923 5.71254 24.1943 5.56762 24.1348 5.4295C24.0805 5.30349 23.9929 5.22431 23.9287 5.17902C23.8087 5.09447 23.6734 5.05988 23.5883 5.04287L23.3923 6.02347C23.4357 6.03214 23.4054 6.03367 23.3525 5.99635C23.3217 5.97467 23.2581 5.92188 23.2164 5.82511C23.1695 5.71624 23.1727 5.60343 23.2034 5.51365C23.2494 5.37938 23.3387 5.34202 23.2806 5.3799C23.2463 5.40231 23.1731 5.44172 23.0399 5.49588C22.5002 5.71545 21.2949 6.05231 18.9145 6.52263L19.1083 7.50366ZM18.9125 7.50327C19.1848 7.5582 19.3725 7.61765 19.4801 7.66884C19.5351 7.69501 19.5429 7.70686 19.5301 7.69428C19.5163 7.68076 19.4454 7.60343 19.4454 7.4669H20.4454C20.4454 7.24189 20.3298 7.07816 20.2311 6.98117C20.1334 6.88512 20.016 6.81642 19.9097 6.76584C19.6947 6.66352 19.4154 6.58457 19.1103 6.52302L18.9125 7.50327ZM19.4454 7.4669C19.4454 7.32957 19.5171 7.2522 19.5304 7.23922C19.5428 7.22707 19.5344 7.23929 19.4784 7.26577C19.3689 7.31752 19.1786 7.37733 18.9034 7.43237C18.3612 7.54081 17.5899 7.61144 16.7227 7.61144V8.61144C17.6352 8.61144 18.4753 8.53779 19.0995 8.41295C19.4075 8.35135 19.6891 8.27227 19.9058 8.1698C20.0129 8.11917 20.1311 8.05045 20.2294 7.95437C20.3285 7.85749 20.4454 7.69323 20.4454 7.4669H19.4454ZM16.7227 7.61144C15.8554 7.61144 15.0841 7.54081 14.542 7.43237C14.2667 7.37733 14.0764 7.31752 13.967 7.26577C13.911 7.23929 13.9025 7.22707 13.915 7.23922C13.9282 7.2522 14 7.32957 14 7.4669H13C13 7.69323 13.1169 7.85749 13.216 7.95437C13.3143 8.05045 13.4324 8.11917 13.5395 8.1698C13.7562 8.27227 14.0379 8.35135 14.3458 8.41295C14.97 8.53779 15.8101 8.61144 16.7227 8.61144V7.61144ZM14 7.4669C14 7.54459 13.9759 7.60639 13.9522 7.64605C13.9304 7.68252 13.9099 7.69926 13.9089 7.70014C13.907 7.70167 13.9144 7.69537 13.9366 7.68335C13.9581 7.67169 13.9885 7.65736 14.0294 7.64121C14.2001 7.57377 14.4757 7.50478 14.8458 7.44834L14.695 6.45977C14.293 6.52108 13.9334 6.60393 13.6619 6.71117C13.5286 6.76384 13.3875 6.83352 13.271 6.93002C13.1595 7.02238 13 7.20059 13 7.4669H14Z" fill="black" mask="url(#path-33-inside-3_1655_57262)"/>
<path d="M65.0625 12.623V15.2012" stroke="black" stroke-width="0.5"/>
<path d="M66.9961 13.2676V15.8457" stroke="black" stroke-width="0.5"/>
<path d="M69.8984 13.9121V16.168" stroke="black" stroke-width="0.5"/>
<path d="M73.4414 14.2344V16.4903" stroke="black" stroke-width="0.5"/>
<path d="M76.3438 13.9121V16.168" stroke="black" stroke-width="0.5"/>
<path d="M78.5977 13.9121V15.8457" stroke="black" stroke-width="0.5"/>
<path d="M79.8867 13.2676V15.5235" stroke="black" stroke-width="0.5"/>
<path d="M81.1758 12.9453V14.8789" stroke="black" stroke-width="0.5"/>
<path d="M26.1407 11.6563C26.1407 11.6685 26.1313 11.7304 25.9928 11.8287C25.8608 11.9223 25.6535 12.0169 25.3749 12.1004C24.8209 12.2666 24.0406 12.3731 23.168 12.3731C22.2954 12.3731 21.5151 12.2666 20.9611 12.1004C20.6825 12.0169 20.4752 11.9223 20.3432 11.8287C20.2047 11.7304 20.1953 11.6685 20.1953 11.6563C20.1953 11.644 20.2047 11.5821 20.3432 11.4838C20.4752 11.3902 20.6825 11.2957 20.9611 11.2121C21.5151 11.0459 22.2954 10.9395 23.168 10.9395C24.0406 10.9395 24.8209 11.0459 25.3749 11.2121C25.6535 11.2957 25.8608 11.3902 25.9928 11.4838C26.1313 11.5821 26.1407 11.644 26.1407 11.6563Z" fill="#171617" stroke="black" stroke-width="0.5"/>
</svg>
