<svg width="101" height="125" viewBox="0 0 101 125" fill="none" xmlns="http://www.w3.org/2000/svg">
<path d="M100.622 98.6977L31.812 124.371L1.2382 18.6936L72.8517 0.999839L100.622 98.6977Z" fill="white" stroke="#292929" stroke-width="0.5"/>
<path d="M35.7518 96.5784L41.9873 94.7429L46.7798 111.023L40.5444 112.859L35.7518 96.5784Z" fill="#ACACAC" stroke="#292929" stroke-width="0.5"/>
<path d="M41.9159 80.761L48.1513 78.9255L56.4158 107L50.1803 108.836L41.9159 80.761Z" fill="#ACACAC" stroke="#292929" stroke-width="0.5"/>
<path d="M55.0175 87.2932L61.2529 85.4577L66.417 103L60.1815 104.836L55.0175 87.2932Z" fill="#ACACAC" stroke="#292929" stroke-width="0.5"/>
<path d="M61.1268 66.677L67.3623 64.8415L77.4177 99.0002L71.1823 100.836L61.1268 66.677Z" fill="#FF0000" stroke="#292929" stroke-width="0.5"/>
<path d="M73.4823 67.2874L79.7177 65.4518L88.4159 94.9997L82.1804 96.8353L73.4823 67.2874Z" fill="#ACACAC" stroke="#292929" stroke-width="0.5"/>
<path d="M35.4258 114.199L93.4258 93.1992" stroke="#292929" stroke-width="0.5"/>
<path d="M19.2314 57.541L78.6168 40.8567" stroke="#292929" stroke-width="0.5"/>
<path d="M18.267 53.6582L77.5863 36.7401" stroke="#292929" stroke-width="0.5"/>
<path d="M17.2791 48.7085L76.5696 31.69" stroke="#292929" stroke-width="0.5"/>
<path d="M15.3402 43.9172L74.5099 26.4829" stroke="#292929" stroke-width="0.5"/>
<path d="M13.2467 38.5852L72.6075 21.8132" stroke="#292929" stroke-width="0.5"/>
<path d="M12.1141 34.1029L71.7392 18.2961" stroke="#292929" stroke-width="0.5"/>
<path d="M61.9258 12.1992L56.7942 17.6764L64.1034 19.3819L61.9258 12.1992ZM58.3617 27.2112L58.2419 26.5724L58.3617 27.2112ZM58.4406 27.1357L59.0736 27.2834L58.4406 27.1357ZM50.4836 28.6884L50.6034 29.3272L50.4836 28.6884ZM39.5447 37.7815L39.1747 38.3159L39.5447 37.7815ZM37.3515 45.7028L37.3825 46.352L37.3515 45.7028ZM26.9054 46.267L26.2829 46.0802L26.9054 46.267ZM24.5484 56.386L27.528 46.4538L26.2829 46.0802L23.3032 56.0124L24.5484 56.386ZM27.0274 46.8451L37.3825 46.352L37.3206 45.0535L26.9656 45.5466L27.0274 46.8451ZM38.0744 45.7848L40.0213 37.9971L38.7601 37.6818L36.8132 45.4695L38.0744 45.7848ZM39.1747 38.3159L45.4462 42.6577L46.1861 41.5889L39.9146 37.2471L39.1747 38.3159ZM46.5846 42.2783L51.0238 28.9606L49.7905 28.5495L45.3513 41.8672L46.5846 42.2783ZM50.6034 29.3272L58.4814 27.8501L58.2419 26.5724L50.3638 28.0495L50.6034 29.3272ZM59.0736 27.2834L61.2295 18.0439L59.9635 17.7485L57.8076 26.988L59.0736 27.2834ZM58.4814 27.8501C58.7737 27.7953 59.006 27.573 59.0736 27.2834L57.8076 26.988C57.8572 26.7756 58.0275 26.6126 58.2419 26.5724L58.4814 27.8501ZM51.0238 28.9606C50.9607 29.1501 50.7997 29.2904 50.6034 29.3272L50.3638 28.0495C50.0961 28.0997 49.8767 28.2911 49.7905 28.5495L51.0238 28.9606ZM45.4462 42.6577C45.8573 42.9424 46.4265 42.7526 46.5846 42.2783L45.3513 41.8672C45.4672 41.5193 45.8847 41.3802 46.1861 41.5889L45.4462 42.6577ZM40.0213 37.9971C39.9281 38.3701 39.4907 38.5348 39.1747 38.3159L39.9146 37.2471C39.4836 36.9487 38.8873 37.1733 38.7601 37.6818L40.0213 37.9971ZM37.3825 46.352C37.713 46.3363 37.9941 46.1058 38.0744 45.7848L36.8132 45.4695C36.8721 45.2341 37.0782 45.065 37.3206 45.0535L37.3825 46.352ZM27.528 46.4538C27.461 46.6772 27.2604 46.834 27.0274 46.8451L26.9656 45.5466C26.6479 45.5617 26.3743 45.7756 26.2829 46.0802L27.528 46.4538Z" fill="#FF0000"/>
<path d="M56.898 59.6036L52.4534 44.2944C52.4381 44.2417 52.4681 44.1865 52.5207 44.1707L77.3254 36.7293C77.3801 36.7129 77.4374 36.7455 77.4512 36.8008L81.4023 52.6054C81.4154 52.6577 81.3846 52.711 81.3328 52.7258L57.0215 59.6719C56.9686 59.687 56.9134 59.6565 56.898 59.6036Z" fill="#FFB6B6" stroke="#292929" stroke-width="0.5"/>
<path d="M55.4015 47.6022L54.95 45.7962C54.9366 45.7427 54.9692 45.6884 55.0228 45.675L56.8288 45.2235C56.8823 45.2101 56.9366 45.2427 56.95 45.2962L57.4015 47.1022C57.4149 47.1558 57.3823 47.2101 57.3288 47.2235L55.5228 47.675C55.4692 47.6884 55.4149 47.6558 55.4015 47.6022Z" fill="white" stroke="#292929" stroke-width="0.5"/>
<path d="M56.4015 51.6022L55.95 49.7962C55.9366 49.7427 55.9692 49.6884 56.0228 49.675L57.8288 49.2235C57.8823 49.2101 57.9366 49.2427 57.95 49.2962L58.4015 51.1022C58.4149 51.1558 58.3823 51.2101 58.3288 51.2235L56.5228 51.675C56.4692 51.6884 56.4149 51.6558 56.4015 51.6022Z" fill="white" stroke="#292929" stroke-width="0.5"/>
<path d="M57.4015 55.6022L56.95 53.7962C56.9366 53.7427 56.9692 53.6884 57.0228 53.675L58.8288 53.2235C58.8823 53.2101 58.9366 53.2427 58.95 53.2962L59.4015 55.1022C59.4149 55.1558 59.3823 55.2101 59.3288 55.2235L57.5228 55.675C57.4692 55.6884 57.4149 55.6558 57.4015 55.6022Z" fill="white" stroke="#292929" stroke-width="0.5"/>
<path d="M58.9007 46.5989L58.4492 44.7931C58.4362 44.7407 58.4669 44.6875 58.5188 44.6726L75.8264 39.7276C75.8807 39.7121 75.9371 39.7447 75.9509 39.7995L76.4023 41.6054C76.4154 41.6577 76.3846 41.711 76.3328 41.7258L59.0252 46.6708C58.9708 46.6863 58.9144 46.6538 58.9007 46.5989Z" fill="white" stroke="#292929" stroke-width="0.5"/>
<path d="M59.9007 50.5989L59.4492 48.7931C59.4362 48.7407 59.4669 48.6875 59.5188 48.6726L76.8264 43.7276C76.8807 43.7121 76.9371 43.7447 76.9509 43.7995L77.4023 45.6054C77.4154 45.6577 77.3846 45.711 77.3328 45.7258L60.0252 50.6708C59.9708 50.6863 59.9144 50.6538 59.9007 50.5989Z" fill="white" stroke="#292929" stroke-width="0.5"/>
<path d="M60.9007 54.5989L60.4492 52.7931C60.4362 52.7407 60.4669 52.6875 60.5188 52.6726L77.8264 47.7276C77.8807 47.7121 77.9371 47.7447 77.9509 47.7995L78.4023 49.6054C78.4154 49.6577 78.3846 49.711 78.3328 49.7258L61.0252 54.6708C60.9708 54.6863 60.9144 54.6538 60.9007 54.5989Z" fill="white" stroke="#292929" stroke-width="0.5"/>
<rect x="11.7379" y="52.9803" width="26.5" height="26.5" transform="rotate(7.65958 11.7379 52.9803)" fill="#FFD527" stroke="black" stroke-width="0.5"/>
<path d="M14.9258 60.6992L16.1777 59.656C16.8719 59.0775 17.9258 59.5711 17.9258 60.4747V60.5222C17.9258 61.2927 18.7366 61.7938 19.4258 61.4492L20.1842 61.07C20.5249 60.8997 20.9258 61.1474 20.9258 61.5283V61.5283C20.9258 61.8662 21.2471 62.1116 21.573 62.0227L25.4025 60.9783C26.0353 60.8057 26.712 60.9854 27.1758 61.4492V61.4492C27.6396 61.913 28.3163 62.0927 28.9491 61.9201L30.9661 61.37C32.2963 61.0073 33.6554 61.8472 33.9258 63.1992V63.1992" stroke="#292929" stroke-width="0.5"/>
<path d="M14.9258 67.1992L15.591 66.4469C16.1299 65.8374 17.1363 66.2186 17.1363 67.0321V67.3635C17.1363 67.9315 17.7716 68.2681 18.2416 67.9492L18.6421 67.6774C18.9418 67.4741 19.3468 67.6888 19.3468 68.0509V68.0509C19.3468 68.3652 19.6601 68.5833 19.9548 68.4742L22.5258 67.5226C23.0432 67.3311 23.6248 67.5051 23.9521 67.9492V67.9492C24.2794 68.3934 24.861 68.5673 25.3784 68.3758L26.1875 68.0764C27.4085 67.6244 28.736 68.4111 28.9258 69.6992V69.6992" stroke="#292929" stroke-width="0.5"/>
<path d="M28.4906 77.0458L27.9684 75.9713C27.5979 75.2089 26.4894 75.2795 26.2187 76.0828L26.14 76.316C25.9384 76.9144 25.1595 77.0614 24.7536 76.5777L24.3695 76.1201C24.1319 75.837 23.676 75.923 23.5579 76.2733V76.2733C23.4547 76.5795 23.082 76.6947 22.824 76.5002L20.3271 74.6173C19.8606 74.2656 19.2256 74.2378 18.7302 74.5475V74.5475C18.2348 74.8573 17.5997 74.8295 17.1333 74.4778L16.1349 73.7249C15.0735 72.9245 13.548 73.2633 12.9251 74.4377V74.4377" stroke="#292929" stroke-width="0.5"/>
</svg>
