<svg width="163" height="117" viewBox="0 0 163 117" fill="none" xmlns="http://www.w3.org/2000/svg">
<path d="M23.1283 54.7321C28.1742 45.3723 31.9895 41.9308 33.6443 41.2045C33.7967 41.1377 33.8422 40.9187 33.7144 40.812L32.1827 39.5326C32.0967 39.4608 31.9684 39.4736 31.8984 39.5611L24.2245 49.1473C24.2073 49.1688 24.1947 49.1936 24.1875 49.2202L22.7403 54.5853C22.6778 54.8168 23.0146 54.9431 23.1283 54.7321Z" fill="#FFD527" stroke="black" stroke-width="0.5"/>
<path d="M17.9348 52.8195L30.3984 38.9023C30.4541 38.8401 30.5427 38.8191 30.6205 38.8496L33.0043 39.7856C33.1832 39.8558 33.185 40.1457 33.0176 40.2401C29.6685 42.1296 22.9373 52.9558 19.6115 58.8032C19.5214 58.9615 19.2853 58.9244 19.2436 58.7471L17.8891 52.9988C17.8741 52.9351 17.8912 52.8682 17.9348 52.8195Z" fill="#FFD527" stroke="black" stroke-width="0.5"/>
<path d="M7.25606 47.6835C21.5353 42.9246 27.6695 39.2128 29.0425 37.8767C29.0855 37.8349 29.1413 37.8152 29.2011 37.8202L32.9161 38.128C33.0938 38.1428 33.1649 38.3652 33.0285 38.4802L11.7246 56.4522C11.6261 56.5353 11.4757 56.5048 11.4173 56.3899L7.13763 47.9651C7.08224 47.856 7.14002 47.7222 7.25606 47.6835Z" fill="#FFD527" stroke="black" stroke-width="0.5"/>
<path d="M28.5503 23.8082L93.5643 28.1286C93.6003 28.131 93.635 28.1431 93.6647 28.1636L155.887 71.154C155.963 71.2068 155.993 71.3052 155.959 71.3916L154.868 74.1702C154.835 74.2558 154.747 74.3074 154.656 74.2954L90.3778 65.8463C90.3502 65.8427 90.3236 65.8333 90.2998 65.8188L27.191 27.3416C27.1081 27.291 27.0734 27.1882 27.109 27.0978L28.3509 23.9346C28.3827 23.8535 28.4634 23.8024 28.5503 23.8082Z" fill="#222127" stroke="black" stroke-width="0.5"/>
<path d="M27.7842 27.3034L92.2088 31.5847C92.2448 31.5871 92.2795 31.5992 92.3092 31.6197L154.046 74.2749C154.215 74.3913 154.12 74.6556 153.916 74.6388L89.0328 69.3012C88.9985 69.2984 88.9654 69.2867 88.9369 69.2673L27.6586 27.6684C27.4898 27.5539 27.5807 27.2899 27.7842 27.3034Z" fill="#141417" stroke="black" stroke-width="0.5"/>
<mask id="path-6-inside-1_1655_57243" fill="white">
<path fill-rule="evenodd" clip-rule="evenodd" d="M124.257 64.093L114.608 88.6666L48.5663 62.7366L58.2146 38.163C58.2146 38.163 58.2147 38.1629 58.2147 38.1629C60.0468 33.4978 76.3155 35.5205 94.5522 42.6808C112.789 49.8411 126.088 59.4275 124.257 64.0929C124.257 64.0929 124.257 64.093 124.257 64.093Z"/>
</mask>
<path fill-rule="evenodd" clip-rule="evenodd" d="M124.257 64.093L114.608 88.6666L48.5663 62.7366L58.2146 38.163C58.2146 38.163 58.2147 38.1629 58.2147 38.1629C60.0468 33.4978 76.3155 35.5205 94.5522 42.6808C112.789 49.8411 126.088 59.4275 124.257 64.0929C124.257 64.0929 124.257 64.093 124.257 64.093Z" fill="#222127"/>
<path d="M114.608 88.6666L114.426 89.132L114.891 89.3147L115.074 88.8493L114.608 88.6666ZM48.5663 62.7366L48.1009 62.5539L47.9182 63.0193L48.3836 63.202L48.5663 62.7366ZM58.2147 38.1629L57.7493 37.9801L57.7493 37.9801L58.2147 38.1629ZM124.257 64.0929L124.722 64.2756L124.722 64.2755L124.257 64.0929ZM123.791 63.9103L114.143 88.4839L115.074 88.8493L124.722 64.2758L123.791 63.9103ZM114.791 88.2012L48.7491 62.2712L48.3836 63.202L114.426 89.132L114.791 88.2012ZM49.0317 62.9193L58.68 38.3458L57.7492 37.9803L48.1009 62.5539L49.0317 62.9193ZM58.68 38.3458C58.68 38.3457 58.6801 38.3457 58.6801 38.3457C58.6801 38.3457 58.6801 38.3456 58.6801 38.3456L57.7493 37.9801C57.7493 37.9802 57.7493 37.9802 57.7492 37.9802C57.7492 37.9803 57.7492 37.9803 57.7492 37.9803L58.68 38.3458ZM58.6801 38.3456C59.0357 37.4402 60.1515 36.7353 62.1853 36.3866C64.1842 36.0439 66.9044 36.0775 70.17 36.4835C76.6935 37.2946 85.2784 39.5768 94.3695 43.1462L94.735 42.2154C85.5893 38.6246 76.9215 36.3153 70.2934 35.4912C66.9832 35.0796 64.153 35.0347 62.0163 35.401C59.9145 35.7613 58.3098 36.553 57.7493 37.9801L58.6801 38.3456ZM94.3695 43.1462C103.461 46.7157 111.305 50.884 116.638 54.728C119.307 56.6523 121.323 58.4785 122.555 60.0896C123.808 61.7289 124.147 63.0047 123.791 63.9102L124.722 64.2755C125.282 62.8483 124.645 61.1763 123.35 59.4823C122.033 57.7601 119.928 55.8674 117.222 53.9168C111.804 50.0112 103.881 45.8062 94.735 42.2154L94.3695 43.1462ZM123.791 63.9101C123.791 63.9101 123.791 63.9101 123.791 63.9101C123.791 63.9101 123.791 63.9101 123.791 63.9101C123.791 63.9101 123.791 63.9101 123.791 63.9101C123.791 63.9101 123.791 63.9101 123.791 63.9101C123.791 63.9101 123.791 63.9101 123.791 63.9101C123.791 63.9101 123.791 63.9101 123.791 63.9101C123.791 63.9101 123.791 63.9101 123.791 63.9101C123.791 63.9101 123.791 63.9101 123.791 63.9101C123.791 63.9101 123.791 63.9101 123.791 63.9101C123.791 63.9101 123.791 63.9101 123.791 63.9101L123.791 63.9101C123.791 63.9101 123.791 63.9101 123.791 63.9101L123.791 63.9101C123.791 63.9101 123.791 63.9101 123.791 63.9101L123.791 63.9101C123.791 63.9101 123.791 63.9101 123.791 63.9101L123.791 63.9101C123.791 63.9101 123.791 63.9101 123.791 63.9101L123.791 63.9101C123.791 63.9101 123.791 63.9101 123.791 63.9101L123.791 63.9101C123.791 63.9101 123.791 63.9101 123.791 63.9101L123.791 63.9101C123.791 63.9101 123.791 63.9101 123.791 63.9101L123.791 63.9101C123.791 63.9101 123.791 63.9101 123.791 63.9101L123.791 63.9101C123.791 63.9101 123.791 63.9101 123.791 63.9101L123.791 63.9101C123.791 63.9101 123.791 63.9101 123.791 63.9101L123.791 63.9101C123.791 63.9101 123.791 63.9101 123.791 63.9101L123.791 63.9101C123.791 63.9101 123.791 63.9101 123.791 63.9101L123.791 63.9101C123.791 63.9101 123.791 63.9101 123.791 63.9101L123.791 63.9102C123.791 63.9102 123.791 63.9102 123.791 63.9102L123.791 63.9102C123.791 63.9102 123.791 63.9102 123.791 63.9102L123.791 63.9102C123.791 63.9102 123.791 63.9102 123.791 63.9102L123.791 63.9102C123.791 63.9102 123.791 63.9102 123.791 63.9102L123.791 63.9102C123.791 63.9102 123.791 63.9102 123.791 63.9102L123.791 63.9102C123.791 63.9102 123.791 63.9102 123.791 63.9102L123.791 63.9102C123.791 63.9102 123.791 63.9102 123.791 63.9102L123.791 63.9102C123.791 63.9102 123.791 63.9102 123.791 63.9102L123.791 63.9102C123.791 63.9102 123.791 63.9102 123.791 63.9102L123.791 63.9102C123.791 63.9102 123.791 63.9102 123.791 63.9102L123.791 63.9102C123.791 63.9102 123.791 63.9102 123.791 63.9102C123.791 63.9102 123.791 63.9102 123.791 63.9102C123.791 63.9102 123.791 63.9102 123.791 63.9102C123.791 63.9102 123.791 63.9102 123.791 63.9102C123.791 63.9102 123.791 63.9102 123.791 63.9102C123.791 63.9102 123.791 63.9102 123.791 63.9102C123.791 63.9102 123.791 63.9102 123.791 63.9102C123.791 63.9102 123.791 63.9102 123.791 63.9102C123.791 63.9102 123.791 63.9102 123.791 63.9102C123.791 63.9102 123.791 63.9102 123.791 63.9102C123.791 63.9102 123.791 63.9102 123.791 63.9102C123.791 63.9102 123.791 63.9102 123.791 63.9102C123.791 63.9102 123.791 63.9102 123.791 63.9102C123.791 63.9102 123.791 63.9102 123.791 63.9102C123.791 63.9102 123.791 63.9102 123.791 63.9102C123.791 63.9102 123.791 63.9102 123.791 63.9102C123.791 63.9102 123.791 63.9102 123.791 63.9102C123.791 63.9102 123.791 63.9102 123.791 63.9102C123.791 63.9102 123.791 63.9102 123.791 63.9102C123.791 63.9102 123.791 63.9102 123.791 63.9102C123.791 63.9102 123.791 63.9102 123.791 63.9102C123.791 63.9102 123.791 63.9102 123.791 63.9102C123.791 63.9102 123.791 63.9102 123.791 63.9102C123.791 63.9102 123.791 63.9102 123.791 63.9102C123.791 63.9102 123.791 63.9102 123.791 63.9102C123.791 63.9102 123.791 63.9102 123.791 63.9102L123.791 63.9102C123.791 63.9102 123.791 63.9102 123.791 63.9102L123.791 63.9102C123.791 63.9102 123.791 63.9102 123.791 63.9102L123.791 63.9102C123.791 63.9102 123.791 63.9102 123.791 63.9102L123.791 63.9102C123.791 63.9102 123.791 63.9102 123.791 63.9102L123.791 63.9102C123.791 63.9102 123.791 63.9102 123.791 63.9102L123.791 63.9102C123.791 63.9102 123.791 63.9102 123.791 63.9102L123.791 63.9102C123.791 63.9102 123.791 63.9102 123.791 63.9102L123.791 63.9102C123.791 63.9102 123.791 63.9102 123.791 63.9102L123.791 63.9102C123.791 63.9102 123.791 63.9102 123.791 63.9102L123.791 63.9102C123.791 63.9102 123.791 63.9102 123.791 63.9102L123.791 63.9102C123.791 63.9102 123.791 63.9102 123.791 63.9102L123.791 63.9102C123.791 63.9102 123.791 63.9102 123.791 63.9102L123.791 63.9102C123.791 63.9102 123.791 63.9102 123.791 63.9102L123.791 63.9102C123.791 63.9102 123.791 63.9102 123.791 63.9102L123.791 63.9102C123.791 63.9102 123.791 63.9102 123.791 63.9102L123.791 63.9102C123.791 63.9102 123.791 63.9102 123.791 63.9102L123.791 63.9102C123.791 63.9102 123.791 63.9102 123.791 63.9102L123.791 63.9102C123.791 63.9102 123.791 63.9102 123.791 63.9102L123.791 63.9102C123.791 63.9102 123.791 63.9102 123.791 63.9102L123.791 63.9102C123.791 63.9102 123.791 63.9102 123.791 63.9102C123.791 63.9102 123.791 63.9102 123.791 63.9102C123.791 63.9102 123.791 63.9102 123.791 63.9102C123.791 63.9102 123.791 63.9102 123.791 63.9102C123.791 63.9102 123.791 63.9102 123.791 63.9102C123.791 63.9102 123.791 63.9102 123.791 63.9102C123.791 63.9102 123.791 63.9102 123.791 63.9102C123.791 63.9102 123.791 63.9102 123.791 63.9102C123.791 63.9102 123.791 63.9102 123.791 63.9102C123.791 63.9102 123.791 63.9102 123.791 63.9102C123.791 63.9102 123.791 63.9102 123.791 63.9102C123.791 63.9102 123.791 63.9102 123.791 63.9102C123.791 63.9102 123.791 63.9102 123.791 63.9102C123.791 63.9102 123.791 63.9102 123.791 63.9102C123.791 63.9102 123.791 63.9102 123.791 63.9102C123.791 63.9102 123.791 63.9102 123.791 63.9102C123.791 63.9102 123.791 63.9102 123.791 63.9102C123.791 63.9102 123.791 63.9102 123.791 63.9102C123.791 63.9102 123.791 63.9102 123.791 63.9102C123.791 63.9102 123.791 63.9102 123.791 63.9102C123.791 63.9102 123.791 63.9102 123.791 63.9102C123.791 63.9102 123.791 63.9102 123.791 63.9102C123.791 63.9102 123.791 63.9102 123.791 63.9102C123.791 63.9102 123.791 63.9102 123.791 63.9102C123.791 63.9102 123.791 63.9102 123.791 63.9102C123.791 63.9102 123.791 63.9102 123.791 63.9102L123.791 63.9103C123.791 63.9103 123.791 63.9103 123.791 63.9103L123.791 63.9103C123.791 63.9103 123.791 63.9103 123.791 63.9103L123.791 63.9103C123.791 63.9103 123.791 63.9103 123.791 63.9103L123.791 63.9103C123.791 63.9103 123.791 63.9103 123.791 63.9103L123.791 63.9103C123.791 63.9103 123.791 63.9103 123.791 63.9103L123.791 63.9103C123.791 63.9103 123.791 63.9103 123.791 63.9103L123.791 63.9103C123.791 63.9103 123.791 63.9103 123.791 63.9103L123.791 63.9103C123.791 63.9103 123.791 63.9103 123.791 63.9103L123.791 63.9103C123.791 63.9103 123.791 63.9103 123.791 63.9103L123.791 63.9103C123.791 63.9103 123.791 63.9103 123.791 63.9103L123.791 63.9103C123.791 63.9103 123.791 63.9103 123.791 63.9103L123.791 63.9103C123.791 63.9103 123.791 63.9103 123.791 63.9103L123.791 63.9103C123.791 63.9103 123.791 63.9103 123.791 63.9103L123.791 63.9103C123.791 63.9103 123.791 63.9103 123.791 63.9103L123.791 63.9103C123.791 63.9103 123.791 63.9103 123.791 63.9103L123.791 63.9103C123.791 63.9103 123.791 63.9103 123.791 63.9103L123.791 63.9103C123.791 63.9103 123.791 63.9103 123.791 63.9103L123.791 63.9103C123.791 63.9103 123.791 63.9103 123.791 63.9103L123.791 63.9103C123.791 63.9103 123.791 63.9103 123.791 63.9103L123.791 63.9103C123.791 63.9103 123.791 63.9103 123.791 63.9103L123.791 63.9103C123.791 63.9103 123.791 63.9103 123.791 63.9103L123.791 63.9103C123.791 63.9103 123.791 63.9103 123.791 63.9103L123.791 63.9103C123.791 63.9103 123.791 63.9103 123.791 63.9103L123.791 63.9103C123.791 63.9103 123.791 63.9103 123.791 63.9103C123.791 63.9103 123.791 63.9103 123.791 63.9103C123.791 63.9103 123.791 63.9103 123.791 63.9103C123.791 63.9103 123.791 63.9103 123.791 63.9103C123.791 63.9103 123.791 63.9103 123.791 63.9103C123.791 63.9103 123.791 63.9103 123.791 63.9103C123.791 63.9103 123.791 63.9103 123.791 63.9103C123.791 63.9103 123.791 63.9103 123.791 63.9103C123.791 63.9103 123.791 63.9103 123.791 63.9103C123.791 63.9103 123.791 63.9103 123.791 63.9103L124.722 64.2758C124.722 64.2758 124.722 64.2758 124.722 64.2758C124.722 64.2758 124.722 64.2758 124.722 64.2758C124.722 64.2758 124.722 64.2758 124.722 64.2758C124.722 64.2758 124.722 64.2758 124.722 64.2758C124.722 64.2758 124.722 64.2758 124.722 64.2758C124.722 64.2758 124.722 64.2758 124.722 64.2758C124.722 64.2758 124.722 64.2758 124.722 64.2758C124.722 64.2758 124.722 64.2758 124.722 64.2758C124.722 64.2758 124.722 64.2758 124.722 64.2758C124.722 64.2758 124.722 64.2758 124.722 64.2758L124.722 64.2758C124.722 64.2758 124.722 64.2758 124.722 64.2758L124.722 64.2758C124.722 64.2758 124.722 64.2758 124.722 64.2758L124.722 64.2758C124.722 64.2758 124.722 64.2758 124.722 64.2758L124.722 64.2758C124.722 64.2758 124.722 64.2758 124.722 64.2758L124.722 64.2758C124.722 64.2758 124.722 64.2758 124.722 64.2758L124.722 64.2757C124.722 64.2757 124.722 64.2757 124.722 64.2757L124.722 64.2757C124.722 64.2757 124.722 64.2757 124.722 64.2757L124.722 64.2757C124.722 64.2757 124.722 64.2757 124.722 64.2757L124.722 64.2757C124.722 64.2757 124.722 64.2757 124.722 64.2757L124.722 64.2757C124.722 64.2757 124.722 64.2757 124.722 64.2757L124.722 64.2757C124.722 64.2757 124.722 64.2757 124.722 64.2757L124.722 64.2757C124.722 64.2757 124.722 64.2757 124.722 64.2757L124.722 64.2757C124.722 64.2757 124.722 64.2757 124.722 64.2757L124.722 64.2757C124.722 64.2757 124.722 64.2757 124.722 64.2757L124.722 64.2757C124.722 64.2757 124.722 64.2757 124.722 64.2757L124.722 64.2757C124.722 64.2757 124.722 64.2757 124.722 64.2757L124.722 64.2757C124.722 64.2757 124.722 64.2757 124.722 64.2757L124.722 64.2757C124.722 64.2757 124.722 64.2757 124.722 64.2757L124.722 64.2757C124.722 64.2757 124.722 64.2757 124.722 64.2757L124.722 64.2757C124.722 64.2757 124.722 64.2757 124.722 64.2757L124.722 64.2757C124.722 64.2757 124.722 64.2757 124.722 64.2757L124.722 64.2757C124.722 64.2757 124.722 64.2757 124.722 64.2757L124.722 64.2757C124.722 64.2757 124.722 64.2757 124.722 64.2757L124.722 64.2757C124.722 64.2757 124.722 64.2757 124.722 64.2757C124.722 64.2757 124.722 64.2757 124.722 64.2757C124.722 64.2757 124.722 64.2757 124.722 64.2757C124.722 64.2757 124.722 64.2757 124.722 64.2757C124.722 64.2757 124.722 64.2757 124.722 64.2757C124.722 64.2757 124.722 64.2757 124.722 64.2757C124.722 64.2757 124.722 64.2757 124.722 64.2757C124.722 64.2757 124.722 64.2757 124.722 64.2757C124.722 64.2757 124.722 64.2757 124.722 64.2757C124.722 64.2757 124.722 64.2757 124.722 64.2757C124.722 64.2757 124.722 64.2757 124.722 64.2757C124.722 64.2757 124.722 64.2757 124.722 64.2757C124.722 64.2757 124.722 64.2757 124.722 64.2757C124.722 64.2757 124.722 64.2757 124.722 64.2757C124.722 64.2757 124.722 64.2757 124.722 64.2757C124.722 64.2757 124.722 64.2757 124.722 64.2757C124.722 64.2757 124.722 64.2757 124.722 64.2757C124.722 64.2757 124.722 64.2757 124.722 64.2757C124.722 64.2757 124.722 64.2757 124.722 64.2757C124.722 64.2757 124.722 64.2757 124.722 64.2757C124.722 64.2757 124.722 64.2757 124.722 64.2757C124.722 64.2757 124.722 64.2757 124.722 64.2757C124.722 64.2757 124.722 64.2757 124.722 64.2757C124.722 64.2757 124.722 64.2757 124.722 64.2757C124.722 64.2757 124.722 64.2757 124.722 64.2757C124.722 64.2757 124.722 64.2757 124.722 64.2757L124.722 64.2757C124.722 64.2757 124.722 64.2757 124.722 64.2757L124.722 64.2757C124.722 64.2757 124.722 64.2757 124.722 64.2757L124.722 64.2757C124.722 64.2757 124.722 64.2757 124.722 64.2757L124.722 64.2757C124.722 64.2757 124.722 64.2757 124.722 64.2757L124.722 64.2757C124.722 64.2757 124.722 64.2757 124.722 64.2757L124.722 64.2757C124.722 64.2757 124.722 64.2757 124.722 64.2757L124.722 64.2757C124.722 64.2757 124.722 64.2757 124.722 64.2757L124.722 64.2757C124.722 64.2757 124.722 64.2757 124.722 64.2757L124.722 64.2757C124.722 64.2757 124.722 64.2757 124.722 64.2757L124.722 64.2757C124.722 64.2757 124.722 64.2757 124.722 64.2757L124.722 64.2757C124.722 64.2757 124.722 64.2757 124.722 64.2757L124.722 64.2757C124.722 64.2757 124.722 64.2757 124.722 64.2757L124.722 64.2757C124.722 64.2757 124.722 64.2757 124.722 64.2757L124.722 64.2757C124.722 64.2757 124.722 64.2757 124.722 64.2757L124.722 64.2757C124.722 64.2757 124.722 64.2757 124.722 64.2757L124.722 64.2757C124.722 64.2757 124.722 64.2757 124.722 64.2757L124.722 64.2757C124.722 64.2757 124.722 64.2757 124.722 64.2757L124.722 64.2757C124.722 64.2757 124.722 64.2757 124.722 64.2757L124.722 64.2757C124.722 64.2757 124.722 64.2757 124.722 64.2757L124.722 64.2757C124.722 64.2757 124.722 64.2757 124.722 64.2757C124.722 64.2757 124.722 64.2757 124.722 64.2757C124.722 64.2757 124.722 64.2757 124.722 64.2757C124.722 64.2757 124.722 64.2757 124.722 64.2757C124.722 64.2757 124.722 64.2757 124.722 64.2757C124.722 64.2757 124.722 64.2757 124.722 64.2757C124.722 64.2757 124.722 64.2757 124.722 64.2757C124.722 64.2757 124.722 64.2757 124.722 64.2757C124.722 64.2757 124.722 64.2757 124.722 64.2757C124.722 64.2757 124.722 64.2757 124.722 64.2757C124.722 64.2757 124.722 64.2757 124.722 64.2757C124.722 64.2756 124.722 64.2756 124.722 64.2756C124.722 64.2756 124.722 64.2756 124.722 64.2756C124.722 64.2756 124.722 64.2756 124.722 64.2756C124.722 64.2756 124.722 64.2756 124.722 64.2756C124.722 64.2756 124.722 64.2756 124.722 64.2756C124.722 64.2756 124.722 64.2756 124.722 64.2756C124.722 64.2756 124.722 64.2756 124.722 64.2756C124.722 64.2756 124.722 64.2756 124.722 64.2756C124.722 64.2756 124.722 64.2756 124.722 64.2756C124.722 64.2756 124.722 64.2756 124.722 64.2756C124.722 64.2756 124.722 64.2756 124.722 64.2756C124.722 64.2756 124.722 64.2756 124.722 64.2756C124.722 64.2756 124.722 64.2756 124.722 64.2756C124.722 64.2756 124.722 64.2756 124.722 64.2756C124.722 64.2756 124.722 64.2756 124.722 64.2756L124.722 64.2756C124.722 64.2756 124.722 64.2756 124.722 64.2756L124.722 64.2756C124.722 64.2756 124.722 64.2756 124.722 64.2756L124.722 64.2756C124.722 64.2756 124.722 64.2756 124.722 64.2756L124.722 64.2756C124.722 64.2756 124.722 64.2756 124.722 64.2756L124.722 64.2756C124.722 64.2756 124.722 64.2756 124.722 64.2756L124.722 64.2756C124.722 64.2756 124.722 64.2756 124.722 64.2756L124.722 64.2756C124.722 64.2756 124.722 64.2756 124.722 64.2756L124.722 64.2756C124.722 64.2756 124.722 64.2756 124.722 64.2756L124.722 64.2756C124.722 64.2756 124.722 64.2756 124.722 64.2756L124.722 64.2756C124.722 64.2756 124.722 64.2756 124.722 64.2756L124.722 64.2756C124.722 64.2756 124.722 64.2756 124.722 64.2756L124.722 64.2756C124.722 64.2756 124.722 64.2756 124.722 64.2756L124.722 64.2756C124.722 64.2756 124.722 64.2756 124.722 64.2756L124.722 64.2756C124.722 64.2756 124.722 64.2756 124.722 64.2756L124.722 64.2756C124.722 64.2756 124.722 64.2756 124.722 64.2756L124.722 64.2756C124.722 64.2756 124.722 64.2756 124.722 64.2756L124.722 64.2756C124.722 64.2756 124.722 64.2756 124.722 64.2756L124.722 64.2756C124.722 64.2756 124.722 64.2756 124.722 64.2756L124.722 64.2756C124.722 64.2756 124.722 64.2756 124.722 64.2756L124.722 64.2756C124.722 64.2756 124.722 64.2756 124.722 64.2756L124.722 64.2756C124.722 64.2756 124.722 64.2756 124.722 64.2756L124.722 64.2756C124.722 64.2756 124.722 64.2756 124.722 64.2756L124.722 64.2756C124.722 64.2756 124.722 64.2756 124.722 64.2756L124.722 64.2756C124.722 64.2756 124.722 64.2756 124.722 64.2756C124.722 64.2756 124.722 64.2756 124.722 64.2756C124.722 64.2756 124.722 64.2756 124.722 64.2756C124.722 64.2756 124.722 64.2756 124.722 64.2756C124.722 64.2756 124.722 64.2756 124.722 64.2756C124.722 64.2756 124.722 64.2756 124.722 64.2756C124.722 64.2756 124.722 64.2756 124.722 64.2756C124.722 64.2756 124.722 64.2756 124.722 64.2756C124.722 64.2756 124.722 64.2756 124.722 64.2756C124.722 64.2756 124.722 64.2756 124.722 64.2756L123.791 63.9101Z" fill="black" mask="url(#path-6-inside-1_1655_57243)"/>
<mask id="path-8-inside-2_1655_57243" fill="white">
<path fill-rule="evenodd" clip-rule="evenodd" d="M114.608 88.6673C116.44 84.002 103.141 74.4154 84.9038 67.255C66.6668 60.0947 50.3979 58.072 48.5662 62.7373L45.5511 70.4166L64.7964 77.9728C68.7957 80.1121 73.3536 82.219 78.2705 84.1495C83.1874 86.08 87.9613 87.6371 92.3477 88.7903L111.593 96.3465L114.608 88.6673Z"/>
</mask>
<path fill-rule="evenodd" clip-rule="evenodd" d="M114.608 88.6673C116.44 84.002 103.141 74.4154 84.9038 67.255C66.6668 60.0947 50.3979 58.072 48.5662 62.7373L45.5511 70.4166L64.7964 77.9728C68.7957 80.1121 73.3536 82.219 78.2705 84.1495C83.1874 86.08 87.9613 87.6371 92.3477 88.7903L111.593 96.3465L114.608 88.6673Z" fill="#FFD527"/>
<path d="M114.608 88.6673L115.074 88.85L114.608 88.6673ZM45.5511 70.4166L45.0857 70.2338L44.9029 70.6992L45.3683 70.882L45.5511 70.4166ZM64.7964 77.9728L65.0322 77.5319L65.0064 77.5181L64.9791 77.5074L64.7964 77.9728ZM92.3477 88.7903L92.5304 88.3249L92.5032 88.3142L92.4748 88.3067L92.3477 88.7903ZM111.593 96.3465L111.41 96.812L111.876 96.9947L112.058 96.5293L111.593 96.3465ZM84.721 67.7204C93.8123 71.2899 101.657 75.4584 106.989 79.3024C109.659 81.2267 111.675 83.0529 112.907 84.664C114.16 86.3033 114.498 87.5791 114.143 88.4845L115.074 88.85C115.634 87.4228 114.996 85.7508 113.701 84.0567C112.385 82.3345 110.28 80.4417 107.574 78.4912C102.156 74.5855 94.2322 70.3805 85.0865 66.7896L84.721 67.7204ZM49.0316 62.92C49.3871 62.0146 50.5029 61.3096 52.5366 60.9609C54.5355 60.6182 57.2557 60.6517 60.5213 61.0577C67.0448 61.8688 75.6298 64.151 84.721 67.7204L85.0865 66.7896C75.9408 63.1987 67.2728 60.8894 60.6447 60.0654C57.3345 59.6538 54.5043 59.6089 52.3676 59.9753C50.2659 60.3356 48.6611 61.1273 48.1008 62.5545L49.0316 62.92ZM46.0165 70.5993L49.0316 62.92L48.1008 62.5545L45.0857 70.2338L46.0165 70.5993ZM64.9791 77.5074L45.7338 69.9511L45.3683 70.882L64.6137 78.4382L64.9791 77.5074ZM78.4533 83.6841C73.5532 81.7602 69.0131 79.6614 65.0322 77.5319L64.5606 78.4137C68.5782 80.5628 73.154 82.6777 78.0878 84.6149L78.4533 83.6841ZM92.4748 88.3067C88.1086 87.1588 83.3533 85.608 78.4533 83.6841L78.0878 84.6149C83.0216 86.552 87.814 88.1153 92.2206 89.2738L92.4748 88.3067ZM111.776 95.8811L92.5304 88.3249L92.165 89.2557L111.41 96.812L111.776 95.8811ZM114.143 88.4845L111.128 96.1638L112.058 96.5293L115.074 88.85L114.143 88.4845Z" fill="black" mask="url(#path-8-inside-2_1655_57243)"/>
<path d="M111.364 96.2546C110.957 97.2905 109.719 98.0171 107.668 98.3687C105.635 98.7174 102.887 98.681 99.6104 98.2736C93.0608 97.4593 84.455 95.1703 75.3502 91.5955C66.2453 88.0207 58.3811 83.8431 53.0271 79.9836C50.3485 78.0528 48.31 76.2099 47.057 74.571C45.7934 72.9181 45.3805 71.5432 45.7872 70.5073C46.1939 69.4715 47.4319 68.7448 49.4826 68.3932C51.5159 68.0446 54.2637 68.0809 57.5404 68.4883C64.0901 69.3026 72.6958 71.5916 81.8007 75.1665C90.9056 78.7413 98.7698 82.9189 104.124 86.7783C106.802 88.7092 108.841 90.552 110.094 92.1909C111.358 93.8439 111.77 95.2187 111.364 96.2546Z" fill="#FFD527" stroke="black" stroke-width="0.5"/>
<path d="M108.443 94.6649C108.296 95.0381 107.972 95.3562 107.443 95.6069C106.913 95.8584 106.195 96.0328 105.299 96.1242C103.508 96.3069 101.064 96.1528 98.1311 95.6809C92.2699 94.7377 84.5135 92.5346 76.2548 89.292C67.996 86.0494 60.8126 82.3867 55.8755 79.0901C53.4053 77.4407 51.5089 75.8904 50.3208 74.5382C49.7265 73.8618 49.3187 73.2452 49.1011 72.7001C48.8842 72.1564 48.8632 71.7029 49.0097 71.3297C49.1562 70.9565 49.4802 70.6384 50.0091 70.3876C50.5395 70.1361 51.2578 69.9617 52.1535 69.8704C53.9443 69.6877 56.3888 69.8418 59.3214 70.3137C65.1826 71.2568 72.939 73.46 81.1977 76.7026C89.4565 79.9452 96.6398 83.6079 101.577 86.9045C104.047 88.5539 105.944 90.1041 107.132 91.4564C107.726 92.1328 108.134 92.7493 108.351 93.2945C108.568 93.8382 108.589 94.2917 108.443 94.6649Z" fill="#FFD527" stroke="black" stroke-width="0.5"/>
<path d="M54.1147 70.2346C67.7021 80.2947 87.8771 88.2131 105.456 90.3839C105.633 90.4058 105.739 90.2141 105.615 90.0849C104.245 88.6555 98.1932 83.1061 81.4917 76.5486C64.7576 69.9783 56.2474 69.8228 54.2078 69.9062C54.0278 69.9136 53.97 70.1275 54.1147 70.2346Z" fill="#222127" stroke="black" stroke-width="0.5"/>
<path d="M53.9357 25.3851C58.4609 21.5117 63.0643 24.0035 65.1337 26.0227C65.2648 26.1506 65.1588 26.362 64.9767 26.3431L57.8924 25.6091C57.851 25.6048 57.8092 25.6136 57.773 25.6342L36.2808 37.8472C36.2046 37.8906 36.1089 37.8792 36.045 37.8191L34.7318 36.5842C34.6337 36.492 34.653 36.3311 34.7701 36.2646L53.9037 25.4076C53.915 25.4012 53.9259 25.3935 53.9357 25.3851Z" fill="#FFD527" stroke="black" stroke-width="0.5"/>
<ellipse cx="33.0743" cy="38.402" rx="4.125" ry="3.25804" transform="rotate(41.2058 33.0743 38.402)" fill="#FFD527" stroke="black" stroke-width="0.5"/>
<path d="M11.35 56.3565C11.2456 56.4103 11.0771 56.4163 10.8185 56.2972C10.5635 56.1797 10.2616 55.9575 9.93288 55.6351C9.27747 54.9922 8.55647 53.9912 7.93402 52.783C7.31158 51.5749 6.91499 50.4067 6.77193 49.4999C6.70017 49.045 6.69453 48.6703 6.74692 48.3944C6.80004 48.1147 6.90266 47.981 7.0071 47.9272C7.11154 47.8733 7.28 47.8674 7.53859 47.9865C7.79365 48.104 8.09554 48.3261 8.42424 48.6486C9.07965 49.2915 9.80065 50.2925 10.4231 51.5006C11.0455 52.7088 11.4421 53.8769 11.5852 54.7838C11.6569 55.2386 11.6626 55.6134 11.6102 55.8893C11.5571 56.169 11.4545 56.3027 11.35 56.3565Z" fill="#FFD527" stroke="black" stroke-width="0.5"/>
<path d="M19.5423 58.6053C19.4656 58.6211 19.3569 58.6023 19.2105 58.4957C19.0641 58.389 18.9035 58.2098 18.7426 57.959C18.4218 57.4588 18.1293 56.7195 17.9522 55.86C17.775 55.0006 17.7513 54.2059 17.8481 53.6196C17.8967 53.3256 17.9734 53.0975 18.0657 52.9416C18.1579 52.7858 18.2503 52.7256 18.327 52.7098C18.4037 52.6939 18.5124 52.7127 18.6588 52.8194C18.8052 52.9261 18.9659 53.1052 19.1267 53.3561C19.4475 53.8562 19.74 54.5956 19.9171 55.455C20.0943 56.3144 20.1181 57.1092 20.0212 57.6954C19.9726 57.9894 19.8959 58.2176 19.8036 58.3734C19.7114 58.5293 19.619 58.5895 19.5423 58.6053Z" fill="#FFD527" stroke="black" stroke-width="0.5"/>
</svg>
