<?xml version="1.0" encoding="UTF-8"?>
<svg id="Layer_1" data-name="Layer 1" xmlns="http://www.w3.org/2000/svg" viewBox="0 0 67.85 68.6">
  <defs>
    <style>
      .cls-1 {
        fill: #fff;
        stroke: #000;
        stroke-miterlimit: 10;
      }

      .cls-2 {
        fill: #af24ff;
      }
    </style>
  </defs>
  <path class="cls-1" d="M57.11.59H10.86C5.24.59.68,5.15.68,10.77v35.76c0,5.62,4.56,10.18,10.18,10.18h13.94c.91,0,1.75.49,2.2,1.27l4.78,8.27c.98,1.7,3.43,1.7,4.41,0l4.78-8.27c.45-.79,1.29-1.27,2.2-1.27h13.94c5.62,0,10.18-4.56,10.18-10.18V10.77c0-5.62-4.56-10.18-10.18-10.18Z"/>
  <path class="cls-2" d="M36.24,26.26c1.78-1.1,3.14-2.63,3.14-4.88,0-2.67-2.04-4.33-4.58-4.33-2.29,0-4.5,1.4-4.71,4.54h-4.58c.17-5.39,4.24-8.36,9.29-8.36,5.51,0,9.21,3.31,9.21,8.14,0,3.39-1.61,5.68-4.33,7.34-2.55,1.53-3.52,3.1-3.61,6.53v.25h-4.33v-.25c.04-5.56,1.7-7.25,4.5-8.99ZM31.07,41.65c-.04-1.65,1.36-3.01,3.01-3.01s3.01,1.36,3.01,3.01-1.4,3.01-3.01,3.01-3.05-1.36-3.01-3.01Z"/>
</svg>