<?xml version="1.0" encoding="UTF-8"?>
<svg id="Layer_1" data-name="Layer 1" xmlns="http://www.w3.org/2000/svg" viewBox="0 0 338.45 752.34">
  <defs>
    <style>
      .cls-1 {
        fill: #fff;
      }

      .cls-1, .cls-2, .cls-3, .cls-4, .cls-5, .cls-6, .cls-7, .cls-8, .cls-9 {
        stroke: #000;
        stroke-linecap: round;
        stroke-width: 2.34px;
      }

      .cls-1, .cls-3, .cls-4, .cls-5, .cls-8, .cls-9 {
        stroke-miterlimit: 10;
      }

      .cls-2 {
        fill: #ff929b;
      }

      .cls-2, .cls-6, .cls-7 {
        stroke-linejoin: round;
      }

      .cls-3 {
        fill: #fff9dd;
      }

      .cls-5 {
        fill: #00c3b2;
      }

      .cls-6, .cls-8 {
        fill: #ffe3dc;
      }

      .cls-7, .cls-9 {
        fill: #f46182;
      }
    </style>
  </defs>
  <path class="cls-9" d="M214.72,97.43c-2.59-9.03-1.98-18.95,1.69-27.6,1.16-2.74,2.72-5.46,5.25-7.02l-12.46-9.05c-1.2,9.11-6.57,17.38-13.72,23.15-3.15,2.54-6.77,4.69-10.77,5.28l30.01,15.24Z"/>
  <path class="cls-8" d="M307.49,315.29c-1.24-17.89-4.34-36.16-13.32-51.42s-24.84-27.02-41.9-26.46l-60.36-2.53-119.18-3.48c-17.93-.56-34.61,11.2-44.05,26.46s-12.71,33.53-14.01,51.42c-.61,8.39-.83,16.82-.28,25.21.65,9.89,2.37,19.71,5.03,29.26,3.16,11.34,7.67,22.44,8.62,34.18.68,8.41-.5,16.84-1.52,25.21-1.4,11.57-2.5,23.17-3.28,34.79-.16,2.35.05,5.3,2.22,6.2,2.98,1.24,5.35-2.7,6.19-5.82.78,5.26,1.55,10.52,2.33,15.78.43,2.91,2.48,6.78,5.13,5.51,3.76-1.81-1.1-9.48,4.13-9.44-.84,12.11,5.13,23.53,10.95,34.17,20.89,38.18,42.56,76.92,50.83,119.65,1.2,6.21,2.11,12.6.99,18.82-1.12,6.22-4.58,12.31-10.22,15.18-8.78,4.47-20.65.39-27.99,6.23-6.38,5.95-8.59,17.1-2.51,23.36,4.67,4.82,12.15,5.18,18.34,7.77,9.6,4,17.57,13.86,27.89,12.59,4.44-.54,8.32-3.16,12.01-5.69,6.81-4.69,13.62-9.37,20.44-14.06,6.84-4.7,13.85-9.61,18.93-16.07.23.53.48,1.06.75,1.55,4.77,8.77,12.96,14.79,20.87,20.52,6.48,4.69,12.96,9.37,19.44,14.06,3.51,2.54,7.19,5.15,11.42,5.69,9.82,1.27,17.4-8.59,26.52-12.59,5.89-2.58,13-2.95,17.45-7.77,5.78-6.27,3.68-17.41-2.39-23.36-6.98-5.85-18.27-1.76-26.62-6.23-5.36-2.87-8.65-8.96-9.72-15.18s-.2-12.62.94-18.82c7.86-42.73,28.48-81.47,48.35-119.65,5.54-10.65,11.21-22.06,10.41-34.17,4.97-.05.35,7.63,3.93,9.44,2.52,1.28,4.47-2.6,4.88-5.51.74-5.26,1.48-10.52,2.21-15.78.8,3.12,3.05,7.06,5.89,5.82,2.07-.9,2.26-3.85,2.11-6.2-.75-11.62-1.79-23.23-3.12-34.79-.97-8.37-2.09-16.8-1.44-25.21.9-11.73,5.19-22.84,8.2-34.18,2.53-9.55,4.17-19.37,4.78-29.26.52-8.39.31-16.82-.27-25.21ZM172.89,639.55c.76,5.51.95,12.28-3.48,15.34-.46.32-.95.57-1.45.81-.51-1.74-1.49-3.26-3.08-4.33-1.56-1.04-3.47-1.45-5.03-2.48-4.65-3.06-4.45-9.83-3.65-15.34,4.6-31.85,11.6-64.15,26.91-92.22,7.82,29.3-14.66,65.88-10.22,98.22Z"/>
  <path class="cls-3" d="M241.33,135.78c-6.57-14.26-14.6-28.26-26.48-38.53-25.22-21.78-63.55-22.36-94.52-10.05-9.06,3.6-17.89,8.29-24.63,15.34-6.17,6.45-10.33,14.63-12.87,23.18-5.39,18.12-3.54,38.28,3.81,57.02-8.47,3.22-13.64,11.79-16.91,20.24-4.9,12.64-6.62,28.1,1.66,38.84,7.59,9.84,21.23,12.67,34.5,12.17-.25,10,5.17,19.58,12.84,26,7.67,6.42,17.37,9.97,27.17,11.96,2.83.57,5.77,1.02,8.58.34,3.1-.75,5.69-2.8,8.14-4.84,5.53-4.6,10.91-9.52,14.87-15.53,3.96-6.01,6.4-13.26,5.24-19.68,10.88,4.7,22.33,8.65,34.17,8.98,11.85.33,24.24-3.39,32.31-12.07,6.27-6.75,9.46-15.96,10.19-25.15.73-9.19-.82-18.41-3.25-28.5,6.98-4.72,12.82-11.33,15.89-19.18,3.07-7.85,3.19-16.97-.39-24.6-4.89-10.42-16.84-17.04-28.27-15.68l-2.04-.27Z"/>
  <path class="cls-7" d="M206.61,149.4c0-.18.32.03.2.16s-.33.06-.49-.03c-.54-.3-1.06-.66-1.57-1.01-2.66-1.8-5.48-3.36-8.43-4.65-1.44-.63-2.93-1.2-4.49-1.3-3.09-.19-5.95,1.48-8.85,3.81-.33-5.68,2.84-11.41,7.82-14.16-1.03,2.3-1.44,4.89-1.15,7.4.59-1.55,1.65-2.91,3-3.87.51,1.43,1.02,2.86,1.53,4.3.18-1.26.57-2.49,1.16-3.63.65,1.56,1.47,3.04,2.45,4.42.38-1.89.94-3.74,1.65-5.53,1.43,2.9,2.53,5.96,3.3,9.1-.04-2.47.88-4.94,2.52-6.78,1.35,3.86,1.65,8.09.84,12.11"/>
  <ellipse class="cls-5" cx="220.27" cy="51.12" rx="11.68" ry="35.7" transform="translate(40.52 188.32) rotate(-50.42)"/>
  <ellipse class="cls-9" cx="221.04" cy="50.2" rx="7.84" ry="31.59" transform="translate(41.51 188.57) rotate(-50.42)"/>
  <path class="cls-9" d="M227.08,49.21c-.88,1.33-2.4,2.16-3.99,2.04,0,0-.02,0-.03,0-1.23-.1-2.47-.56-3.27-1.5-.32-.37-.55-.83-.67-1.36-.32-1.39.3-2.82,1.4-3.72,4.54-3.71,10.04-6.12,15-9.3.31-.2.67.17.47.48l-8.9,13.37Z"/>
  <ellipse class="cls-1" cx="140.05" cy="187.1" rx="22.48" ry="32.62"/>
  <ellipse class="cls-4" cx="141.89" cy="187.1" rx="10.34" ry="17.9"/>
  <ellipse class="cls-1" cx="190.58" cy="187.1" rx="22.48" ry="32.62"/>
  <ellipse class="cls-4" cx="191.69" cy="187.1" rx="10.34" ry="17.9"/>
  <path class="cls-8" d="M42.72,472.07c4.39,1.56,3.33,10.55,7.99,10.43,3.41-.09,3.74-5.03,3.01-8.36-10.29-46.6-4.46-96.59,16.27-139.58"/>
  <path class="cls-8" d="M280.27,475.97c-2.26.94-4.51,1.88-6.77,2.83-2.27-6.67-1.59-13.93-1.22-20.97,2.11-39.56-6.61-79.64-24.95-114.75"/>
  <path class="cls-8" d="M168.43,655.27c-2.6,1.67-4.07,4.63-5.06,7.56-.57,1.69-1.03,3.46-.99,5.25.06,2.61,1.18,5.06,2.28,7.43"/>
  <path class="cls-8" d="M110.99,474.12c-4.49,12.39-2.28,26.41,3.13,38.42,5.42,12.01,13.8,22.4,22.1,32.63-1.5-6.14-3.01-12.41-2.45-18.7.56-6.29,3.57-12.72,9.13-15.73,3.31,10.07,10.3,18.88,19.35,24.4.1-6.81,3.1-13.53,8.1-18.16.59,12.16,7.74,23.81,18.33,29.83-2.01-14.06,2.82-28.94,12.7-39.14,1.63,4.65,3.32,9.42,6.5,13.19,3.18,3.77,8.23,6.37,13.03,5.26.23-10.58,1.85-21.13,4.8-31.29,4.14,2.61,8.54,5.06,13.39,5.71s10.26-.85,13.09-4.84c-1.17-10.51-1.8-21.08-1.9-31.65,2.42,3.01,6.77,4.31,10.44,3.12"/>
  <path class="cls-8" d="M108.97,306.53c-17.6,28.36-26.77,61.89-26.04,95.26.33,15.28,4.99,33.44,19.51,38.22-1.39-11.01-2.78-22.26-.53-33.13,2.25-10.87,8.83-21.48,19.15-25.56-5.25,11.27-2.1,25.86,7.33,33.96.5-7,1.03-14.15,3.74-20.63,2.72-6.48,8.06-12.27,14.95-13.63-2.87,9.17-.14,19.86,6.79,26.52,2.49-11.11,6.65-21.84,12.31-31.71,7.71,5.45,15.43,10.9,23.14,16.35,1.59-8.51,1.59-17.32-.01-25.83,7.12,11.67,17.29,21.46,29.23,28.12,1.86-8.85,1.58-18.14-.79-26.87,5.56,4.07,11.12,8.14,16.67,12.21-.29-24.26-8.67-48.36-23.49-67.58"/>
  <path class="cls-7" d="M141.89,141.46c-7.22-1.01-14.82.96-20.64,5.35-5.82,4.39-9.8,11.16-11.21,17.52-.6-4.31-1.21-8.65-.88-12.99s1.67-8.72,4.54-11.99c-.28,3.21.5,6.5,2.19,9.24-.15-4.12,1.73-8.27,4.92-10.88-.07,1.47.55,2.95,1.63,3.94-.01-1.17.2-2.35.63-3.44,1.3.41,2.52,1.09,3.56,1.97-.69-1.4-.72-3.11-.08-4.54-.89-2.4-1.78-4.79-2.67-7.19,3.06,2.94,5.9,6.11,8.48,9.48.01-1.16.03-2.33.04-3.49,1.58.56,2.93,1.75,3.69,3.25.04-1.02.09-2.05.13-3.07,2.45,1.83,4.38,4.34,5.53,7.17"/>
  <ellipse class="cls-2" cx="67.03" cy="680.18" rx="10.68" ry="17.02"/>
  <ellipse class="cls-2" cx="82.89" cy="690.19" rx="10.68" ry="17.02"/>
  <ellipse class="cls-2" cx="102.61" cy="702.48" rx="12.35" ry="17.02"/>
  <path class="cls-7" d="M67.22,683.78c-3.62.33-7.07,2.23-9.28,5.12-2.21,2.89-3.14,6.71-2.51,10.29,1.86-2.02,4.92-2.25,7.66-2.33,1.33-.04,2.65-.08,3.98-.12.74-2.11,1.49-4.25,1.67-6.48.19-2.23-.25-4.6-1.65-6.34"/>
  <path class="cls-7" d="M82.14,693.09c-2.81.24-5.17,2.4-6.43,4.92s-1.6,5.39-1.88,8.2c-.1,1.03-.19,2.13.31,3.04.94-1.29,2.57-1.95,4.16-2.09,1.6-.14,3.19.18,4.76.5,2.29-2.66,3.35-6.34,2.84-9.81-.15-1.04-.45-2.08-1.06-2.93s-1.57-1.5-2.62-1.55"/>
  <path class="cls-7" d="M100.26,708.35c-2.72.8-5.11,2.65-6.56,5.08-1.45,2.43-1.95,5.41-1.36,8.18.5-.99,1.5-1.64,2.56-1.97,1.06-.33,2.18-.37,3.28-.41,1.62-.06,3.24-.11,4.86-.17,1.25-2.81,1.04-6.21-.53-8.85-.52-.88-1.24-1.71-2.22-2.01"/>
  <ellipse class="cls-2" cx="258.07" cy="686.98" rx="11.22" ry="17.02"/>
  <ellipse class="cls-2" cx="241.42" cy="696.99" rx="11.22" ry="17.02"/>
  <ellipse class="cls-2" cx="220.7" cy="709.29" rx="12.97" ry="17.02"/>
  <path class="cls-7" d="M257.88,690.59c3.8.33,7.43,2.23,9.74,5.12,2.32,2.89,3.3,6.71,2.64,10.29-1.95-2.02-5.17-2.25-8.05-2.33-1.39-.04-2.78-.08-4.18-.12-.78-2.11-1.56-4.25-1.76-6.48s.26-4.6,1.73-6.34"/>
  <path class="cls-7" d="M242.2,699.9c2.95.24,5.43,2.4,6.75,4.92,1.32,2.52,1.68,5.39,1.98,8.2.11,1.03.2,2.13-.33,3.04-.99-1.29-2.7-1.95-4.37-2.09-1.68-.14-3.35.18-5,.5-2.4-2.66-3.52-6.34-2.98-9.81.16-1.04.47-2.08,1.11-2.93.64-.85,1.65-1.5,2.75-1.55"/>
  <path class="cls-7" d="M223.18,715.15c2.85.8,5.37,2.65,6.89,5.08,1.53,2.43,2.05,5.41,1.43,8.18-.53-.99-1.58-1.64-2.69-1.97-1.11-.33-2.29-.37-3.45-.41-1.7-.06-3.4-.11-5.11-.17-1.31-2.81-1.1-6.21.55-8.85.55-.88,1.31-1.71,2.33-2.01"/>
  <path class="cls-6" d="M116.98,638.87c.25,5.39-1.73,10.69-4.62,15.25-2.9,4.55-6.69,8.46-10.45,12.32,6.91-1.6,12.44-6.59,17.65-11.4,1.05,2.9,1.01,6.18-.11,9.05,1.77.36,3.38-1.1,4.35-2.62.97-1.52,1.72-3.3,3.25-4.26.04.77.09,1.58.48,2.25.38.67,1.21,1.16,1.94.89.43-.16.74-.53,1.02-.89,2.35-3.03,4.36-6.32,5.99-9.79"/>
  <path class="cls-6" d="M207.73,624.58c-2.99,4.86-5.39,10.28-5.59,15.98-.23,6.46,2.35,12.65,4.88,18.59-5.32-4.86-10-10.4-13.9-16.45-.9,3.97-.72,8.19.51,12.07-1.63-1.72-2.65-4.01-2.84-6.37-.07-.9-.03-1.82-.31-2.68-.28-.86-.98-1.67-1.88-1.71-.87,3.19-1.75,6.38-2.62,9.58-1.27-4.25-1.89-8.7-1.83-13.14"/>
</svg>