<svg width="110" height="36" viewBox="0 0 110 36" fill="none" xmlns="http://www.w3.org/2000/svg">
<rect y="0.5" width="110" height="35" rx="8" fill="#F0F3FA"/>
<path d="M18.6484 11.6328C18.6309 13.7246 21.1973 15.6934 24.291 16.0977L23.6406 17.4688C21.0654 17.0557 18.7979 15.7197 17.7871 13.8652C16.75 15.7285 14.4912 17.0557 11.9336 17.4688L11.2656 16.0977C14.3594 15.6934 16.8906 13.7422 16.9082 11.6328V10.7715H18.6484V11.6328ZM24.9414 19.0156V20.3867H18.543V25.9941H16.9082V20.3867H10.5801V19.0156H24.9414ZM33.5814 11.1758V15.6758H28.097V17.6973C30.8304 17.6885 32.764 17.5918 35.058 17.2051L35.2338 18.5586C32.7904 18.9805 30.7162 19.0684 27.6927 19.0684H26.4271V14.375H31.9466V12.5293H26.4095V11.1758H33.5814ZM38.1517 10.2617V14.1992H40.4545V15.5879H38.1517V19.8242H36.4818V10.2617H38.1517ZM38.1517 20.6152V25.9766H36.4818V21.9688H27.7455V20.6152H38.1517Z" fill="#111111"/>
<circle cx="88" cy="18" r="9" fill="#54B8A7"/>
</svg>
