<svg width="110" height="35" viewBox="0 0 110 35" fill="none" xmlns="http://www.w3.org/2000/svg">
<rect width="110" height="35" rx="8" fill="#F0F3FA"/>
<path d="M24.9941 22.1367V23.5254H10.5801V22.1367H16.9258V18.498H12.2324V11.0098H23.2715V18.498H18.5781V22.1367H24.9941ZM13.8496 12.3457V17.1797H21.6367V12.3457H13.8496ZM31.6127 12.2578C31.6127 14.209 33.142 16.0371 35.5677 16.7402L34.724 18.041C32.8871 17.4873 31.4984 16.2832 30.7865 14.7363C30.0746 16.3887 28.6683 17.6982 26.7787 18.3223L25.9349 17.0039C28.3783 16.248 29.9076 14.332 29.9252 12.2578V12.082H26.392V10.7285H35.0755V12.082H31.6127V12.2578ZM38.8373 9.74414V18.2695H37.1673V9.74414H38.8373ZM30.1713 19.0078V20.7656H37.1849V19.0078H38.8373V25.3008H28.5365V19.0078H30.1713ZM30.1713 23.9473H37.1849V22.084H30.1713V23.9473ZM45.7546 10.4473C48.0573 10.4473 49.6745 11.7129 49.6921 13.5938C49.6745 15.1934 48.4616 16.3711 46.6335 16.6523V18.041C48.031 17.9707 49.4284 17.8477 50.7292 17.6543L50.8523 18.8848C47.5476 19.4824 43.8386 19.5352 41.1316 19.5352L40.9558 18.1816C42.1335 18.1904 43.5134 18.1816 44.9636 18.1289V16.6699C43.0827 16.4062 41.8171 15.2197 41.8347 13.5938C41.8171 11.7129 43.4519 10.4473 45.7546 10.4473ZM45.7546 11.7305C44.3659 11.7305 43.3816 12.4512 43.3991 13.5938C43.3816 14.7012 44.3659 15.4395 45.7546 15.4395C47.1609 15.4395 48.1101 14.7012 48.1101 13.5938C48.1101 12.4512 47.1609 11.7305 45.7546 11.7305ZM53.3659 9.76172V14.9648H55.6159V16.3711H53.3659V21.8027H51.696V9.76172H53.3659ZM53.9284 23.7891V25.1602H43.1882V20.748H44.8581V23.7891H53.9284ZM70.5841 22.207V23.6133H56.17V22.207H60.1075V19.4297H57.9278V14.4199H67.1739V12.2227H57.8927V10.8516H68.8262V15.7734H59.5802V18.0586H69.1954V19.4297H66.8048V22.207H70.5841ZM61.7247 22.207H65.17V19.4297H61.7247V22.207Z" fill="#93A5BE"/>
<circle cx="88" cy="17.5" r="9" fill="#A9A9A9"/>
</svg>
