<svg width="110" height="36" viewBox="0 0 110 36" fill="none" xmlns="http://www.w3.org/2000/svg">
<rect y="0.5" width="110" height="35" rx="8" fill="#F0F3FA"/>
<path d="M16.5566 13.4082C16.5566 15.377 17.9102 17.3105 20.4414 18.1016L19.4395 19.6309C17.6377 19.042 16.3281 17.8555 15.6074 16.3438C14.8867 17.9873 13.542 19.2969 11.6523 19.9473L10.6504 18.4004C13.1992 17.5566 14.5703 15.5 14.5879 13.4082V12.9512H11.1602V11.3867H19.8965V12.9512H16.5566V13.4082ZM23.7637 10.1914V21.7227H21.7949V10.1914H23.7637ZM24.2031 24.166V25.748H13.252V20.668H15.2207V24.166H24.2031ZM39.3119 10.1738V20.1582H37.4486V15.834H35.9017V19.6309H34.0736V10.4902H35.9017V14.252H37.4486V10.1738H39.3119ZM33.5463 11.8965V13.4258H25.6361V11.8965H28.642V10.3145H30.5755V11.8965H33.5463ZM29.6088 14.0762C31.6302 14.0762 33.0541 15.166 33.0716 16.8184C33.0541 18.4707 31.6302 19.5605 29.6088 19.5605C27.6224 19.5605 26.181 18.4707 26.1986 16.8184C26.181 15.166 27.6224 14.0762 29.6088 14.0762ZM29.6088 15.4824C28.6244 15.4824 27.9388 15.9922 27.9388 16.8184C27.9388 17.6445 28.6068 18.1543 29.6088 18.1543C30.6107 18.1543 31.2963 17.6445 31.2963 16.8184C31.2963 15.9922 30.6107 15.4824 29.6088 15.4824ZM33.9505 20.3516C37.3431 20.3516 39.3822 21.3887 39.3998 23.2168C39.3822 25.0098 37.3431 26.0469 33.9505 26.0469C30.558 26.0469 28.5013 25.0098 28.5013 23.2168C28.5013 21.3887 30.558 20.3516 33.9505 20.3516ZM33.9505 21.8457C31.683 21.8281 30.4525 22.2852 30.4525 23.2168C30.4525 24.0957 31.683 24.5527 33.9505 24.5527C36.2005 24.5527 37.431 24.0957 37.431 23.2168C37.431 22.2852 36.2005 21.8281 33.9505 21.8457ZM55.405 17.4688V19.0508H49.112V20.3691C51.9597 20.5625 53.6296 21.5469 53.6472 23.1992C53.6296 25.0273 51.573 26.0469 48.1452 26.0469C44.6823 26.0469 42.6081 25.0273 42.6081 23.1992C42.6081 21.5469 44.2956 20.5537 47.1784 20.3691V19.0508H40.9206V17.4688H55.405ZM48.1452 21.8457C45.8249 21.8633 44.5769 22.3203 44.5945 23.1992C44.5769 24.0781 45.8249 24.5527 48.1452 24.5527C50.4128 24.5527 51.6784 24.0781 51.696 23.1992C51.6784 22.3203 50.4128 21.8633 48.1452 21.8457ZM54.1042 10.877V12.4414H49.5339C49.8415 13.751 51.74 14.9287 54.7195 15.2012L54.0339 16.748C51.1511 16.458 49.0066 15.3066 48.1452 13.6895C47.2839 15.2979 45.1745 16.458 42.2917 16.748L41.6238 15.2012C44.5417 14.9287 46.4402 13.7334 46.7741 12.4414H42.239V10.877H54.1042Z" fill="#6C54F7"/>
<circle cx="88" cy="18" r="9" fill="#B0E601"/>
</svg>
