<svg width="110" height="36" viewBox="0 0 110 36" fill="none" xmlns="http://www.w3.org/2000/svg">
<rect y="0.5" width="110" height="35" rx="8" fill="#F0F3FA"/>
<path d="M23.6934 10.2441V25.9941H22.041V17.8555H18.5078V16.4844H22.041V10.2441H23.6934ZM18.5605 11.9316C18.543 16.502 16.7676 20.4219 11.4238 23.0762L10.5449 21.7578C14.7197 19.7188 16.5742 16.8799 16.873 13.2676H11.248V11.9316H18.5605ZM31.3666 12.6172C31.3666 14.4102 32.808 16.1855 35.1459 16.8887L34.3548 18.207C32.5531 17.6533 31.2347 16.4844 30.558 15.0254C29.8373 16.6514 28.4486 17.9697 26.6029 18.5762L25.7767 17.2578C28.1498 16.4668 29.6966 14.5156 29.6966 12.5996V12.3535H26.2689V11H34.7591V12.3535H31.3666V12.6172ZM38.89 10.2441V18.3477H37.2377V15.0254H34.3021V13.6719H37.2377V10.2441H38.89ZM38.89 19.0684V23.0059H30.2943V24.5H39.4525V25.8184H28.6244V21.7402H37.2377V20.4043H28.5892V19.0684H38.89Z" fill="#93A5BE"/>
<circle cx="88" cy="18" r="9" fill="#A9A9A9"/>
</svg>
