<svg width="110" height="35" viewBox="0 0 110 35" fill="none" xmlns="http://www.w3.org/2000/svg">
<rect width="110" height="35" rx="8" fill="#F0F3FA"/>
<path d="M36.3417 9.67383V25.5645H34.4784V17.4609H32.6855V24.7559H30.8925V9.97266H32.6855V15.8965H34.4784V9.67383H36.3417ZM29.0995 11.5547V13.1367H25.1269V20.2031C26.8583 20.1855 28.2822 20.0977 29.8905 19.7988L30.0312 21.3984C28.1152 21.7852 26.4452 21.8379 24.2304 21.8555H23.1581V11.5547H29.0995ZM51.1341 9.67383V25.5645H49.1653V9.67383H51.1341ZM46.388 11.3613C46.388 16.0898 44.5598 20.1152 38.9876 22.752L37.968 21.1875C42.1253 19.21 44.0589 16.5205 44.4016 12.9082H38.7766V11.3613H46.388ZM71.4551 16.9688V18.5508H65.1621V19.8691C68.0098 20.0625 69.6797 21.0469 69.6973 22.6992C69.6797 24.5273 67.623 25.5469 64.1953 25.5469C60.7324 25.5469 58.6582 24.5273 58.6582 22.6992C58.6582 21.0469 60.3457 20.0537 63.2285 19.8691V18.5508H56.9707V16.9688H71.4551ZM64.1953 21.3457C61.875 21.3633 60.627 21.8203 60.6445 22.6992C60.627 23.5781 61.875 24.0527 64.1953 24.0527C66.4629 24.0527 67.7285 23.5781 67.7461 22.6992C67.7285 21.8203 66.4629 21.3633 64.1953 21.3457ZM70.1543 10.377V11.9414H65.584C65.8916 13.251 67.79 14.4287 70.7695 14.7012L70.084 16.248C67.2012 15.958 65.0566 14.8066 64.1953 13.1895C63.334 14.7979 61.2246 15.958 58.3418 16.248L57.6738 14.7012C60.5918 14.4287 62.4902 13.2334 62.8242 11.9414H58.2891V10.377H70.1543Z" fill="#111111"/>
<circle cx="88" cy="17.5" r="9" fill="#FF9440"/>
</svg>
