<?xml version="1.0" encoding="UTF-8"?>
<svg id="Layer_5" data-name="Layer 5" xmlns="http://www.w3.org/2000/svg" viewBox="0 0 212.6 501.73">
  <defs>
    <style>
      .cls-1, .cls-2 {
        fill: #1bb700;
      }

      .cls-1, .cls-2, .cls-3, .cls-4 {
        stroke: #000;
        stroke-linecap: round;
        stroke-width: 1.65px;
      }

      .cls-1, .cls-4 {
        stroke-linejoin: round;
      }

      .cls-2, .cls-3 {
        stroke-miterlimit: 10;
      }

      .cls-3 {
        fill: #fff;
      }

      .cls-4 {
        fill: #748ab0;
      }
    </style>
  </defs>
  <path class="cls-2" d="M144.46,51.49c-1.83-6.38-1.4-13.38,1.19-19.49.82-1.93,1.92-3.86,3.71-4.96l-8.8-6.39c-.85,6.44-4.64,12.28-9.69,16.35-2.22,1.79-4.78,3.31-7.6,3.73l21.19,10.76Z"/>
  <path class="cls-2" d="M209.97,205.33c-.87-12.64-3.07-25.54-9.41-36.31-6.34-10.77-17.54-19.08-29.59-18.68l-42.62-1.78-84.16-2.46c-12.66-.39-24.44,7.91-31.11,18.68-6.67,10.77-8.97,23.67-9.89,36.31-.43,5.92-.59,11.88-.2,17.81.46,6.99,1.67,13.92,3.55,20.67,2.23,8.01,5.42,15.85,6.09,24.13.48,5.94-.35,11.89-1.07,17.8-.99,8.17-1.76,16.36-2.32,24.57-.11,1.66.03,3.74,1.57,4.38,2.1.87,3.78-1.91,4.37-4.11.55,3.72,1.1,7.43,1.64,11.15.3,2.06,1.75,4.79,3.63,3.89,2.66-1.28-.78-6.7,2.92-6.66-.59,8.55,3.62,16.61,7.73,24.13,14.75,26.96,30.06,54.32,35.9,84.49.85,4.38,1.49,8.9.7,13.29-.79,4.39-3.24,8.69-7.21,10.72-6.2,3.16-14.59.27-19.77,4.4-4.51,4.2-6.07,12.07-1.77,16.5,3.3,3.4,8.58,3.66,12.95,5.49,6.78,2.83,12.4,9.79,19.69,8.89,3.14-.38,5.87-2.23,8.48-4.02,4.81-3.31,9.62-6.62,14.43-9.93,4.83-3.32,9.78-6.78,13.37-11.35.16.38.34.75.53,1.09,3.37,6.19,9.15,10.45,14.74,14.49,4.58,3.31,9.15,6.62,13.73,9.93,2.48,1.79,5.08,3.64,8.06,4.02,6.93.89,12.28-6.07,18.73-8.89,4.16-1.82,9.18-2.08,12.32-5.49,4.08-4.42,2.6-12.29-1.69-16.5-4.93-4.13-12.9-1.24-18.8-4.4-3.78-2.02-6.11-6.32-6.86-10.72-.75-4.39-.14-8.91.66-13.29,5.55-30.17,20.11-57.53,34.14-84.49,3.91-7.52,7.92-15.58,7.35-24.13,3.51-.03.25,5.39,2.77,6.66,1.78.9,3.16-1.83,3.45-3.89.52-3.72,1.04-7.43,1.56-11.15.57,2.2,2.16,4.98,4.16,4.11,1.46-.64,1.6-2.72,1.49-4.38-.53-8.21-1.26-16.4-2.2-24.57-.68-5.91-1.47-11.86-1.02-17.8.64-8.29,3.67-16.12,5.79-24.13,1.79-6.74,2.94-13.68,3.38-20.67.37-5.93.22-11.88-.19-17.81ZM114.92,434.31c.53,3.89.67,8.67-2.45,10.83-.32.22-.67.4-1.02.57-.36-1.23-1.05-2.3-2.18-3.05-1.1-.73-2.45-1.03-3.55-1.75-3.29-2.16-3.14-6.94-2.58-10.83,3.25-22.48,8.2-45.29,19.01-65.1,5.51,20.69-10.35,46.51-7.22,69.34Z"/>
  <path class="cls-2" d="M163.26,78.57c-4.64-10.07-10.31-19.96-18.7-27.21-17.81-15.38-44.88-15.79-66.75-7.1-6.4,2.54-12.63,5.86-17.39,10.83-4.36,4.55-7.29,10.33-9.09,16.37-3.8,12.79-2.5,27.03,2.69,40.27-5.98,2.27-9.63,8.33-11.94,14.29-3.46,8.93-4.68,19.85,1.17,27.43,5.36,6.95,14.99,8.95,24.36,8.6-.18,7.06,3.65,13.83,9.06,18.36,5.42,4.53,12.27,7.04,19.19,8.44,2,.4,4.08.72,6.06.24,2.19-.53,4.02-1.98,5.75-3.42,3.9-3.25,7.7-6.72,10.5-10.97,2.79-4.24,4.52-9.36,3.7-13.9,7.68,3.32,15.77,6.11,24.13,6.34,8.36.23,17.12-2.39,22.81-8.52,4.43-4.77,6.68-11.27,7.19-17.76.52-6.49-.58-13-2.3-20.13,4.93-3.33,9.05-8,11.22-13.54,2.17-5.54,2.26-11.98-.28-17.37-3.46-7.36-11.89-12.04-19.96-11.08l-1.44-.19Z"/>
  <path class="cls-4" d="M138.74,88.19c0-.12.23.02.14.11s-.24.04-.34-.02c-.38-.21-.75-.47-1.11-.71-1.88-1.27-3.87-2.37-5.95-3.29-1.01-.45-2.07-.85-3.17-.92-2.18-.13-4.2,1.05-6.25,2.69-.23-4.01,2.01-8.06,5.52-10-.73,1.63-1.01,3.45-.81,5.23.42-1.09,1.16-2.06,2.12-2.73.36,1.01.72,2.02,1.08,3.03.12-.89.4-1.76.82-2.56.46,1.1,1.04,2.15,1.73,3.12.27-1.33.66-2.64,1.17-3.91,1.01,2.05,1.79,4.21,2.33,6.43-.03-1.74.62-3.49,1.78-4.79.96,2.73,1.16,5.71.6,8.55"/>
  <ellipse class="cls-2" cx="148.38" cy="18.79" rx="8.25" ry="25.21" transform="translate(39.36 121.18) rotate(-50.42)"/>
  <ellipse class="cls-2" cx="148.92" cy="18.14" rx="5.54" ry="22.31" transform="translate(40.06 121.36) rotate(-50.42)"/>
  <path class="cls-2" d="M153.19,17.44c-.62.94-1.69,1.53-2.82,1.44,0,0-.01,0-.02,0-.87-.07-1.75-.4-2.31-1.06-.23-.26-.39-.59-.47-.96-.23-.98.21-1.99.99-2.63,3.21-2.62,7.09-4.32,10.59-6.57.22-.14.47.12.33.34l-6.29,9.44Z"/>
  <ellipse class="cls-3" cx="91.74" cy="114.81" rx="15.87" ry="23.04"/>
  <ellipse class="cls-2" cx="93.04" cy="114.81" rx="7.3" ry="12.64"/>
  <ellipse class="cls-3" cx="127.42" cy="114.81" rx="15.87" ry="23.04"/>
  <ellipse class="cls-2" cx="128.2" cy="114.81" rx="7.3" ry="12.64"/>
  <path class="cls-2" d="M23.01,316.04c3.1,1.1,2.35,7.45,5.64,7.36,2.41-.06,2.64-3.55,2.12-5.9-7.26-32.91-3.15-68.21,11.49-98.56"/>
  <path class="cls-2" d="M190.75,318.79c-1.59.67-3.19,1.33-4.78,2-1.61-4.71-1.12-9.84-.86-14.81,1.49-27.93-4.67-56.24-17.62-81.03"/>
  <path class="cls-2" d="M111.77,445.41c-1.84,1.18-2.87,3.27-3.57,5.34-.4,1.2-.73,2.44-.7,3.7.04,1.84.83,3.57,1.61,5.24"/>
  <path class="cls-2" d="M71.22,317.49c-3.17,8.75-1.61,18.65,2.21,27.13,3.83,8.48,9.75,15.81,15.6,23.04-1.06-4.33-2.12-8.76-1.73-13.2s2.52-8.98,6.44-11.11c2.34,7.11,7.27,13.33,13.66,17.23.07-4.81,2.19-9.55,5.72-12.82.41,8.59,5.47,16.81,12.94,21.06-1.42-9.93,1.99-20.44,8.97-27.64,1.15,3.29,2.34,6.65,4.59,9.31,2.25,2.66,5.81,4.5,9.2,3.72.16-7.47,1.3-14.92,3.39-22.09,2.92,1.84,6.03,3.58,9.45,4.04s7.25-.6,9.24-3.42c-.82-7.42-1.27-14.89-1.35-22.35,1.71,2.13,4.78,3.05,7.37,2.21"/>
  <path class="cls-2" d="M69.79,199.14c-12.43,20.03-18.9,43.7-18.39,67.27.24,10.79,3.52,23.62,13.78,26.99-.99-7.77-1.96-15.72-.38-23.39,1.59-7.67,6.24-15.16,13.53-18.05-3.71,7.96-1.48,18.26,5.18,23.98.35-4.95.72-10,2.64-14.57,1.92-4.57,5.69-8.67,10.56-9.62-2.03,6.48-.1,14.03,4.8,18.73,1.76-7.84,4.7-15.42,8.69-22.39,5.45,3.85,10.9,7.7,16.34,11.55,1.12-6.01,1.12-12.23,0-18.24,5.03,8.24,12.21,15.15,20.64,19.85,1.31-6.25,1.12-12.81-.56-18.97,3.92,2.87,7.85,5.75,11.77,8.62-.21-17.13-6.12-34.15-16.59-47.72"/>
  <path class="cls-4" d="M93.04,82.58c-5.1-.71-10.46.68-14.57,3.78-4.11,3.1-6.92,7.88-7.91,12.37-.43-3.04-.85-6.11-.62-9.17s1.18-6.16,3.2-8.46c-.2,2.27.35,4.59,1.54,6.53-.1-2.91,1.22-5.84,3.47-7.69-.05,1.03.39,2.08,1.15,2.78-.01-.83.14-1.66.44-2.43.92.29,1.78.77,2.52,1.39-.49-.99-.51-2.2-.05-3.21-.63-1.69-1.26-3.38-1.88-5.08,2.16,2.08,4.16,4.32,5.99,6.69,0-.82.02-1.65.03-2.47,1.12.39,2.07,1.23,2.6,2.29.03-.72.06-1.45.09-2.17,1.73,1.29,3.09,3.06,3.91,5.06"/>
  <ellipse class="cls-1" cx="40.17" cy="463" rx="7.54" ry="12.02"/>
  <ellipse class="cls-1" cx="51.37" cy="470.07" rx="7.54" ry="12.02"/>
  <ellipse class="cls-1" cx="65.3" cy="478.75" rx="8.72" ry="12.02"/>
  <path class="cls-1" d="M40.31,465.54c-2.56.23-4.99,1.58-6.55,3.61-1.56,2.04-2.22,4.74-1.77,7.27,1.31-1.43,3.47-1.59,5.41-1.65.94-.03,1.87-.06,2.81-.09.52-1.49,1.05-3,1.18-4.58.13-1.57-.17-3.25-1.16-4.48"/>
  <path class="cls-1" d="M50.84,472.12c-1.98.17-3.65,1.69-4.54,3.48s-1.13,3.81-1.33,5.79c-.07.73-.13,1.51.22,2.15.67-.91,1.81-1.38,2.94-1.48,1.13-.1,2.25.13,3.36.35,1.62-1.88,2.37-4.48,2-6.93-.11-.73-.32-1.47-.75-2.07s-1.11-1.06-1.85-1.09"/>
  <path class="cls-1" d="M63.63,482.89c-1.92.56-3.61,1.87-4.63,3.59-1.03,1.72-1.38,3.82-.96,5.78.35-.7,1.06-1.16,1.81-1.39.75-.23,1.54-.26,2.32-.29,1.14-.04,2.29-.08,3.43-.12.88-1.98.74-4.39-.37-6.25-.37-.62-.88-1.21-1.57-1.42"/>
  <ellipse class="cls-1" cx="175.08" cy="467.8" rx="7.92" ry="12.02"/>
  <ellipse class="cls-1" cx="163.32" cy="474.87" rx="7.92" ry="12.02"/>
  <ellipse class="cls-1" cx="148.69" cy="483.55" rx="9.16" ry="12.02"/>
  <path class="cls-1" d="M174.94,470.35c2.68.23,5.24,1.58,6.88,3.61,1.64,2.04,2.33,4.74,1.86,7.27-1.38-1.43-3.65-1.59-5.68-1.65-.98-.03-1.97-.06-2.95-.09-.55-1.49-1.1-3-1.24-4.58s.18-3.25,1.22-4.48"/>
  <path class="cls-1" d="M163.87,476.93c2.08.17,3.83,1.69,4.77,3.48.93,1.78,1.19,3.81,1.4,5.79.08.73.14,1.51-.23,2.15-.7-.91-1.9-1.38-3.09-1.48-1.18-.1-2.37.13-3.53.35-1.7-1.88-2.48-4.48-2.1-6.93.11-.73.33-1.47.79-2.07s1.16-1.06,1.94-1.09"/>
  <path class="cls-1" d="M150.43,487.7c2.01.56,3.79,1.87,4.87,3.59,1.08,1.72,1.45,3.82,1.01,5.78-.37-.7-1.12-1.16-1.9-1.39s-1.62-.26-2.44-.29c-1.2-.04-2.4-.08-3.61-.12-.93-1.98-.78-4.39.39-6.25.39-.62.92-1.21,1.65-1.42"/>
  <path class="cls-1" d="M75.44,433.83c.18,3.81-1.22,7.55-3.27,10.77s-4.72,5.97-7.38,8.7c4.88-1.13,8.79-4.66,12.46-8.05.74,2.05.71,4.36-.08,6.39,1.25.25,2.39-.78,3.07-1.85s1.22-2.33,2.29-3.01c.03.55.07,1.11.34,1.59s.86.82,1.37.63c.3-.11.52-.37.72-.63,1.66-2.14,3.08-4.46,4.23-6.92"/>
  <path class="cls-1" d="M139.53,423.74c-2.11,3.43-3.81,7.26-3.95,11.28-.16,4.56,1.66,8.93,3.45,13.13-3.75-3.43-7.06-7.34-9.82-11.62-.64,2.81-.51,5.78.36,8.53-1.15-1.22-1.87-2.83-2.01-4.5-.05-.64-.02-1.29-.22-1.89-.2-.61-.69-1.18-1.33-1.21-.62,2.25-1.23,4.51-1.85,6.76-.9-3-1.33-6.14-1.29-9.28"/>
</svg>