<svg width="103" height="90" viewBox="0 0 103 90" fill="none" xmlns="http://www.w3.org/2000/svg">
<g clip-path="url(#clip0_1428_4401)">
<path d="M33.1853 81.5873C38.1723 79.5238 43.1593 77.0476 48.1463 74.3651C61.0294 67.3492 73.497 58.8889 86.5879 53.3175C81.3931 40.1111 76.1983 28.5556 71.2113 17C55.4191 26.2857 39.2113 34.3333 22.5879 41.9683C24.458 53.7302 29.0294 64.254 32.3541 75.6032C32.9775 77.6667 33.3931 79.7302 32.9775 82" fill="#B81C3A"/>
<path d="M33.1853 81.5873C38.1723 79.5238 43.1593 77.0476 48.1463 74.3651C61.0294 67.3492 73.497 58.8889 86.5879 53.3175C81.3931 40.1111 76.1983 28.5556 71.2113 17C55.4191 26.2857 39.2113 34.3333 22.5879 41.9683C24.458 53.7302 29.0294 64.254 32.3541 75.6032C32.9775 77.6667 33.3931 79.7302 32.9775 82" stroke="black" stroke-width="0.621786" stroke-linecap="round" stroke-linejoin="round"/>
<path d="M72.5879 20.4897C72.9987 16.1706 76.4907 12.0572 79.7773 8.76649C82.8584 5.68144 86.7613 1.7737 90.6641 0.539683C94.5669 -0.694338 98.4697 0.128343 99.7022 3.62474C99.7022 4.03608 99.9076 4.44742 99.7022 4.85876C99.4967 5.47577 98.8805 5.68144 98.2643 5.88711C96.2102 6.50412 94.156 6.50412 92.1019 7.12113C88.8154 7.94381 85.7342 10.6175 83.8855 13.7026C83.4747 14.3196 83.2693 15.3479 83.8855 15.5536C84.0909 15.5536 84.5017 15.5536 84.7071 15.5536C88.8154 13.7026 93.129 11.8515 97.2372 11.6459C98.4697 11.6459 99.9076 11.6459 100.729 12.6742C101.551 13.4969 101.962 15.1423 101.14 16.582C100.113 18.433 97.648 18.8443 95.7993 19.2557C93.129 19.667 90.4587 20.4897 87.9937 21.7237C85.9396 22.7521 83.6801 24.3974 83.0639 26.8655C83.0639 27.0711 83.0639 27.4825 83.0639 27.6881C83.2693 28.0995 83.8855 27.6881 84.2963 27.6881C86.9667 26.2485 89.4316 25.0144 92.1019 23.9861C93.5398 23.3691 95.1831 22.9577 96.621 23.1634C98.0589 23.3691 99.2913 24.3974 99.4967 25.8371C99.4967 27.8938 97.648 30.1562 95.7993 30.9789C93.9506 31.8015 91.6911 32.0072 89.8424 32.6242C86.3504 33.6526 83.0639 35.7093 80.3935 39" fill="#37EBFF"/>
<path d="M72.5879 20.4897C72.9987 16.1706 76.4907 12.0572 79.7773 8.76649C82.8584 5.68144 86.7613 1.7737 90.6641 0.539683C94.5669 -0.694338 98.4697 0.128343 99.7022 3.62474C99.7022 4.03608 99.9076 4.44742 99.7022 4.85876C99.4967 5.47577 98.8805 5.68144 98.2643 5.88711C96.2102 6.50412 94.156 6.50412 92.1019 7.12113C88.8154 7.94381 85.7342 10.6175 83.8855 13.7026C83.4747 14.3196 83.2693 15.3479 83.8855 15.5536C84.0909 15.5536 84.5017 15.5536 84.7071 15.5536C88.8154 13.7026 93.129 11.8515 97.2372 11.6459C98.4697 11.6459 99.9076 11.6459 100.729 12.6742C101.551 13.4969 101.962 15.1423 101.14 16.582C100.113 18.433 97.648 18.8443 95.7993 19.2557C93.129 19.667 90.4587 20.4897 87.9937 21.7237C85.9396 22.7521 83.6801 24.3974 83.0639 26.8655C83.0639 27.0711 83.0639 27.4825 83.0639 27.6881C83.2693 28.0995 83.8855 27.6881 84.2963 27.6881C86.9667 26.2485 89.4316 25.0144 92.1019 23.9861C93.5398 23.3691 95.1831 22.9577 96.621 23.1634C98.0589 23.3691 99.2913 24.3974 99.4967 25.8371C99.4967 27.8938 97.648 30.1562 95.7993 30.9789C93.9506 31.8015 91.6911 32.0072 89.8424 32.6242C86.3504 33.6526 83.0639 35.7093 80.3935 39" stroke="black" stroke-width="0.621786" stroke-linecap="round" stroke-linejoin="round"/>
<path d="M26.1779 54.94C22.8179 52.8504 16.7279 54.522 12.5279 57.2385C8.95793 59.537 5.80794 62.4624 3.49794 66.2237C1.18795 69.9849 0.13795 74.164 0.767948 77.7163C0.767948 78.1342 0.977948 78.5521 1.39795 78.5521C1.39795 78.5521 1.81795 78.5521 1.81795 78.3432C6.01794 75.2088 8.74793 69.9849 12.7379 66.6416C13.3679 66.0147 13.9979 65.5968 14.8379 65.3878C15.4679 65.3878 16.3079 65.3878 16.5179 66.0147C16.7279 66.6416 16.5179 67.4774 15.8879 68.1043C15.2579 68.7311 14.8379 69.1491 14.2079 69.7759C11.2679 71.8655 8.53793 74.373 6.43794 77.2984C4.75794 79.5969 3.70794 82.5223 4.33794 84.8209C4.33794 85.4477 5.17794 86.2836 5.80794 85.8656C6.01794 85.8656 6.22794 85.4477 6.43794 85.2388C8.32793 82.5223 10.0079 79.8059 11.8979 77.0894C13.7879 74.373 16.0979 71.8655 18.6179 70.1938C19.4579 69.7759 20.7179 69.358 20.9279 70.1938C20.9279 70.6118 20.7179 71.2386 20.2979 71.6565C18.6179 73.5372 16.7279 75.2088 15.0479 77.0894C12.7379 79.8059 11.2679 83.5671 11.2679 86.7015C11.2679 87.7463 11.6879 89 12.7379 89C13.3679 89 14.2079 88.1642 14.6279 87.5373C17.9879 83.5671 21.1379 79.179 23.6579 74.5819C24.4979 73.1192 25.3379 71.4476 26.3879 70.4028C27.6479 69.1491 29.3279 68.3132 30.5879 68.7311" fill="#37EBFF"/>
<path d="M26.1779 54.94C22.8179 52.8504 16.7279 54.522 12.5279 57.2385C8.95793 59.537 5.80794 62.4624 3.49794 66.2237C1.18795 69.9849 0.13795 74.164 0.767948 77.7163C0.767948 78.1342 0.977948 78.5521 1.39795 78.5521C1.39795 78.5521 1.81795 78.5521 1.81795 78.3432C6.01794 75.2088 8.74793 69.9849 12.7379 66.6416C13.3679 66.0147 13.9979 65.5968 14.8379 65.3878C15.4679 65.3878 16.3079 65.3878 16.5179 66.0147C16.7279 66.6416 16.5179 67.4774 15.8879 68.1043C15.2579 68.7311 14.8379 69.1491 14.2079 69.7759C11.2679 71.8655 8.53793 74.373 6.43794 77.2984C4.75794 79.5969 3.70794 82.5223 4.33794 84.8209C4.33794 85.4477 5.17794 86.2836 5.80794 85.8656C6.01794 85.8656 6.22794 85.4477 6.43794 85.2388C8.32793 82.5223 10.0079 79.8059 11.8979 77.0894C13.7879 74.373 16.0979 71.8655 18.6179 70.1938C19.4579 69.7759 20.7179 69.358 20.9279 70.1938C20.9279 70.6118 20.7179 71.2386 20.2979 71.6565C18.6179 73.5372 16.7279 75.2088 15.0479 77.0894C12.7379 79.8059 11.2679 83.5671 11.2679 86.7015C11.2679 87.7463 11.6879 89 12.7379 89C13.3679 89 14.2079 88.1642 14.6279 87.5373C17.9879 83.5671 21.1379 79.179 23.6579 74.5819C24.4979 73.1192 25.3379 71.4476 26.3879 70.4028C27.6479 69.1491 29.3279 68.3132 30.5879 68.7311" stroke="black" stroke-width="0.621786" stroke-linecap="round" stroke-linejoin="round"/>
<path d="M68.1984 36.1032C64.6947 31.4346 58.7177 30.5858 54.8018 34.4056C50.8858 38.2253 50.4736 45.016 53.9774 49.8968C57.4811 54.5654 63.4581 55.4142 67.374 51.5944C71.29 47.7747 71.7022 40.984 68.1984 36.1032Z" fill="white" stroke="black" stroke-width="0.621786" stroke-linecap="round" stroke-linejoin="round"/>
<path d="M61.3879 41.8582C59.7879 39.8261 57.3879 39.4196 55.7879 40.8421C54.1879 42.2646 54.1879 45.1096 55.7879 47.1418C57.3879 49.1739 59.7879 49.5804 61.3879 48.1579C62.9879 46.7354 62.9879 43.8904 61.3879 41.8582Z" fill="white" stroke="black" stroke-width="0.621786" stroke-linecap="round" stroke-linejoin="round"/>
<path d="M61.3879 41.8582C59.7879 39.8261 57.3879 39.4196 55.7879 40.8421C54.1879 42.2646 54.1879 45.1096 55.7879 47.1418C57.3879 49.1739 59.7879 49.5804 61.3879 48.1579C62.9879 46.7354 62.9879 43.8904 61.3879 41.8582Z" fill="#111111" stroke="#111111" stroke-width="0.621786" stroke-linecap="round" stroke-linejoin="round"/>
<path d="M51.1984 47.1032C47.6947 42.4346 41.7177 41.5858 37.8018 45.4056C33.8858 49.2253 33.4736 56.016 36.9774 60.8968C40.4811 65.5654 46.4581 66.4142 50.374 62.5944C54.29 58.7747 54.7022 51.984 51.1984 47.1032Z" fill="white" stroke="black" stroke-width="0.621786" stroke-linecap="round" stroke-linejoin="round"/>
<path d="M48.1171 49.9469C47.14 47.4833 45.1856 46.2514 43.4267 47.4833C41.6678 48.7151 41.0815 51.5894 42.0586 54.0531C43.0358 56.5167 44.9902 57.7486 46.7491 56.5167C48.508 55.2849 49.0943 52.4106 48.1171 49.9469Z" fill="#111111" stroke="#111111" stroke-width="0.621786" stroke-linecap="round" stroke-linejoin="round"/>
<path d="M62.5652 58C62.5652 58 63.5879 58.3948 63.5879 58.7897C63.5879 59.1845 63.5879 59.5794 63.5879 59.9742C63.5879 60.369 62.9743 60.5664 62.5652 60.5664C62.1561 60.5664 61.9515 60.5664 61.5424 60.5664C60.3152 60.5664 59.0879 61.1587 58.0652 62.1458C57.6561 62.5406 57.247 63.1329 56.6333 63.5277C56.0197 63.9226 55.4061 64.12 54.997 63.9226C54.7924 63.9226 54.5879 63.5277 54.5879 63.1329C54.5879 62.738 54.5879 62.3432 54.997 61.9484C55.4061 61.5535 55.6106 61.1587 56.0197 60.9613C57.0424 59.9742 58.2697 59.1845 59.2924 58.7897C60.3152 58.3948 61.9515 58 62.7697 58.5923" fill="#FFA100"/>
<path d="M62.5652 58C62.5652 58 63.5879 58.3948 63.5879 58.7897C63.5879 59.1845 63.5879 59.5794 63.5879 59.9742C63.5879 60.369 62.9743 60.5664 62.5652 60.5664C62.1561 60.5664 61.9515 60.5664 61.5424 60.5664C60.3152 60.5664 59.0879 61.1587 58.0652 62.1458C57.6561 62.5406 57.247 63.1329 56.6333 63.5277C56.0197 63.9226 55.4061 64.12 54.997 63.9226C54.7924 63.9226 54.5879 63.5277 54.5879 63.1329C54.5879 62.738 54.5879 62.3432 54.997 61.9484C55.4061 61.5535 55.6106 61.1587 56.0197 60.9613C57.0424 59.9742 58.2697 59.1845 59.2924 58.7897C60.3152 58.3948 61.9515 58 62.7697 58.5923" stroke="black" stroke-width="0.621786" stroke-linecap="round" stroke-linejoin="round"/>
</g>
<defs>
<clipPath id="clip0_1428_4401">
<rect width="102" height="90" fill="white" transform="translate(0.587891)"/>
</clipPath>
</defs>
</svg>
