<svg width="20" height="22" viewBox="0 0 20 22" fill="none" xmlns="http://www.w3.org/2000/svg">
<g id="Group">
<path id="Vector" d="M11.7678 8.23093C10.8606 7.32386 9.63957 6.80016 8.35714 6.76815C7.07471 6.73613 5.82903 7.19826 4.87777 8.05893L4.69677 8.23093L1.86877 11.0599C0.947737 11.9826 0.4235 13.2285 0.407801 14.5321C0.392101 15.8357 0.886181 17.0939 1.78473 18.0385C2.68327 18.9831 3.91522 19.5393 5.21798 19.5887C6.52074 19.6381 7.79127 19.1768 8.75877 18.3029L8.93877 18.1309L11.0608 16.0089C11.2401 15.829 11.3442 15.5875 11.352 15.3335C11.3598 15.0796 11.2706 14.8322 11.1025 14.6417C10.9345 14.4511 10.7002 14.3316 10.4473 14.3075C10.1944 14.2834 9.94176 14.3565 9.74077 14.5119L9.64677 14.5949L7.52477 16.7169C6.9747 17.2702 6.23072 17.5874 5.45065 17.6013C4.67058 17.6152 3.91579 17.3246 3.34639 16.7913C2.77698 16.2579 2.43776 15.5237 2.40068 14.7444C2.36361 13.9651 2.63158 13.202 3.14777 12.6169L3.28277 12.4739L6.11077 9.64593C6.38935 9.3673 6.72009 9.14628 7.0841 8.99548C7.44811 8.84469 7.83826 8.76707 8.23227 8.76707C8.62628 8.76707 9.01643 8.84469 9.38044 8.99548C9.74445 9.14628 10.0752 9.3673 10.3538 9.64593C10.5414 9.83344 10.7959 9.93873 11.0611 9.93863C11.3264 9.93854 11.5808 9.83307 11.7683 9.64543C11.9558 9.45779 12.0611 9.20335 12.061 8.93808C12.0609 8.67281 11.9554 8.41844 11.7678 8.23093ZM18.1318 1.86693C17.2246 0.959865 16.0036 0.436161 14.7211 0.404147C13.4387 0.372132 12.193 0.834257 11.2418 1.69493L11.0608 1.86693L8.93977 3.98993C8.76042 4.16989 8.6563 4.41137 8.64854 4.66532C8.64079 4.91927 8.72999 5.16665 8.89802 5.35721C9.06605 5.54778 9.30032 5.66724 9.55325 5.69133C9.80617 5.71542 10.0588 5.64234 10.2598 5.48693L10.3538 5.40393L12.4748 3.28293C13.0258 2.73549 13.7677 2.42311 14.5443 2.41151C15.321 2.3999 16.0719 2.68998 16.639 3.22072C17.2061 3.75146 17.5453 4.48147 17.5852 5.25719C17.6251 6.03291 17.3625 6.79385 16.8528 7.37993L16.7178 7.52393L13.8888 10.3529C13.3262 10.9153 12.5633 11.2313 11.7678 11.2313C10.9723 11.2313 10.2094 10.9153 9.64677 10.3529C9.55393 10.26 9.44369 10.1863 9.32236 10.136C9.20103 10.0857 9.07097 10.0598 8.93962 10.0597C8.80828 10.0597 8.67821 10.0855 8.55684 10.1357C8.43547 10.186 8.32518 10.2596 8.23227 10.3524C8.13936 10.4453 8.06565 10.5555 8.01534 10.6768C7.96503 10.7982 7.93912 10.9282 7.93907 11.0596C7.93902 11.1909 7.96485 11.321 8.01507 11.4424C8.06529 11.5637 8.13893 11.674 8.23177 11.7669C9.1389 12.674 10.36 13.1977 11.6424 13.2297C12.9248 13.2617 14.1705 12.7996 15.1218 11.9389L15.3038 11.7669L18.1318 8.93793C19.0691 8.00029 19.5957 6.72875 19.5957 5.40293C19.5957 4.07711 19.0691 2.80457 18.1318 1.86693Z" fill="#111111"/>
</g>
</svg>
