<?xml version="1.0" encoding="UTF-8"?>
<svg id="Layer_1" data-name="Layer 1" xmlns="http://www.w3.org/2000/svg" xmlns:xlink="http://www.w3.org/1999/xlink" viewBox="0 0 409.12 113.39">
  <defs>
    <style>
      .cls-1 {
        fill: none;
      }

      .cls-2 {
        fill: #4487f9;
      }

      .cls-3 {
        fill: #b03341;
      }

      .cls-4 {
        stroke-linejoin: round;
      }

      .cls-4, .cls-5, .cls-6, .cls-7, .cls-8, .cls-9, .cls-10 {
        stroke: #000;
        stroke-linecap: round;
        stroke-width: .62px;
      }

      .cls-4, .cls-10 {
        fill: #f26280;
      }

      .cls-5 {
        fill: #fff;
      }

      .cls-5, .cls-6, .cls-7, .cls-8, .cls-9, .cls-10 {
        stroke-miterlimit: 10;
      }

      .cls-11 {
        clip-path: url(#clippath-1);
      }

      .cls-12 {
        clip-path: url(#clippath-3);
      }

      .cls-13 {
        clip-path: url(#clippath-4);
      }

      .cls-14 {
        clip-path: url(#clippath-2);
      }

      .cls-15 {
        fill: #1a8b63;
      }

      .cls-7 {
        fill: #03baa6;
      }

      .cls-8 {
        fill: #fdf7db;
      }

      .cls-16 {
        fill: #ff551e;
      }

      .cls-9 {
        fill: #fde1da;
      }

      .cls-17 {
        clip-path: url(#clippath);
      }

      .cls-18 {
        fill: #f0f3fa;
      }
    </style>
    <clipPath id="clippath">
      <circle class="cls-1" cx="352.43" cy="56.69" r="56.69"/>
    </clipPath>
    <clipPath id="clippath-1">
      <circle class="cls-1" cx="56.69" cy="56.69" r="56.69"/>
    </clipPath>
    <clipPath id="clippath-2">
      <circle class="cls-1" cx="130.63" cy="56.69" r="56.69"/>
    </clipPath>
    <clipPath id="clippath-3">
      <circle class="cls-1" cx="204.56" cy="56.69" r="56.69"/>
    </clipPath>
    <clipPath id="clippath-4">
      <circle class="cls-1" cx="278.5" cy="56.69" r="56.69"/>
    </clipPath>
  </defs>
  <g class="cls-17">
    <g>
      <path class="cls-10" d="M366.56,24.51c-.68-2.38-.52-4.99.44-7.27.31-.72.72-1.44,1.38-1.85l-3.28-2.39c-.32,2.4-1.73,4.58-3.62,6.1-.83.67-1.78,1.23-2.84,1.39l7.91,4.02Z"/>
      <path class="cls-9" d="M391.01,81.91c-.33-4.71-1.14-9.53-3.51-13.55-2.37-4.02-6.54-7.12-11.04-6.97l-15.9-.67-31.4-.92c-4.72-.15-9.12,2.95-11.61,6.97-2.49,4.02-3.35,8.83-3.69,13.55-.16,2.21-.22,4.43-.07,6.64.17,2.61.62,5.19,1.33,7.71.83,2.99,2.02,5.91,2.27,9,.18,2.21-.13,4.44-.4,6.64-.37,3.05-.66,6.1-.86,9.17-.04.62.01,1.4.58,1.63.79.33,1.41-.71,1.63-1.53.2,1.39.41,2.77.61,4.16.11.77.65,1.79,1.35,1.45.99-.48-.29-2.5,1.09-2.49-.22,3.19,1.35,6.2,2.88,9,5.5,10.06,11.21,20.26,13.39,31.52.32,1.63.56,3.32.26,4.96-.3,1.64-1.21,3.24-2.69,4-2.31,1.18-5.44.1-7.37,1.64-1.68,1.57-2.26,4.5-.66,6.16,1.23,1.27,3.2,1.37,4.83,2.05,2.53,1.05,4.63,3.65,7.35,3.32,1.17-.14,2.19-.83,3.16-1.5,1.79-1.23,3.59-2.47,5.38-3.7,1.8-1.24,3.65-2.54,4.98-4.25.06.14.13.29.2.42,1.26,2.31,3.41,3.9,5.5,5.41,1.71,1.23,3.41,2.47,5.12,3.7.92.67,1.9,1.36,3.01,1.5,2.59.33,4.58-2.26,6.99-3.32,1.55-.68,3.43-.78,4.6-2.05,1.52-1.65.97-4.59-.63-6.16-1.84-1.54-4.81-.46-7.01-1.64-1.41-.76-2.28-2.36-2.56-4-.28-1.64-.05-3.32.25-4.96,2.07-11.26,7.5-21.46,12.74-31.52,1.46-2.8,2.95-5.81,2.74-9,1.31-.01.09,2.01,1.03,2.49.66.34,1.18-.68,1.29-1.45.19-1.39.39-2.77.58-4.16.21.82.8,1.86,1.55,1.53.54-.24.6-1.01.56-1.63-.2-3.06-.47-6.12-.82-9.17-.25-2.21-.55-4.43-.38-6.64.24-3.09,1.37-6.02,2.16-9,.67-2.52,1.1-5.1,1.26-7.71.14-2.21.08-4.43-.07-6.64ZM355.54,167.33c.2,1.45.25,3.24-.92,4.04-.12.09-.26.15-.39.22-.13-.46-.38-.86-.8-1.15-.41-.27-.91-.38-1.33-.65-1.23-.81-1.17-2.59-.96-4.04,1.21-8.39,3.06-16.9,7.09-24.29,2.06,7.72-3.86,17.35-2.69,25.87Z"/>
      <path class="cls-8" d="M373.58,34.61c-1.73-3.76-3.85-7.45-6.98-10.15-6.64-5.74-16.74-5.89-24.9-2.65-2.39.95-4.71,2.19-6.49,4.04-1.63,1.7-2.72,3.85-3.39,6.11-1.42,4.77-.93,10.08,1,15.02-2.23.85-3.59,3.11-4.46,5.33-1.29,3.33-1.75,7.4.44,10.23,2,2.59,5.59,3.34,9.09,3.21-.07,2.63,1.36,5.16,3.38,6.85s4.58,2.63,7.16,3.15c.75.15,1.52.27,2.26.09.82-.2,1.5-.74,2.14-1.27,1.46-1.21,2.87-2.51,3.92-4.09s1.69-3.49,1.38-5.18c2.87,1.24,5.88,2.28,9,2.37,3.12.09,6.39-.89,8.51-3.18,1.65-1.78,2.49-4.2,2.68-6.63s-.22-4.85-.86-7.51c1.84-1.24,3.38-2.98,4.19-5.05s.84-4.47-.1-6.48c-1.29-2.74-4.44-4.49-7.45-4.13l-.54-.07Z"/>
      <path class="cls-4" d="M364.43,38.2s.08,0,.05.04-.09.01-.13,0c-.14-.08-.28-.17-.41-.27-.7-.47-1.44-.89-2.22-1.23-.38-.17-.77-.32-1.18-.34-.81-.05-1.57.39-2.33,1-.09-1.5.75-3.01,2.06-3.73-.27.61-.38,1.29-.3,1.95.16-.41.43-.77.79-1.02.13.38.27.75.4,1.13.05-.33.15-.66.31-.96.17.41.39.8.64,1.16.1-.5.25-.99.43-1.46.38.76.67,1.57.87,2.4,0-.65.23-1.3.66-1.79.36,1.02.43,2.13.22,3.19"/>
      <ellipse class="cls-7" cx="368.03" cy="12.31" rx="3.08" ry="9.41" transform="translate(124.05 288.11) rotate(-50.42)"/>
      <ellipse class="cls-10" cx="368.23" cy="12.06" rx="2.07" ry="8.32" transform="translate(124.31 288.18) rotate(-50.42)"/>
      <path class="cls-10" d="M369.82,11.81c-.23.35-.63.57-1.05.54,0,0,0,0,0,0-.32-.03-.65-.15-.86-.39-.08-.1-.14-.22-.18-.36-.08-.37.08-.74.37-.98,1.2-.98,2.64-1.61,3.95-2.45.08-.05.18.04.12.13l-2.35,3.52Z"/>
      <ellipse class="cls-5" cx="346.89" cy="48.13" rx="5.92" ry="8.6"/>
      <ellipse class="cls-6" cx="347.38" cy="48.13" rx="2.73" ry="4.72"/>
      <ellipse class="cls-5" cx="360.2" cy="48.13" rx="5.92" ry="8.6"/>
      <ellipse class="cls-6" cx="360.5" cy="48.13" rx="2.73" ry="4.72"/>
      <path class="cls-9" d="M321.25,123.21c1.16.41.88,2.78,2.1,2.75.9-.02.99-1.32.79-2.2-2.71-12.28-1.17-25.45,4.29-36.77"/>
      <path class="cls-9" d="M383.83,124.24l-1.78.74c-.6-1.76-.42-3.67-.32-5.52.55-10.42-1.74-20.98-6.57-30.23"/>
      <path class="cls-9" d="M338.7,79.6c-4.64,7.47-7.05,16.3-6.86,25.1.09,4.03,1.31,8.81,5.14,10.07-.37-2.9-.73-5.86-.14-8.73s2.33-5.66,5.05-6.73c-1.38,2.97-.55,6.81,1.93,8.95.13-1.85.27-3.73.99-5.44s2.12-3.23,3.94-3.59c-.76,2.42-.04,5.23,1.79,6.99.66-2.93,1.75-5.75,3.24-8.36,2.03,1.44,4.07,2.87,6.1,4.31.42-2.24.42-4.56,0-6.8,1.87,3.07,4.56,5.65,7.7,7.41.49-2.33.42-4.78-.21-7.08,1.46,1.07,2.93,2.14,4.39,3.22-.08-6.39-2.28-12.74-6.19-17.8"/>
      <path class="cls-4" d="M347.38,36.11c-1.9-.27-3.9.25-5.44,1.41-1.53,1.16-2.58,2.94-2.95,4.62-.16-1.13-.32-2.28-.23-3.42s.44-2.3,1.2-3.16c-.07.85.13,1.71.58,2.43-.04-1.09.46-2.18,1.3-2.87-.02.39.14.78.43,1.04,0-.31.05-.62.17-.91.34.11.66.29.94.52-.18-.37-.19-.82-.02-1.2-.23-.63-.47-1.26-.7-1.89.81.77,1.55,1.61,2.23,2.5,0-.31,0-.61.01-.92.42.15.77.46.97.86.01-.27.02-.54.04-.81.64.48,1.15,1.14,1.46,1.89"/>
    </g>
  </g>
  <circle class="cls-16" cx="56.69" cy="56.69" r="56.69"/>
  <g class="cls-11">
    <g>
      <path class="cls-10" d="M70.83,24.51c-.68-2.38-.52-4.99.44-7.27.31-.72.72-1.44,1.38-1.85l-3.28-2.39c-.32,2.4-1.73,4.58-3.62,6.1-.83.67-1.78,1.23-2.84,1.39l7.91,4.02Z"/>
      <path class="cls-9" d="M95.27,81.91c-.33-4.71-1.14-9.53-3.51-13.55-2.37-4.02-6.54-7.12-11.04-6.97l-15.9-.67-31.4-.92c-4.72-.15-9.12,2.95-11.61,6.97-2.49,4.02-3.35,8.83-3.69,13.55-.16,2.21-.22,4.43-.07,6.64.17,2.61.62,5.19,1.33,7.71.83,2.99,2.02,5.91,2.27,9,.18,2.21-.13,4.44-.4,6.64-.37,3.05-.66,6.1-.86,9.17-.04.62.01,1.4.58,1.63.79.33,1.41-.71,1.63-1.53.2,1.39.41,2.77.61,4.16.11.77.65,1.79,1.35,1.45.99-.48-.29-2.5,1.09-2.49-.22,3.19,1.35,6.2,2.88,9,5.5,10.06,11.21,20.26,13.39,31.52.32,1.63.56,3.32.26,4.96s-1.21,3.24-2.69,4c-2.31,1.18-5.44.1-7.37,1.64-1.68,1.57-2.26,4.5-.66,6.16,1.23,1.27,3.2,1.37,4.83,2.05,2.53,1.05,4.63,3.65,7.35,3.32,1.17-.14,2.19-.83,3.16-1.5,1.79-1.23,3.59-2.47,5.38-3.7,1.8-1.24,3.65-2.54,4.98-4.25.06.14.13.29.2.42,1.26,2.31,3.41,3.9,5.5,5.41l5.12,3.7c.92.67,1.9,1.36,3.01,1.5,2.59.33,4.58-2.26,6.99-3.32,1.55-.68,3.43-.78,4.6-2.05,1.52-1.65.97-4.59-.63-6.16-1.84-1.54-4.81-.46-7.01-1.64-1.41-.76-2.28-2.36-2.56-4s-.05-3.32.25-4.96c2.07-11.26,7.5-21.46,12.74-31.52,1.46-2.8,2.95-5.81,2.74-9,1.31-.01.09,2.01,1.03,2.49.66.34,1.18-.68,1.29-1.45.19-1.39.39-2.77.58-4.16.21.82.8,1.86,1.55,1.53.54-.24.6-1.01.56-1.63-.2-3.06-.47-6.12-.82-9.17-.25-2.21-.55-4.43-.38-6.64.24-3.09,1.37-6.02,2.16-9,.67-2.52,1.1-5.1,1.26-7.71.14-2.21.08-4.43-.07-6.64ZM59.81,167.33c.2,1.45.25,3.24-.92,4.04-.12.09-.26.15-.39.22-.13-.46-.38-.86-.8-1.15-.41-.27-.91-.38-1.33-.65-1.23-.81-1.17-2.59-.96-4.04,1.21-8.39,3.06-16.9,7.09-24.29,2.06,7.72-3.86,17.35-2.69,25.87Z"/>
      <path class="cls-8" d="M77.84,34.61c-1.73-3.76-3.85-7.45-6.98-10.15-6.64-5.74-16.74-5.89-24.9-2.65-2.39.95-4.71,2.19-6.49,4.04-1.63,1.7-2.72,3.85-3.39,6.11-1.42,4.77-.93,10.08,1,15.02-2.23.85-3.59,3.11-4.46,5.33-1.29,3.33-1.75,7.4.44,10.23,2,2.59,5.59,3.34,9.09,3.21-.07,2.63,1.36,5.16,3.38,6.85s4.58,2.63,7.16,3.15c.75.15,1.52.27,2.26.09.82-.2,1.5-.74,2.14-1.27,1.46-1.21,2.87-2.51,3.92-4.09s1.69-3.49,1.38-5.18c2.87,1.24,5.88,2.28,9,2.37,3.12.09,6.39-.89,8.51-3.18,1.65-1.78,2.49-4.2,2.68-6.63.19-2.42-.22-4.85-.86-7.51,1.84-1.24,3.38-2.98,4.19-5.05.81-2.07.84-4.47-.1-6.48-1.29-2.74-4.44-4.49-7.45-4.13l-.54-.07Z"/>
      <path class="cls-4" d="M68.69,38.2s.08,0,.05.04-.09.01-.13,0c-.14-.08-.28-.17-.41-.27-.7-.47-1.44-.89-2.22-1.23-.38-.17-.77-.32-1.18-.34-.81-.05-1.57.39-2.33,1-.09-1.5.75-3.01,2.06-3.73-.27.61-.38,1.29-.3,1.95.16-.41.43-.77.79-1.02.13.38.27.75.4,1.13.05-.33.15-.66.31-.96.17.41.39.8.64,1.16.1-.5.25-.99.43-1.46.38.76.67,1.57.87,2.4,0-.65.23-1.3.66-1.79.36,1.02.43,2.13.22,3.19"/>
      <ellipse class="cls-7" cx="72.29" cy="12.31" rx="3.08" ry="9.41" transform="translate(16.74 60.18) rotate(-50.42)"/>
      <ellipse class="cls-10" cx="72.49" cy="12.06" rx="2.07" ry="8.32" transform="translate(17 60.25) rotate(-50.42)"/>
      <path class="cls-10" d="M74.08,11.81c-.23.35-.63.57-1.05.54,0,0,0,0,0,0-.32-.03-.65-.15-.86-.39-.08-.1-.14-.22-.18-.36-.08-.37.08-.74.37-.98,1.2-.98,2.64-1.61,3.95-2.45.08-.05.18.04.12.13l-2.35,3.52Z"/>
      <ellipse class="cls-5" cx="51.16" cy="48.13" rx="5.92" ry="8.6"/>
      <ellipse class="cls-6" cx="51.64" cy="48.13" rx="2.73" ry="4.72"/>
      <ellipse class="cls-5" cx="64.47" cy="48.13" rx="5.92" ry="8.6"/>
      <ellipse class="cls-6" cx="64.76" cy="48.13" rx="2.73" ry="4.72"/>
      <path class="cls-9" d="M25.51,123.21c1.16.41.88,2.78,2.1,2.75.9-.02.99-1.32.79-2.2-2.71-12.28-1.17-25.45,4.29-36.77"/>
      <path class="cls-9" d="M88.1,124.24l-1.78.74c-.6-1.76-.42-3.67-.32-5.52.55-10.42-1.74-20.98-6.57-30.23"/>
      <path class="cls-9" d="M42.97,79.6c-4.64,7.47-7.05,16.3-6.86,25.1.09,4.03,1.31,8.81,5.14,10.07-.37-2.9-.73-5.86-.14-8.73s2.33-5.66,5.05-6.73c-1.38,2.97-.55,6.81,1.93,8.95.13-1.85.27-3.73.99-5.44.72-1.71,2.12-3.23,3.94-3.59-.76,2.42-.04,5.23,1.79,6.99.66-2.93,1.75-5.75,3.24-8.36,2.03,1.44,4.07,2.87,6.1,4.31.42-2.24.42-4.56,0-6.8,1.87,3.07,4.56,5.65,7.7,7.41.49-2.33.42-4.78-.21-7.08,1.46,1.07,2.93,2.14,4.39,3.22-.08-6.39-2.28-12.74-6.19-17.8"/>
      <path class="cls-4" d="M51.64,36.11c-1.9-.27-3.9.25-5.44,1.41-1.53,1.16-2.58,2.94-2.95,4.62-.16-1.13-.32-2.28-.23-3.42s.44-2.3,1.2-3.16c-.07.85.13,1.71.58,2.43-.04-1.09.46-2.18,1.3-2.87-.02.39.14.78.43,1.04,0-.31.05-.62.17-.91.34.11.66.29.94.52-.18-.37-.19-.82-.02-1.2-.23-.63-.47-1.26-.7-1.89.81.77,1.55,1.61,2.23,2.5,0-.31,0-.61.01-.92.42.15.77.46.97.86.01-.27.02-.54.04-.81.64.48,1.15,1.14,1.46,1.89"/>
    </g>
  </g>
  <circle class="cls-2" cx="130.63" cy="56.69" r="56.69"/>
  <g class="cls-14">
    <g>
      <path class="cls-10" d="M144.76,24.51c-.68-2.38-.52-4.99.44-7.27.31-.72.72-1.44,1.38-1.85l-3.28-2.39c-.32,2.4-1.73,4.58-3.62,6.1-.83.67-1.78,1.23-2.84,1.39l7.91,4.02Z"/>
      <path class="cls-9" d="M169.2,81.91c-.33-4.71-1.14-9.53-3.51-13.55-2.37-4.02-6.54-7.12-11.04-6.97l-15.9-.67-31.4-.92c-4.72-.15-9.12,2.95-11.61,6.97-2.49,4.02-3.35,8.83-3.69,13.55-.16,2.21-.22,4.43-.07,6.64.17,2.61.62,5.19,1.33,7.71.83,2.99,2.02,5.91,2.27,9,.18,2.21-.13,4.44-.4,6.64-.37,3.05-.66,6.1-.86,9.17-.04.62.01,1.4.58,1.63.79.33,1.41-.71,1.63-1.53.2,1.39.41,2.77.61,4.16.11.77.65,1.79,1.35,1.45.99-.48-.29-2.5,1.09-2.49-.22,3.19,1.35,6.2,2.88,9,5.5,10.06,11.21,20.26,13.39,31.52.32,1.63.56,3.32.26,4.96s-1.21,3.24-2.69,4c-2.31,1.18-5.44.1-7.37,1.64-1.68,1.57-2.26,4.5-.66,6.16,1.23,1.27,3.2,1.37,4.83,2.05,2.53,1.05,4.63,3.65,7.35,3.32,1.17-.14,2.19-.83,3.16-1.5,1.79-1.23,3.59-2.47,5.38-3.7,1.8-1.24,3.65-2.54,4.98-4.25.06.14.13.29.2.42,1.26,2.31,3.41,3.9,5.5,5.41l5.12,3.7c.92.67,1.9,1.36,3.01,1.5,2.59.33,4.58-2.26,6.99-3.32,1.55-.68,3.43-.78,4.6-2.05,1.52-1.65.97-4.59-.63-6.16-1.84-1.54-4.81-.46-7.01-1.64-1.41-.76-2.28-2.36-2.56-4s-.05-3.32.25-4.96c2.07-11.26,7.5-21.46,12.74-31.52,1.46-2.8,2.95-5.81,2.74-9,1.31-.01.09,2.01,1.03,2.49.66.34,1.18-.68,1.29-1.45.19-1.39.39-2.77.58-4.16.21.82.8,1.86,1.55,1.53.54-.24.6-1.01.56-1.63-.2-3.06-.47-6.12-.82-9.17-.25-2.21-.55-4.43-.38-6.64.24-3.09,1.37-6.02,2.16-9,.67-2.52,1.1-5.1,1.26-7.71.14-2.21.08-4.43-.07-6.64ZM133.74,167.33c.2,1.45.25,3.24-.92,4.04-.12.09-.26.15-.39.22-.13-.46-.38-.86-.8-1.15-.41-.27-.91-.38-1.33-.65-1.23-.81-1.17-2.59-.96-4.04,1.21-8.39,3.06-16.9,7.09-24.29,2.06,7.72-3.86,17.35-2.69,25.87Z"/>
      <path class="cls-8" d="M151.77,34.61c-1.73-3.76-3.85-7.45-6.98-10.15-6.64-5.74-16.74-5.89-24.9-2.65-2.39.95-4.71,2.19-6.49,4.04-1.63,1.7-2.72,3.85-3.39,6.11-1.42,4.77-.93,10.08,1,15.02-2.23.85-3.59,3.11-4.46,5.33-1.29,3.33-1.75,7.4.44,10.23,2,2.59,5.59,3.34,9.09,3.21-.07,2.63,1.36,5.16,3.38,6.85s4.58,2.63,7.16,3.15c.75.15,1.52.27,2.26.09.82-.2,1.5-.74,2.14-1.27,1.46-1.21,2.87-2.51,3.92-4.09s1.69-3.49,1.38-5.18c2.87,1.24,5.88,2.28,9,2.37,3.12.09,6.39-.89,8.51-3.18,1.65-1.78,2.49-4.2,2.68-6.63.19-2.42-.22-4.85-.86-7.51,1.84-1.24,3.38-2.98,4.19-5.05.81-2.07.84-4.47-.1-6.48-1.29-2.74-4.44-4.49-7.45-4.13l-.54-.07Z"/>
      <path class="cls-4" d="M142.63,38.2s.08,0,.05.04-.09.01-.13,0c-.14-.08-.28-.17-.41-.27-.7-.47-1.44-.89-2.22-1.23-.38-.17-.77-.32-1.18-.34-.81-.05-1.57.39-2.33,1-.09-1.5.75-3.01,2.06-3.73-.27.61-.38,1.29-.3,1.95.16-.41.43-.77.79-1.02.13.38.27.75.4,1.13.05-.33.15-.66.31-.96.17.41.39.8.64,1.16.1-.5.25-.99.43-1.46.38.76.67,1.57.87,2.4,0-.65.23-1.3.66-1.79.36,1.02.43,2.13.22,3.19"/>
      <ellipse class="cls-7" cx="146.22" cy="12.31" rx="3.08" ry="9.41" transform="translate(43.57 117.16) rotate(-50.42)"/>
      <ellipse class="cls-10" cx="146.43" cy="12.06" rx="2.07" ry="8.32" transform="translate(43.83 117.23) rotate(-50.42)"/>
      <path class="cls-10" d="M148.02,11.81c-.23.35-.63.57-1.05.54,0,0,0,0,0,0-.32-.03-.65-.15-.86-.39-.08-.1-.14-.22-.18-.36-.08-.37.08-.74.37-.98,1.2-.98,2.64-1.61,3.95-2.45.08-.05.18.04.12.13l-2.35,3.52Z"/>
      <ellipse class="cls-5" cx="125.09" cy="48.13" rx="5.92" ry="8.6"/>
      <ellipse class="cls-6" cx="125.58" cy="48.13" rx="2.73" ry="4.72"/>
      <ellipse class="cls-5" cx="138.4" cy="48.13" rx="5.92" ry="8.6"/>
      <ellipse class="cls-6" cx="138.69" cy="48.13" rx="2.73" ry="4.72"/>
      <path class="cls-9" d="M99.45,123.21c1.16.41.88,2.78,2.1,2.75.9-.02.99-1.32.79-2.2-2.71-12.28-1.17-25.45,4.29-36.77"/>
      <path class="cls-9" d="M162.03,124.24l-1.78.74c-.6-1.76-.42-3.67-.32-5.52.55-10.42-1.74-20.98-6.57-30.23"/>
      <path class="cls-9" d="M116.9,79.6c-4.64,7.47-7.05,16.3-6.86,25.1.09,4.03,1.31,8.81,5.14,10.07-.37-2.9-.73-5.86-.14-8.73s2.33-5.66,5.05-6.73c-1.38,2.97-.55,6.81,1.93,8.95.13-1.85.27-3.73.99-5.44.72-1.71,2.12-3.23,3.94-3.59-.76,2.42-.04,5.23,1.79,6.99.66-2.93,1.75-5.75,3.24-8.36,2.03,1.44,4.07,2.87,6.1,4.31.42-2.24.42-4.56,0-6.8,1.87,3.07,4.56,5.65,7.7,7.41.49-2.33.42-4.78-.21-7.08,1.46,1.07,2.93,2.14,4.39,3.22-.08-6.39-2.28-12.74-6.19-17.8"/>
      <path class="cls-4" d="M125.58,36.11c-1.9-.27-3.9.25-5.44,1.41-1.53,1.16-2.58,2.94-2.95,4.62-.16-1.13-.32-2.28-.23-3.42s.44-2.3,1.2-3.16c-.07.85.13,1.71.58,2.43-.04-1.09.46-2.18,1.3-2.87-.02.39.14.78.43,1.04,0-.31.05-.62.17-.91.34.11.66.29.94.52-.18-.37-.19-.82-.02-1.2-.23-.63-.47-1.26-.7-1.89.81.77,1.55,1.61,2.23,2.5,0-.31,0-.61.01-.92.42.15.77.46.97.86.01-.27.02-.54.04-.81.64.48,1.15,1.14,1.46,1.89"/>
    </g>
  </g>
  <circle class="cls-15" cx="204.56" cy="56.69" r="56.69"/>
  <g class="cls-12">
    <g>
      <path class="cls-10" d="M218.7,24.51c-.68-2.38-.52-4.99.44-7.27.31-.72.72-1.44,1.38-1.85l-3.28-2.39c-.32,2.4-1.73,4.58-3.62,6.1-.83.67-1.78,1.23-2.84,1.39l7.91,4.02Z"/>
      <path class="cls-9" d="M243.14,81.91c-.33-4.71-1.14-9.53-3.51-13.55-2.37-4.02-6.54-7.12-11.04-6.97l-15.9-.67-31.4-.92c-4.72-.15-9.12,2.95-11.61,6.97-2.49,4.02-3.35,8.83-3.69,13.55-.16,2.21-.22,4.43-.07,6.64.17,2.61.62,5.19,1.33,7.71.83,2.99,2.02,5.91,2.27,9,.18,2.21-.13,4.44-.4,6.64-.37,3.05-.66,6.1-.86,9.17-.04.62.01,1.4.58,1.63.79.33,1.41-.71,1.63-1.53.2,1.39.41,2.77.61,4.16.11.77.65,1.79,1.35,1.45.99-.48-.29-2.5,1.09-2.49-.22,3.19,1.35,6.2,2.88,9,5.5,10.06,11.21,20.26,13.39,31.52.32,1.63.56,3.32.26,4.96s-1.21,3.24-2.69,4c-2.31,1.18-5.44.1-7.37,1.64-1.68,1.57-2.26,4.5-.66,6.16,1.23,1.27,3.2,1.37,4.83,2.05,2.53,1.05,4.63,3.65,7.35,3.32,1.17-.14,2.19-.83,3.16-1.5,1.79-1.23,3.59-2.47,5.38-3.7,1.8-1.24,3.65-2.54,4.98-4.25.06.14.13.29.2.42,1.26,2.31,3.41,3.9,5.5,5.41,1.71,1.23,3.41,2.47,5.12,3.7.92.67,1.9,1.36,3.01,1.5,2.59.33,4.58-2.26,6.99-3.32,1.55-.68,3.43-.78,4.6-2.05,1.52-1.65.97-4.59-.63-6.16-1.84-1.54-4.81-.46-7.01-1.64-1.41-.76-2.28-2.36-2.56-4-.28-1.64-.05-3.32.25-4.96,2.07-11.26,7.5-21.46,12.74-31.52,1.46-2.8,2.95-5.81,2.74-9,1.31-.01.09,2.01,1.03,2.49.66.34,1.18-.68,1.29-1.45.19-1.39.39-2.77.58-4.16.21.82.8,1.86,1.55,1.53.54-.24.6-1.01.56-1.63-.2-3.06-.47-6.12-.82-9.17-.25-2.21-.55-4.43-.38-6.64.24-3.09,1.37-6.02,2.16-9,.67-2.52,1.1-5.1,1.26-7.71.14-2.21.08-4.43-.07-6.64ZM207.68,167.33c.2,1.45.25,3.24-.92,4.04-.12.09-.26.15-.39.22-.13-.46-.38-.86-.8-1.15-.41-.27-.91-.38-1.33-.65-1.23-.81-1.17-2.59-.96-4.04,1.21-8.39,3.06-16.9,7.09-24.29,2.06,7.72-3.86,17.35-2.69,25.87Z"/>
      <path class="cls-8" d="M225.71,34.61c-1.73-3.76-3.85-7.45-6.98-10.15-6.64-5.74-16.74-5.89-24.9-2.65-2.39.95-4.71,2.19-6.49,4.04-1.63,1.7-2.72,3.85-3.39,6.11-1.42,4.77-.93,10.08,1,15.02-2.23.85-3.59,3.11-4.46,5.33-1.29,3.33-1.75,7.4.44,10.23,2,2.59,5.59,3.34,9.09,3.21-.07,2.63,1.36,5.16,3.38,6.85s4.58,2.63,7.16,3.15c.75.15,1.52.27,2.26.09.82-.2,1.5-.74,2.14-1.27,1.46-1.21,2.87-2.51,3.92-4.09s1.69-3.49,1.38-5.18c2.87,1.24,5.88,2.28,9,2.37,3.12.09,6.39-.89,8.51-3.18,1.65-1.78,2.49-4.2,2.68-6.63.19-2.42-.22-4.85-.86-7.51,1.84-1.24,3.38-2.98,4.19-5.05s.84-4.47-.1-6.48c-1.29-2.74-4.44-4.49-7.45-4.13l-.54-.07Z"/>
      <path class="cls-4" d="M216.56,38.2s.08,0,.05.04-.09.01-.13,0c-.14-.08-.28-.17-.41-.27-.7-.47-1.44-.89-2.22-1.23-.38-.17-.77-.32-1.18-.34-.81-.05-1.57.39-2.33,1-.09-1.5.75-3.01,2.06-3.73-.27.61-.38,1.29-.3,1.95.16-.41.43-.77.79-1.02.13.38.27.75.4,1.13.05-.33.15-.66.31-.96.17.41.39.8.64,1.16.1-.5.25-.99.43-1.46.38.76.67,1.57.87,2.4,0-.65.23-1.3.66-1.79.36,1.02.43,2.13.22,3.19"/>
      <ellipse class="cls-7" cx="220.16" cy="12.31" rx="3.08" ry="9.41" transform="translate(70.39 174.15) rotate(-50.42)"/>
      <ellipse class="cls-10" cx="220.36" cy="12.06" rx="2.07" ry="8.32" transform="translate(70.65 174.21) rotate(-50.42)"/>
      <path class="cls-10" d="M221.95,11.81c-.23.35-.63.57-1.05.54,0,0,0,0,0,0-.32-.03-.65-.15-.86-.39-.08-.1-.14-.22-.18-.36-.08-.37.08-.74.37-.98,1.2-.98,2.64-1.61,3.95-2.45.08-.05.18.04.12.13l-2.35,3.52Z"/>
      <ellipse class="cls-5" cx="199.02" cy="48.13" rx="5.92" ry="8.6"/>
      <ellipse class="cls-6" cx="199.51" cy="48.13" rx="2.73" ry="4.72"/>
      <ellipse class="cls-5" cx="212.34" cy="48.13" rx="5.92" ry="8.6"/>
      <ellipse class="cls-6" cx="212.63" cy="48.13" rx="2.73" ry="4.72"/>
      <path class="cls-9" d="M173.38,123.21c1.16.41.88,2.78,2.1,2.75.9-.02.99-1.32.79-2.2-2.71-12.28-1.17-25.45,4.29-36.77"/>
      <path class="cls-9" d="M235.97,124.24l-1.78.74c-.6-1.76-.42-3.67-.32-5.52.55-10.42-1.74-20.98-6.57-30.23"/>
      <path class="cls-9" d="M190.84,79.6c-4.64,7.47-7.05,16.3-6.86,25.1.09,4.03,1.31,8.81,5.14,10.07-.37-2.9-.73-5.86-.14-8.73s2.33-5.66,5.05-6.73c-1.38,2.97-.55,6.81,1.93,8.95.13-1.85.27-3.73.99-5.44.72-1.71,2.12-3.23,3.94-3.59-.76,2.42-.04,5.23,1.79,6.99.66-2.93,1.75-5.75,3.24-8.36,2.03,1.44,4.07,2.87,6.1,4.31.42-2.24.42-4.56,0-6.8,1.87,3.07,4.56,5.65,7.7,7.41.49-2.33.42-4.78-.21-7.08,1.46,1.07,2.93,2.14,4.39,3.22-.08-6.39-2.28-12.74-6.19-17.8"/>
      <path class="cls-4" d="M199.51,36.11c-1.9-.27-3.9.25-5.44,1.41-1.53,1.16-2.58,2.94-2.95,4.62-.16-1.13-.32-2.28-.23-3.42s.44-2.3,1.2-3.16c-.07.85.13,1.71.58,2.43-.04-1.09.46-2.18,1.3-2.87-.02.39.14.78.43,1.04,0-.31.05-.62.17-.91.34.11.66.29.94.52-.18-.37-.19-.82-.02-1.2-.23-.63-.47-1.26-.7-1.89.81.77,1.55,1.61,2.23,2.5,0-.31,0-.61.01-.92.42.15.77.46.97.86.01-.27.02-.54.04-.81.64.48,1.15,1.14,1.46,1.89"/>
    </g>
  </g>
  <circle class="cls-3" cx="278.5" cy="56.69" r="56.69"/>
  <g class="cls-13">
    <g>
      <path class="cls-10" d="M292.63,24.51c-.68-2.38-.52-4.99.44-7.27.31-.72.72-1.44,1.38-1.85l-3.28-2.39c-.32,2.4-1.73,4.58-3.62,6.1-.83.67-1.78,1.23-2.84,1.39l7.91,4.02Z"/>
      <path class="cls-9" d="M317.07,81.91c-.33-4.71-1.14-9.53-3.51-13.55-2.37-4.02-6.54-7.12-11.04-6.97l-15.9-.67-31.4-.92c-4.72-.15-9.12,2.95-11.61,6.97-2.49,4.02-3.35,8.83-3.69,13.55-.16,2.21-.22,4.43-.07,6.64.17,2.61.62,5.19,1.33,7.71.83,2.99,2.02,5.91,2.27,9,.18,2.21-.13,4.44-.4,6.64-.37,3.05-.66,6.1-.86,9.17-.04.62.01,1.4.58,1.63.79.33,1.41-.71,1.63-1.53.2,1.39.41,2.77.61,4.16.11.77.65,1.79,1.35,1.45.99-.48-.29-2.5,1.09-2.49-.22,3.19,1.35,6.2,2.88,9,5.5,10.06,11.21,20.26,13.39,31.52.32,1.63.56,3.32.26,4.96s-1.21,3.24-2.69,4c-2.31,1.18-5.44.1-7.37,1.64-1.68,1.57-2.26,4.5-.66,6.16,1.23,1.27,3.2,1.37,4.83,2.05,2.53,1.05,4.63,3.65,7.35,3.32,1.17-.14,2.19-.83,3.16-1.5,1.79-1.23,3.59-2.47,5.38-3.7,1.8-1.24,3.65-2.54,4.98-4.25.06.14.13.29.2.42,1.26,2.31,3.41,3.9,5.5,5.41l5.12,3.7c.92.67,1.9,1.36,3.01,1.5,2.59.33,4.58-2.26,6.99-3.32,1.55-.68,3.43-.78,4.6-2.05,1.52-1.65.97-4.59-.63-6.16-1.84-1.54-4.81-.46-7.01-1.64-1.41-.76-2.28-2.36-2.56-4s-.05-3.32.25-4.96c2.07-11.26,7.5-21.46,12.74-31.52,1.46-2.8,2.95-5.81,2.74-9,1.31-.01.09,2.01,1.03,2.49.66.34,1.18-.68,1.29-1.45.19-1.39.39-2.77.58-4.16.21.82.8,1.86,1.55,1.53.54-.24.6-1.01.56-1.63-.2-3.06-.47-6.12-.82-9.17-.25-2.21-.55-4.43-.38-6.64.24-3.09,1.37-6.02,2.16-9,.67-2.52,1.1-5.1,1.26-7.71.14-2.21.08-4.43-.07-6.64ZM281.61,167.33c.2,1.45.25,3.24-.92,4.04-.12.09-.26.15-.39.22-.13-.46-.38-.86-.8-1.15-.41-.27-.91-.38-1.33-.65-1.23-.81-1.17-2.59-.96-4.04,1.21-8.39,3.06-16.9,7.09-24.29,2.06,7.72-3.86,17.35-2.69,25.87Z"/>
      <path class="cls-8" d="M299.64,34.61c-1.73-3.76-3.85-7.45-6.98-10.15-6.64-5.74-16.74-5.89-24.9-2.65-2.39.95-4.71,2.19-6.49,4.04-1.63,1.7-2.72,3.85-3.39,6.11-1.42,4.77-.93,10.08,1,15.02-2.23.85-3.59,3.11-4.46,5.33-1.29,3.33-1.75,7.4.44,10.23,2,2.59,5.59,3.34,9.09,3.21-.07,2.63,1.36,5.16,3.38,6.85s4.58,2.63,7.16,3.15c.75.15,1.52.27,2.26.09.82-.2,1.5-.74,2.14-1.27,1.46-1.21,2.87-2.51,3.92-4.09s1.69-3.49,1.38-5.18c2.87,1.24,5.88,2.28,9,2.37,3.12.09,6.39-.89,8.51-3.18,1.65-1.78,2.49-4.2,2.68-6.63.19-2.42-.22-4.85-.86-7.51,1.84-1.24,3.38-2.98,4.19-5.05s.84-4.47-.1-6.48c-1.29-2.74-4.44-4.49-7.45-4.13l-.54-.07Z"/>
      <path class="cls-4" d="M290.49,38.2s.08,0,.05.04-.09.01-.13,0c-.14-.08-.28-.17-.41-.27-.7-.47-1.44-.89-2.22-1.23-.38-.17-.77-.32-1.18-.34-.81-.05-1.57.39-2.33,1-.09-1.5.75-3.01,2.06-3.73-.27.61-.38,1.29-.3,1.95.16-.41.43-.77.79-1.02.13.38.27.75.4,1.13.05-.33.15-.66.31-.96.17.41.39.8.64,1.16.1-.5.25-.99.43-1.46.38.76.67,1.57.87,2.4,0-.65.23-1.3.66-1.79.36,1.02.43,2.13.22,3.19"/>
      <ellipse class="cls-7" cx="294.09" cy="12.31" rx="3.08" ry="9.41" transform="translate(97.22 231.13) rotate(-50.42)"/>
      <ellipse class="cls-10" cx="294.29" cy="12.06" rx="2.07" ry="8.32" transform="translate(97.48 231.2) rotate(-50.42)"/>
      <path class="cls-10" d="M295.89,11.81c-.23.35-.63.57-1.05.54,0,0,0,0,0,0-.32-.03-.65-.15-.86-.39-.08-.1-.14-.22-.18-.36-.08-.37.08-.74.37-.98,1.2-.98,2.64-1.61,3.95-2.45.08-.05.18.04.12.13l-2.35,3.52Z"/>
      <ellipse class="cls-5" cx="272.96" cy="48.13" rx="5.92" ry="8.6"/>
      <ellipse class="cls-6" cx="273.44" cy="48.13" rx="2.73" ry="4.72"/>
      <ellipse class="cls-5" cx="286.27" cy="48.13" rx="5.92" ry="8.6"/>
      <ellipse class="cls-6" cx="286.56" cy="48.13" rx="2.73" ry="4.72"/>
      <path class="cls-9" d="M247.32,123.21c1.16.41.88,2.78,2.1,2.75.9-.02.99-1.32.79-2.2-2.71-12.28-1.17-25.45,4.29-36.77"/>
      <path class="cls-9" d="M309.9,124.24l-1.78.74c-.6-1.76-.42-3.67-.32-5.52.55-10.42-1.74-20.98-6.57-30.23"/>
      <path class="cls-9" d="M264.77,79.6c-4.64,7.47-7.05,16.3-6.86,25.1.09,4.03,1.31,8.81,5.14,10.07-.37-2.9-.73-5.86-.14-8.73s2.33-5.66,5.05-6.73c-1.38,2.97-.55,6.81,1.93,8.95.13-1.85.27-3.73.99-5.44.72-1.71,2.12-3.23,3.94-3.59-.76,2.42-.04,5.23,1.79,6.99.66-2.93,1.75-5.75,3.24-8.36,2.03,1.44,4.07,2.87,6.1,4.31.42-2.24.42-4.56,0-6.8,1.87,3.07,4.56,5.65,7.7,7.41.49-2.33.42-4.78-.21-7.08,1.46,1.07,2.93,2.14,4.39,3.22-.08-6.39-2.28-12.74-6.19-17.8"/>
      <path class="cls-4" d="M273.44,36.11c-1.9-.27-3.9.25-5.44,1.41-1.53,1.16-2.58,2.94-2.95,4.62-.16-1.13-.32-2.28-.23-3.42s.44-2.3,1.2-3.16c-.07.85.13,1.71.58,2.43-.04-1.09.46-2.18,1.3-2.87-.02.39.14.78.43,1.04,0-.31.05-.62.17-.91.34.11.66.29.94.52-.18-.37-.19-.82-.02-1.2-.23-.63-.47-1.26-.7-1.89.81.77,1.55,1.61,2.23,2.5,0-.31,0-.61.01-.92.42.15.77.46.97.86.01-.27.02-.54.04-.81.64.48,1.15,1.14,1.46,1.89"/>
    </g>
  </g>
  <circle class="cls-18" cx="352.43" cy="56.69" r="56.69"/>
</svg>